<svg id="Layer_1" data-name="Layer 1" xmlns="http://www.w3.org/2000/svg" viewBox="0 0 24 24"><defs><style>.cls-1{fill:none;}.cls-2{fill:#21293a;}</style></defs><rect class="cls-1" width="24" height="24"/><path class="cls-2" d="M20.1,1.07A2.11,2.11,0,0,0,18.26,0H12.05A2.11,2.11,0,0,0,9.94,2.11V4.92A2.11,2.11,0,0,0,12.05,7h4.21a.71.71,0,0,1,.71.7v5.53a13.49,13.49,0,0,0-6.22-.21A6.35,6.35,0,1,0,6.37,24a36.83,36.83,0,0,0,17.24-4.34A.7.7,0,0,0,24,19V16A30.44,30.44,0,0,0,20.1,1.07ZM22.59,18.6a35.22,35.22,0,0,1-16.22,4A4.94,4.94,0,0,1,2.49,20.7a4.93,4.93,0,0,1,6.58-7.19,14.82,14.82,0,0,0-1.61.67.72.72,0,0,0-.31,1,.71.71,0,0,0,.94.31,12,12,0,0,1,10.67,0,.7.7,0,1,0,.63-1.26q-.5-.24-1-.45v-6a2.1,2.1,0,0,0-2.11-2.1h-.7V3.52a.7.7,0,0,0-.7-.71H13.45a.71.71,0,0,0,0,1.41h.7V5.63h-2.1a.71.71,0,0,1-.71-.71V2.11a.7.7,0,0,1,.71-.7h6.21a.7.7,0,0,1,.62.35A29,29,0,0,1,22.59,16V18.6Z"/></svg>