<svg id="Layer_1" data-name="Layer 1" xmlns="http://www.w3.org/2000/svg" viewBox="0 0 24 24"><defs><style>.cls-1{fill:none;}.cls-2{fill:#21293a;}.cls-3{fill:#ff0844;}</style></defs><rect class="cls-1" width="24" height="24"/><path class="cls-2" d="M17.1,12.5,12.66,8.31A1,1,0,0,0,12,8a1,1,0,0,0-.67.31L6.9,12.5a1.58,1.58,0,0,0-.24.3.76.76,0,0,0-.09.38.78.78,0,0,0,.23.57.81.81,0,0,0,.6.22A.82.82,0,0,0,8,13.71l1.66-1.66,1.5-1.55-.07,2.36v4.61a.8.8,0,0,0,.26.61.87.87,0,0,0,.64.27.86.86,0,0,0,.62-.27.8.8,0,0,0,.26-.61V12.86l-.07-2.36,1.5,1.55L16,13.71a.8.8,0,0,0,.28.2.88.88,0,0,0,.33.06.81.81,0,0,0,.6-.22.75.75,0,0,0,.24-.57.76.76,0,0,0-.09-.38A1.58,1.58,0,0,0,17.1,12.5Z"/><path class="cls-2" d="M16.55,5.65H7.45a.84.84,0,0,0-.62.27.87.87,0,0,0-.26.62.9.9,0,0,0,.26.64.87.87,0,0,0,.62.26h9.1a.87.87,0,0,0,.62-.26.9.9,0,0,0,.26-.64.87.87,0,0,0-.26-.62A.84.84,0,0,0,16.55,5.65Z"/><path class="cls-2" d="M13.76,22.14a11.29,11.29,0,0,1-1.76.15,10.29,10.29,0,0,1-3.25-.52,10.69,10.69,0,0,1-2.83-1.46A10.43,10.43,0,0,1,3.7,18.08a10.13,10.13,0,0,1-1.46-2.83A10,10,0,0,1,1.72,12a10,10,0,0,1,.52-3.25,10.16,10.16,0,0,1,6.5-6.51A10,10,0,0,1,12,1.72a10,10,0,0,1,3.25.52,10.38,10.38,0,0,1,2.83,1.45A10.25,10.25,0,0,1,20.3,5.92a10.69,10.69,0,0,1,1.46,2.83,10.51,10.51,0,0,1,0,6.5c-.1.31-.22.61-.35.91l1,1.76a11.75,11.75,0,0,0,1-2.16A11.49,11.49,0,0,0,24,12a11.53,11.53,0,0,0-.61-3.76A12.18,12.18,0,0,0,21.66,5a12.42,12.42,0,0,0-2.61-2.61A12.09,12.09,0,0,0,15.75.61,11.49,11.49,0,0,0,12,0,11.55,11.55,0,0,0,8.22.61,12.18,12.18,0,0,0,4.93,2.34,12.61,12.61,0,0,0,2.33,5,11.87,11.87,0,0,0,.61,8.24,11.53,11.53,0,0,0,0,12a11.49,11.49,0,0,0,.61,3.76,12.06,12.06,0,0,0,1.72,3.3,12.42,12.42,0,0,0,2.61,2.61,12.15,12.15,0,0,0,3.29,1.72A11.55,11.55,0,0,0,12,24a12.45,12.45,0,0,0,1.84-.14,2,2,0,0,1-.24-1A1.94,1.94,0,0,1,13.76,22.14Z"/><path class="cls-3" d="M20.21,15.86a1.06,1.06,0,0,0-.42-.42,1,1,0,0,0-.54-.15,1.08,1.08,0,0,0-.54.15,1,1,0,0,0-.42.42l-3.64,6.48a1.11,1.11,0,0,0-.15.55,1.14,1.14,0,0,0,.31.79,1.06,1.06,0,0,0,.8.32h7.27a1.11,1.11,0,0,0,.82-.32,1.13,1.13,0,0,0,.3-.79,1,1,0,0,0-.16-.55Zm-1.35,1.59a.53.53,0,0,1,.39-.15.54.54,0,0,1,.4.15.52.52,0,0,1,.14.39l-.06,2.46a.46.46,0,0,1-.14.33.45.45,0,0,1-.34.13.44.44,0,0,1-.33-.13.46.46,0,0,1-.14-.33l-.06-2.46A.56.56,0,0,1,18.86,17.45Zm.87,5.06a.62.62,0,0,1-.48.2.65.65,0,0,1-.48-.2.66.66,0,0,1-.2-.48.67.67,0,0,1,.2-.48.69.69,0,0,1,1,0,.64.64,0,0,1,.19.48A.62.62,0,0,1,19.73,22.51Z"/></svg>