<svg id="Layer_1" data-name="Layer 1" xmlns="http://www.w3.org/2000/svg" viewBox="0 0 24 24"><defs><style>.cls-1{fill:none;}.cls-2{fill:#21293a;}</style></defs><rect class="cls-1" width="24" height="24"/><path class="cls-2" d="M22.32,9.79a5.73,5.73,0,0,0-.06-8.17A5.67,5.67,0,0,0,18.16,0a5.72,5.72,0,0,0-5.62,5.32c0,.17,0,.34,0,.5A14,14,0,0,0,8.82,4c-2.07-.62-3.15-.1-3.69.45C4.2,5.37,4.16,7,5,9.08A7.7,7.7,0,1,0,14.91,19a7.25,7.25,0,0,0,2.64.61,2.76,2.76,0,0,0,2-.73c.54-.55,1.06-1.63.45-3.7a14.25,14.25,0,0,0-1.83-3.67l.45,0a5.74,5.74,0,0,0,3.7-1.67Zm-10.17,11a6.29,6.29,0,0,1-8.9-8.9,6.08,6.08,0,0,1,2.37-1.49,15.77,15.77,0,0,0,.83,1.38A4.54,4.54,0,0,0,4.36,13,4.72,4.72,0,0,0,11,19.64a4.8,4.8,0,0,0,1.22-2.1q.69.47,1.38.84a6.27,6.27,0,0,1-1.49,2.37ZM7.37,13a20.7,20.7,0,0,0,1.71,1.93A22.13,22.13,0,0,0,11,16.63,3.32,3.32,0,1,1,7.31,13Zm11.28,2.58c.32,1.08.29,1.92-.1,2.31s-1.7.4-3.22-.24a17.63,17.63,0,0,1-5.26-3.72A17.59,17.59,0,0,1,6.36,8.66c-.65-1.52-.74-2.72-.24-3.22s1.22-.42,2.3-.1a13,13,0,0,1,3.69,1.94,6.4,6.4,0,0,1-1.45,2.25l-.15.15a.7.7,0,0,0,0,1l2.74,2.74a.69.69,0,0,0,1,0l0,0a6.35,6.35,0,0,1,2.42-1.53,13,13,0,0,1,1.95,3.71ZM13.76,12,12,10.17a8,8,0,0,0,1.95-4.75,4.37,4.37,0,0,1,1.19-2.68,4.33,4.33,0,1,1,6.19,6,4.25,4.25,0,0,1-2.78,1.26A8.2,8.2,0,0,0,13.76,12Z"/></svg>