<svg id="Layer_1" data-name="Layer 1" xmlns="http://www.w3.org/2000/svg" viewBox="0 0 24 24"><defs><style>.cls-1{fill:#21293a;}.cls-2{fill:none;}</style></defs><path class="cls-1" d="M23.39,8.24A12.18,12.18,0,0,0,21.66,5a12.42,12.42,0,0,0-2.61-2.61A12.09,12.09,0,0,0,15.75.61,11.49,11.49,0,0,0,12,0,11.55,11.55,0,0,0,8.22.61,12.18,12.18,0,0,0,4.93,2.34,12.61,12.61,0,0,0,2.33,5,11.87,11.87,0,0,0,.61,8.24,11.53,11.53,0,0,0,0,12a11.49,11.49,0,0,0,.61,3.76,12.06,12.06,0,0,0,1.72,3.3,12.42,12.42,0,0,0,2.61,2.61,12.15,12.15,0,0,0,3.29,1.72A11.55,11.55,0,0,0,12,24a11.53,11.53,0,0,0,3.76-.61,12.15,12.15,0,0,0,3.29-1.72,12.42,12.42,0,0,0,2.61-2.61,12.09,12.09,0,0,0,1.73-3.3A11.49,11.49,0,0,0,24,12,11.53,11.53,0,0,0,23.39,8.24Zm-1.62,7a10.13,10.13,0,0,1-1.46,2.83,10.25,10.25,0,0,1-2.23,2.23,10.69,10.69,0,0,1-2.83,1.46,10.42,10.42,0,0,1-6.5,0,10.69,10.69,0,0,1-2.83-1.46A10.43,10.43,0,0,1,3.7,18.08a10.13,10.13,0,0,1-1.46-2.83A10,10,0,0,1,1.72,12a10,10,0,0,1,.52-3.25,10.16,10.16,0,0,1,6.5-6.51A10,10,0,0,1,12,1.72a10,10,0,0,1,3.25.52,10.38,10.38,0,0,1,2.83,1.45A10.25,10.25,0,0,1,20.3,5.92a10.69,10.69,0,0,1,1.46,2.83,10.51,10.51,0,0,1,0,6.5Z"/><path class="cls-1" d="M12.51,6.6a1.7,1.7,0,0,0-.51.08,3.21,3.21,0,0,0-.58.32L9.19,8.49A.83.83,0,0,0,9,8.75a.7.7,0,0,0-.08.33A.63.63,0,0,0,9,9.51a.55.55,0,0,0,.42.19.73.73,0,0,0,.22,0A.69.69,0,0,0,10,9.53l1.73-1.14h.08v8.1a1,1,0,0,0,.21.66.87.87,0,0,0,1.2,0,1,1,0,0,0,.22-.66v-9a1,1,0,0,0-.23-.68A.87.87,0,0,0,12.51,6.6Z"/><rect class="cls-2" width="24" height="24"/></svg>