<svg id="Layer_1" data-name="Layer 1" xmlns="http://www.w3.org/2000/svg" viewBox="0 0 28 28"><defs><style>.cls-1{fill:none;}.cls-2{fill:#21293a;}</style></defs><rect class="cls-1" width="28" height="28"/><path class="cls-2" d="M23.45,1.25A2.47,2.47,0,0,0,21.3,0H14.05a2.46,2.46,0,0,0-2.46,2.46V5.74A2.46,2.46,0,0,0,14.05,8.2H19A.82.82,0,0,1,19.8,9v6.45a15.64,15.64,0,0,0-7.26-.24A7.44,7.44,0,0,0,.2,18.79a7.48,7.48,0,0,0,1.41,6.38A7.4,7.4,0,0,0,7.43,28a43.07,43.07,0,0,0,20.12-5.06A.84.84,0,0,0,28,22.2V18.64A35.46,35.46,0,0,0,23.45,1.25ZM26.36,21.7A41.17,41.17,0,0,1,7.43,26.36,5.78,5.78,0,0,1,2.9,24.15a5.84,5.84,0,0,1-1.1-5,5.8,5.8,0,0,1,8.79-3.41,14.67,14.67,0,0,0-1.88.79A.82.82,0,1,0,9.44,18a14,14,0,0,1,12.45,0,.82.82,0,1,0,.73-1.46c-.39-.2-.78-.37-1.18-.53V9A2.47,2.47,0,0,0,19,6.56h-.83V4.1a.82.82,0,0,0-.82-.82H15.69a.82.82,0,0,0,0,1.64h.82V6.56H14.05a.82.82,0,0,1-.82-.82V2.46a.82.82,0,0,1,.82-.82H21.3a.83.83,0,0,1,.72.41,33.86,33.86,0,0,1,4.34,16.59V21.7Z"/></svg>