<svg id="Layer_1" data-name="Layer 1" xmlns="http://www.w3.org/2000/svg" viewBox="0 0 28 28"><defs><style>.cls-1{fill:none;}.cls-2{fill:#21293a;}</style></defs><path id="Shape" class="cls-1" d="M0,0H28V28H0Z"/><path class="cls-2" d="M27.46,5.63H25.61V5a.55.55,0,0,0-.39-.55A15.18,15.18,0,0,0,21.31,4,10.08,10.08,0,0,0,14,6.67,10,10,0,0,0,6.68,4a15.26,15.26,0,0,0-3.92.49A.55.55,0,0,0,2.37,5v.62H.54A.54.54,0,0,0,0,6.16V23.5A.54.54,0,0,0,.54,24,.5.5,0,0,0,.81,24a19.13,19.13,0,0,1,13.06-1.08h.26A18.82,18.82,0,0,1,27.19,24a.52.52,0,0,0,.54,0,.52.52,0,0,0,.27-.46V6.17A.54.54,0,0,0,27.46,5.63Zm-26.37,17V6.71H2.38V20.32a.55.55,0,0,0,.54.55H3A24,24,0,0,1,6.4,20.6a14,14,0,0,1,4.63.7A19.87,19.87,0,0,0,1.09,22.64ZM6.4,19.52a22.37,22.37,0,0,0-2.95.19V5.43a14.43,14.43,0,0,1,3.21-.36,8.84,8.84,0,0,1,6.78,2.66V21.25A12.63,12.63,0,0,0,6.4,19.52ZM14.54,7.73a8.93,8.93,0,0,1,6.77-2.66,14.45,14.45,0,0,1,3.22.36V19.71a23.9,23.9,0,0,0-2.93-.2,12.79,12.79,0,0,0-7.06,1.73ZM26.91,22.64a19.89,19.89,0,0,0-10-1.34,13.91,13.91,0,0,1,4.66-.7,22.93,22.93,0,0,1,3.41.26.54.54,0,0,0,.62-.45V6.71h1.3Z"/></svg>