<svg id="Layer_1" data-name="Layer 1" xmlns="http://www.w3.org/2000/svg" viewBox="0 0 28 28"><defs><style>.cls-1{fill:none;}.cls-2{fill:#21293a;}</style></defs><rect class="cls-1" width="28" height="28"/><path class="cls-2" d="M26,11.42A6.69,6.69,0,0,0,26,1.89,6.69,6.69,0,0,0,14.63,6.21c0,.2,0,.39-.06.58a16.21,16.21,0,0,0-4.28-2.13C7.88,4,6.62,4.55,6,5.19c-1.08,1.08-1.13,3-.14,5.4a9,9,0,1,0,9.49,14.78,9.08,9.08,0,0,0,2.07-3.22,8.15,8.15,0,0,0,3.08.71A3.16,3.16,0,0,0,22.8,22c.64-.64,1.25-1.91.53-4.33a16.22,16.22,0,0,0-2.14-4.27l.54-.05A6.68,6.68,0,0,0,26,11.42ZM14.17,24.21a7.34,7.34,0,0,1-10.38,0A7.35,7.35,0,0,1,6.55,12.08c.29.53.62,1.08,1,1.61a5.52,5.52,0,1,0,6.77,6.77,18.76,18.76,0,0,0,1.61,1,7.31,7.31,0,0,1-1.74,2.77Zm-5.58-9a28,28,0,0,0,2,2.25,26.13,26.13,0,0,0,2.24,2,3.87,3.87,0,1,1-6.59-3.12,3.77,3.77,0,0,1,2.28-1.11Zm13.17,3c.37,1.27.33,2.25-.12,2.7s-2,.47-3.76-.28a20.76,20.76,0,0,1-6.13-4.33,20.55,20.55,0,0,1-4.33-6.14c-.76-1.77-.86-3.18-.28-3.76s1.42-.49,2.68-.12a15.24,15.24,0,0,1,4.31,2.26,7.52,7.52,0,0,1-1.69,2.63l-.18.18a.82.82,0,0,0,0,1.16l3.2,3.2a.83.83,0,0,0,.58.24.86.86,0,0,0,.58-.24l0,0a7.67,7.67,0,0,1,2.82-1.79,15.31,15.31,0,0,1,2.28,4.33Zm-5.7-4.22L14,11.87a9.48,9.48,0,0,0,2.28-5.54,5.05,5.05,0,1,1,8.61,3.93,5.07,5.07,0,0,1-3.25,1.47A9.54,9.54,0,0,0,16.06,13.94Z"/></svg>