<svg id="Layer_1" data-name="Layer 1" xmlns="http://www.w3.org/2000/svg" viewBox="0 0 28 28"><defs><style>.cls-1{fill:none;}.cls-2{fill:#a8d126;}</style></defs><rect class="cls-1" width="28" height="28"/><path class="cls-2" d="M27.87,5.57a7.88,7.88,0,0,0-.52-2.1,5.16,5.16,0,0,0-1.11-1.69A5.47,5.47,0,0,0,24.53.65a7.88,7.88,0,0,0-2.1-.52A22.14,22.14,0,0,0,19.88,0H8A16.78,16.78,0,0,0,4.46.34,5.28,5.28,0,0,0,1.77,1.8,5.08,5.08,0,0,0,.33,4.47,17.32,17.32,0,0,0,0,8V19.88a22.14,22.14,0,0,0,.13,2.55,8.28,8.28,0,0,0,.51,2.1,5,5,0,0,0,1.12,1.69,5.28,5.28,0,0,0,1.71,1.12,7.88,7.88,0,0,0,2.1.52A22,22,0,0,0,8.12,28H19.88a22,22,0,0,0,2.55-.14,8.05,8.05,0,0,0,2.11-.52,5,5,0,0,0,2.81-2.81,7.88,7.88,0,0,0,.52-2.1A22.14,22.14,0,0,0,28,19.88V8.12A22.14,22.14,0,0,0,27.87,5.57Zm-14,3.07a1,1,0,0,1,.68-.23h6.84a1,1,0,0,1,.65.23.78.78,0,0,1,.27.64.85.85,0,0,1-.27.67,1,1,0,0,1-.68.23H14.55a1,1,0,0,1-.66-.23.78.78,0,0,1-.27-.64A.85.85,0,0,1,13.89,8.64Zm1,10.26a1,1,0,0,1-.67.23H8.5a6.24,6.24,0,0,1-2.91-.66,4.93,4.93,0,0,1-2-1.87,5.36,5.36,0,0,1-.74-2.86,5.29,5.29,0,0,1,.74-2.84,4.77,4.77,0,0,1,2-1.84,6.36,6.36,0,0,1,2.91-.65l1.65.06-1-.82L7.36,5.93a.83.83,0,0,1-.21-.28.91.91,0,0,1,.17-1A.86.86,0,0,1,8,4.39a.8.8,0,0,1,.36.07.89.89,0,0,1,.29.2L12.37,8.5a1.08,1.08,0,0,1,.34.77,1.1,1.1,0,0,1-.34.78L8.59,13.91a.92.92,0,0,1-1.27,0,.9.9,0,0,1-.25-.65.84.84,0,0,1,.07-.35,1,1,0,0,1,.21-.3l2-1.94.79-.59-1.65.05a4.42,4.42,0,0,0-2,.42,3.14,3.14,0,0,0-1.37,1.2,3.47,3.47,0,0,0-.5,1.9,3.52,3.52,0,0,0,1.08,2.71,3.94,3.94,0,0,0,2.77,1h5.7a1,1,0,0,1,.65.22.8.8,0,0,1,.27.65A.84.84,0,0,1,14.85,18.9Zm10,4.48a1,1,0,0,1-.68.23H17.38a1,1,0,0,1-.65-.23.78.78,0,0,1-.27-.64.85.85,0,0,1,.27-.67,1,1,0,0,1,.67-.23h6.84a1,1,0,0,1,.66.23.78.78,0,0,1,.27.64A.85.85,0,0,1,24.9,23.38Zm0-4.48a1,1,0,0,1-.68.23H17.38a1,1,0,0,1-.65-.23.78.78,0,0,1-.27-.64.81.81,0,0,1,.27-.66.94.94,0,0,1,.67-.23h6.84a1,1,0,0,1,.66.22.8.8,0,0,1,.27.65A.84.84,0,0,1,24.9,18.9Zm0-4.48a1,1,0,0,1-.68.23H17.38a1,1,0,0,1-.65-.22.8.8,0,0,1-.27-.65.84.84,0,0,1,.27-.66,1,1,0,0,1,.67-.23h6.84a1,1,0,0,1,.66.23.78.78,0,0,1,.27.64A.81.81,0,0,1,24.9,14.42Z"/></svg>