<svg id="Layer_1" data-name="Layer 1" xmlns="http://www.w3.org/2000/svg" viewBox="0 0 28 28"><defs><style>.cls-1{fill:#21293a;}.cls-2{fill:none;}</style></defs><path class="cls-1" d="M27.29,9.61a14.36,14.36,0,0,0-2-3.84,14.7,14.7,0,0,0-3.05-3,14.27,14.27,0,0,0-3.85-2,14,14,0,0,0-8.79,0,14.15,14.15,0,0,0-3.83,2,14.7,14.7,0,0,0-3,3,14,14,0,0,0-2,3.84,13.93,13.93,0,0,0,0,8.78,14.28,14.28,0,0,0,8.89,8.9,14,14,0,0,0,8.79,0,14.26,14.26,0,0,0,8.9-8.9,13.93,13.93,0,0,0,0-8.78ZM25.4,17.79a12,12,0,0,1-1.7,3.3,12.14,12.14,0,0,1-2.61,2.6,12,12,0,0,1-3.3,1.7A11.64,11.64,0,0,1,14,26a11.61,11.61,0,0,1-3.78-.61,11.89,11.89,0,0,1-5.89-4.3A11.81,11.81,0,0,1,2,14a12,12,0,0,1,19.07-9.7,11.87,11.87,0,0,1,2.6,2.6,12,12,0,0,1,1.7,3.3A11.64,11.64,0,0,1,26,14,11.6,11.6,0,0,1,25.4,17.79Z"/><path class="cls-1" d="M14.6,7.7a1.74,1.74,0,0,0-.61.1,3.32,3.32,0,0,0-.66.37l-2.6,1.74a.75.75,0,0,0-.29.3.8.8,0,0,0-.09.39.76.76,0,0,0,.2.5.66.66,0,0,0,.49.22,1.09,1.09,0,0,0,.26,0,1.18,1.18,0,0,0,.31-.18l2-1.32h.09v9.45A1.08,1.08,0,0,0,14,20a.88.88,0,0,0,.69.28.91.91,0,0,0,.71-.28,1.13,1.13,0,0,0,.25-.77V8.77A1.08,1.08,0,0,0,15.35,8,1,1,0,0,0,14.6,7.7Z"/><rect class="cls-2" width="28" height="28"/></svg>