<svg id="Layer_1" data-name="Layer 1" xmlns="http://www.w3.org/2000/svg" viewBox="0 0 28 28"><defs><style>.cls-1{fill:#21293a;}.cls-2{fill:none;}</style></defs><path class="cls-1" d="M27.29,9.61a14.36,14.36,0,0,0-2-3.84,14.7,14.7,0,0,0-3.05-3,14.27,14.27,0,0,0-3.85-2,14,14,0,0,0-8.79,0,14.15,14.15,0,0,0-3.83,2,14.7,14.7,0,0,0-3,3,14,14,0,0,0-2,3.84,13.93,13.93,0,0,0,0,8.78,14.28,14.28,0,0,0,8.89,8.9,14,14,0,0,0,8.79,0,14.26,14.26,0,0,0,8.9-8.9,13.93,13.93,0,0,0,0-8.78ZM25.4,17.79a12,12,0,0,1-1.7,3.3,12.14,12.14,0,0,1-2.61,2.6,12,12,0,0,1-3.3,1.7A11.64,11.64,0,0,1,14,26a11.61,11.61,0,0,1-3.78-.61,11.89,11.89,0,0,1-5.89-4.3A11.81,11.81,0,0,1,2,14a12,12,0,0,1,19.07-9.7,11.87,11.87,0,0,1,2.6,2.6,12,12,0,0,1,1.7,3.3A11.64,11.64,0,0,1,26,14,11.6,11.6,0,0,1,25.4,17.79Z"/><path class="cls-1" d="M18,18.68H12.62v-.09l3.48-3.76a12.18,12.18,0,0,0,1.52-1.92,3.76,3.76,0,0,0,.55-2,3.26,3.26,0,0,0-.52-1.82,3.4,3.4,0,0,0-1.43-1.2,5.06,5.06,0,0,0-2.17-.43,4.62,4.62,0,0,0-1.82.36,4.27,4.27,0,0,0-1.45,1A3.23,3.23,0,0,0,10,10.24c0,.1,0,.18,0,.27a2,2,0,0,0,0,.25.75.75,0,0,0,.22.56.76.76,0,0,0,.56.21.78.78,0,0,0,.53-.17,2,2,0,0,0,.33-.45,3,3,0,0,1,.88-1.32A2.4,2.4,0,0,1,14.13,9a2.46,2.46,0,0,1,1.7.56,1.88,1.88,0,0,1,.64,1.48,2.37,2.37,0,0,1-.5,1.43,16.45,16.45,0,0,1-1.14,1.36l-4.52,4.89a1.6,1.6,0,0,0-.24.36,1,1,0,0,0-.07.38.78.78,0,0,0,.22.58.9.9,0,0,0,.64.21H18a.8.8,0,0,0,.57-.21.85.85,0,0,0,0-1.16A.8.8,0,0,0,18,18.68Z"/><rect class="cls-2" width="28" height="28"/></svg>