<svg id="Layer_1" data-name="Layer 1" xmlns="http://www.w3.org/2000/svg" viewBox="0 0 24 24"><defs><style>.cls-1{fill:none;}.cls-2{fill:#fff;}</style></defs><path id="Shape" class="cls-1" d="M0,0H24V24H0Z"/><path class="cls-2" d="M24,6a1.41,1.41,0,0,0-1.41-1.41H17V.47a.5.5,0,0,0-.5-.5H10.26a.47.47,0,1,0,0,.94h5.79V4.55H10.44A1.4,1.4,0,0,0,10,7.27l.52,6.32H6.09a4,4,0,0,0-3.85,2.88.62.62,0,0,0,0,.13h0a2.21,2.21,0,0,0,0,4.42h0a.57.57,0,0,0,0,.13A4,4,0,0,0,6.09,24H21a.71.71,0,0,0,.7-.64L23.08,7.27A1.4,1.4,0,0,0,24,6ZM10.44,5.49H22.59a.47.47,0,1,1,0,.93H10.44a.47.47,0,0,1,0-.93ZM3.19,16.6a3.09,3.09,0,0,1,2.9-2.07h6.55a3.09,3.09,0,0,1,2.9,2.07Zm13.33.94a1.27,1.27,0,0,1,0,2.54H2.21a1.27,1.27,0,0,1,0-2.54Zm-1,3.48a3.07,3.07,0,0,1-2.9,2.07H6.09A3.07,3.07,0,0,1,3.19,21Zm5.28,2.07H15.2a4,4,0,0,0,1.28-1.94.3.3,0,0,0,0-.13h0a2.21,2.21,0,1,0,0-4.42h0a.32.32,0,0,0,0-.13,4,4,0,0,0-3.84-2.88H11.43l-.52-6.23H22.13Z"/></svg>