<svg id="Layer_1" data-name="Layer 1" xmlns="http://www.w3.org/2000/svg" viewBox="0 0 24 24"><defs><style>.cls-1{fill:none;}.cls-2{fill:#21293a;}</style></defs><rect class="cls-1" width="24" height="24"/><path class="cls-2" d="M1.18,5.67l.54-.55,2.4,2.4-1,1a.56.56,0,0,0,0,.78l.24.24a.56.56,0,0,0,.78,0l.43-.43,7.62,7.63a.56.56,0,0,0,.78,0l.44-.45,2.47,2.47a2.07,2.07,0,0,0,1.45.6h0a2,2,0,0,0,.82-.18l4.64,4.65a.56.56,0,0,0,.78,0l.24-.25a.55.55,0,0,0,0-.77L19.2,18.16a2.24,2.24,0,0,0,.19-.82h0a2,2,0,0,0-.61-1.49l-2.46-2.47.43-.43a.55.55,0,0,0,0-.77L9.12,4.54l.39-.38a.55.55,0,0,0,0-.77l-.25-.25a.55.55,0,0,0-.77,0l-.94.94L5.16,1.69l.49-.49a.55.55,0,0,0,0-.77L5.4.18a.55.55,0,0,0-.77,0L.16,4.65a.55.55,0,0,0,0,.77l.24.25A.56.56,0,0,0,1.18,5.67Zm13.62,10,.87-.89,2.1,2.1a.63.63,0,0,1,.18.45h0a.63.63,0,0,1-.61.61h0a.63.63,0,0,1-.44-.19ZM5.58,8.08,8.11,5.56l7,7-2.53,2.52Zm-2.84-4L4.14,2.7l2.4,2.4L5.13,6.5Z"/></svg>