<svg id="Layer_1" data-name="Layer 1" xmlns="http://www.w3.org/2000/svg" viewBox="0 0 28 28"><defs><style>.cls-1{fill:none;}.cls-2{fill:#21293a;}</style></defs><rect class="cls-1" width="28" height="28"/><path class="cls-2" d="M1.37,6.62,2,6,4.8,8.77,3.64,9.93a.63.63,0,0,0,0,.9l.28.29a.63.63,0,0,0,.9,0l.51-.5,8.9,8.89a.63.63,0,0,0,.9,0l.51-.51,2.88,2.88a2.46,2.46,0,0,0,1.7.7h0a2.54,2.54,0,0,0,1-.21l5.42,5.42a.63.63,0,0,0,.9,0l.28-.29a.63.63,0,0,0,0-.9L22.4,21.19a2.59,2.59,0,0,0,.22-1h0a2.42,2.42,0,0,0-.71-1.74L19,15.6l.51-.5a.63.63,0,0,0,0-.9l-8.9-8.9.45-.45a.63.63,0,0,0,0-.9l-.28-.28a.63.63,0,0,0-.9,0L8.81,4.76,6,2l.57-.57a.63.63,0,0,0,0-.9L6.3.21a.63.63,0,0,0-.9,0L.19,5.43a.63.63,0,0,0,0,.9l.28.29A.65.65,0,0,0,1.37,6.62ZM17.26,18.24l1-1,2.45,2.45a.74.74,0,0,1,.21.53h0a.71.71,0,0,1-.71.7h0a.74.74,0,0,1-.51-.21ZM6.51,9.43l3-2.94,8.16,8.16-2.94,3ZM3.2,4.79,4.83,3.15,7.63,6,6,7.58Z"/></svg>