<svg id="Layer_1" data-name="Layer 1" xmlns="http://www.w3.org/2000/svg" viewBox="0 0 28 28"><defs><style>.cls-1{fill:#21293a;}</style></defs><path class="cls-1" d="M.74,16.6a5,5,0,0,0,2,1.87,6.27,6.27,0,0,0,2.91.66h7.39a1,1,0,0,0,.68-.23.84.84,0,0,0,.27-.66.8.8,0,0,0-.27-.65,1,1,0,0,0-.65-.22H5.66a3.93,3.93,0,0,1-2.76-1,3.52,3.52,0,0,1-1.08-2.71,3.39,3.39,0,0,1,.5-1.9,3.11,3.11,0,0,1,1.36-1.2,4.48,4.48,0,0,1,2-.42H7.37L9,10.09l-.79.59-2,1.94a.75.75,0,0,0-.21.3.84.84,0,0,0-.07.35.9.9,0,0,0,.25.65.83.83,0,0,0,.62.25.82.82,0,0,0,.64-.26l3.79-3.86a1.1,1.1,0,0,0,.34-.78,1.08,1.08,0,0,0-.34-.77L7.47,4.66a.76.76,0,0,0-.28-.2.91.91,0,0,0-1,.19A.88.88,0,0,0,6,5.3.74.74,0,0,0,6,5.65a.83.83,0,0,0,.21.28L8,7.65l1,.82L7.37,8.41H5.65a6.36,6.36,0,0,0-2.91.65,4.89,4.89,0,0,0-2,1.84A5.29,5.29,0,0,0,0,13.74,5.36,5.36,0,0,0,.74,16.6Z"/><path class="cls-1" d="M16.26,19.13a1,1,0,0,1-.66-.23.78.78,0,0,1-.27-.64.81.81,0,0,1,.27-.66,1,1,0,0,1,.68-.23h10.8a1,1,0,0,1,.65.22.8.8,0,0,1,.27.65.84.84,0,0,1-.27.66,1,1,0,0,1-.68.23Z"/><path class="cls-1" d="M16.26,14.65a1,1,0,0,1-.66-.22.8.8,0,0,1-.27-.65.84.84,0,0,1,.27-.66,1,1,0,0,1,.68-.23h10.8a1,1,0,0,1,.65.23.78.78,0,0,1,.27.64.81.81,0,0,1-.27.66,1,1,0,0,1-.68.23Z"/><path class="cls-1" d="M16.26,23.61a1,1,0,0,1-.66-.23.78.78,0,0,1-.27-.64.85.85,0,0,1,.27-.67,1,1,0,0,1,.68-.23h10.8a1,1,0,0,1,.65.23.78.78,0,0,1,.27.64.85.85,0,0,1-.27.67,1,1,0,0,1-.68.23Z"/><path class="cls-1" d="M13.42,10.18a1,1,0,0,1-.65-.23.78.78,0,0,1-.27-.64.85.85,0,0,1,.27-.67,1,1,0,0,1,.68-.23H24.24a1,1,0,0,1,.66.23.78.78,0,0,1,.27.64.85.85,0,0,1-.27.67,1,1,0,0,1-.68.23Z"/></svg>