<svg id="Layer_1" data-name="Layer 1" xmlns="http://www.w3.org/2000/svg" viewBox="0 0 28 28"><defs><style>.cls-1{fill:none;}.cls-2{fill:#21293a;}.cls-3{fill:#ff0844;}</style></defs><rect class="cls-1" width="28" height="28"/><path class="cls-2" d="M20,14.59l-5.18-4.9A1.16,1.16,0,0,0,14,9.33a1.16,1.16,0,0,0-.78.36l-5.18,4.9a1.48,1.48,0,0,0-.28.35.85.85,0,0,0-.1.43.89.89,0,0,0,.27.67.91.91,0,0,0,.69.26A1,1,0,0,0,9.36,16l1.93-1.93L13,12.25,13,15v5.38a1,1,0,0,0,.31.72,1,1,0,0,0,.74.3,1,1,0,0,0,.72-.3,1,1,0,0,0,.31-.72V15L15,12.25l1.75,1.81L18.64,16a1.07,1.07,0,0,0,.33.24,1,1,0,0,0,.39.07,1,1,0,0,0,.7-.26.89.89,0,0,0,.27-.67.85.85,0,0,0-.1-.43A1.48,1.48,0,0,0,20,14.59Z"/><path class="cls-2" d="M19.31,6.6H8.69A1,1,0,0,0,8,6.91a1,1,0,0,0-.3.72,1,1,0,0,0,.3.74,1,1,0,0,0,.72.31H19.31A1,1,0,0,0,20,8.37a1,1,0,0,0,.3-.74,1,1,0,0,0-.3-.72A1,1,0,0,0,19.31,6.6Z"/><path class="cls-2" d="M16.06,25.83A12.76,12.76,0,0,1,14,26a11.61,11.61,0,0,1-3.78-.61,11.89,11.89,0,0,1-5.89-4.3A11.81,11.81,0,0,1,2,14a12,12,0,0,1,19.07-9.7,11.87,11.87,0,0,1,2.6,2.6,12,12,0,0,1,1.7,3.3A11.64,11.64,0,0,1,26,14a11.6,11.6,0,0,1-.59,3.78A9,9,0,0,1,25,18.85l1.16,2a15.07,15.07,0,0,0,1.15-2.51,13.93,13.93,0,0,0,0-8.78,14.36,14.36,0,0,0-2-3.84,14.7,14.7,0,0,0-3.05-3,14.27,14.27,0,0,0-3.85-2,14,14,0,0,0-8.79,0,14.15,14.15,0,0,0-3.83,2,14.7,14.7,0,0,0-3,3,14,14,0,0,0-2,3.84,13.93,13.93,0,0,0,0,8.78,14.28,14.28,0,0,0,8.89,8.9A13.69,13.69,0,0,0,14,28a13.89,13.89,0,0,0,2.16-.17,2.39,2.39,0,0,1-.29-1.12A2.22,2.22,0,0,1,16.06,25.83Z"/><path class="cls-3" d="M23.57,18.5a1.19,1.19,0,0,0-.48-.49,1.29,1.29,0,0,0-.63-.17,1.36,1.36,0,0,0-.64.17,1.28,1.28,0,0,0-.49.49L17.1,26.06a1.3,1.3,0,0,0,.18,1.56,1.23,1.23,0,0,0,.94.38H26.7a1.27,1.27,0,0,0,.95-.38A1.3,1.3,0,0,0,28,26.7a1.27,1.27,0,0,0-.18-.64ZM22,20.36a.58.58,0,0,1,.45-.18.6.6,0,0,1,.46.18.6.6,0,0,1,.17.46L23,23.69a.53.53,0,0,1-.56.53.53.53,0,0,1-.39-.15.55.55,0,0,1-.16-.38l-.07-2.87A.6.6,0,0,1,22,20.36Zm1,5.91a.77.77,0,0,1-.56.23.79.79,0,0,1-.56-.23.81.81,0,0,1,0-1.13.79.79,0,0,1,.56-.23.74.74,0,0,1,.56.24.71.71,0,0,1,.23.55A.77.77,0,0,1,23,26.27Z"/></svg>