<svg id="Layer_1" data-name="Layer 1" xmlns="http://www.w3.org/2000/svg" viewBox="0 0 28 28"><defs><style>.cls-1{fill:none;}.cls-2{fill:#ff0844;}</style></defs><path id="Shape" class="cls-1" d="M0,0H28V28H0Z"/><path class="cls-2" d="M25.69.4A1.3,1.3,0,0,1,26.3.05a1.61,1.61,0,0,1,.69,0A1.26,1.26,0,0,1,27.6.4,1.26,1.26,0,0,1,28,1a1.38,1.38,0,0,1,0,.7,1.23,1.23,0,0,1-.35.6L2.31,27.61A1.26,1.26,0,0,1,1.7,28,1.61,1.61,0,0,1,1,28a1.33,1.33,0,0,1-.62-.35A1.26,1.26,0,0,1,0,27a1.51,1.51,0,0,1,0-.7,1.29,1.29,0,0,1,.34-.6Z"/><path class="cls-2" d="M.05,1.71a1.38,1.38,0,0,1,0-.7A1.32,1.32,0,0,1,.39.4,1.27,1.27,0,0,1,1,0a1.65,1.65,0,0,1,.7,0A1.27,1.27,0,0,1,2.31.4L27.6,25.7a1.23,1.23,0,0,1,.35.6,1.65,1.65,0,0,1,0,.7,1.35,1.35,0,0,1-1,1,1.61,1.61,0,0,1-.69,0,1.3,1.3,0,0,1-.61-.35L.39,2.31A1.29,1.29,0,0,1,.05,1.71Z"/></svg>