<svg id="Layer_1" data-name="Layer 1" xmlns="http://www.w3.org/2000/svg" viewBox="0 0 28 28"><defs><style>.cls-1{fill:none;}.cls-2{fill:#16a950;}</style></defs><path id="Shape" class="cls-1" d="M28,0H0V28H28Z"/><path class="cls-2" d="M8.94,27.2.41,16.55A1.88,1.88,0,0,1,.1,16a1.31,1.31,0,0,1-.1-.5,1.27,1.27,0,0,1,.37-.95,1.33,1.33,0,0,1,1-.36,1.45,1.45,0,0,1,1.21.68l7.77,9.87L25.52.74A1.68,1.68,0,0,1,26,.18,1.24,1.24,0,0,1,26.7,0a1.31,1.31,0,0,1,.95.35,1.3,1.3,0,0,1,.35.94,1.61,1.61,0,0,1-.08.48,2.81,2.81,0,0,1-.28.54L11.76,27.22a1.69,1.69,0,0,1-.59.57,1.57,1.57,0,0,1-.79.19A1.8,1.8,0,0,1,8.94,27.2Z"/></svg>