<svg xmlns="http://www.w3.org/2000/svg" xmlns:xlink="http://www.w3.org/1999/xlink" width="59" height="58" viewBox="0 0 59 58">
  <defs>
    <clipPath id="clip-iPhone_XR_XS_Max_11_1">
      <rect width="59" height="58"/>
    </clipPath>
  </defs>
  <g id="iPhone_XR_XS_Max_11_1" data-name="iPhone XR, XS Max, 11 – 1" clip-path="url(#clip-iPhone_XR_XS_Max_11_1)">
    <g id="Group_114" data-name="Group 114" transform="translate(-633 -286)">
      <path id="Shape" d="M637.5,290.055h50v50h-50Z" fill="none"/>
      <g id="Group_113" data-name="Group 113">
        <g id="Group_112" data-name="Group 112">
          <path id="Path_44" data-name="Path 44" d="M682.593,297.093a16.5,16.5,0,0,0-19.973-2.425,17.124,17.124,0,0,0-20.4,2.425,16.1,16.1,0,0,0-.007,22.782l.007.008,4.138,4.138.006.006a4.365,4.365,0,0,0,2.866,1.28,4.383,4.383,0,0,0,4.143,4.141,4.385,4.385,0,0,0,4.143,4.143,4.393,4.393,0,0,0,7.449,2.911l4.816-4.11c.029-.025.057-.051.085-.079a4.373,4.373,0,0,0,1.277-2.863,4.361,4.361,0,0,0,2.866-1.28,4.9,4.9,0,0,0,1.414-2.861,4.384,4.384,0,0,0,4.3-4.145,4.368,4.368,0,0,0,2.865-1.28h0A15.684,15.684,0,0,0,682.593,297.093ZM650.51,321.955h0a1.465,1.465,0,0,1-2.07,0v0l0,0a1.467,1.467,0,0,1-.035-2.028l4.189-3.487q.051-.042.1-.09a1.465,1.465,0,0,1,2.292,1.789l-4.385,3.741C650.566,321.9,650.538,321.928,650.51,321.955Zm4.144,4.143a1.465,1.465,0,0,1-2.109-2.033c4.6-3.827,3.994-3.283,4.893-4.182a1.465,1.465,0,0,1,2.105,2.037l-4.8,4.1C654.71,326.045,654.681,326.071,654.654,326.1Zm4.144,4.144a1.465,1.465,0,0,1-2.106-2.037l4.8-4.1c.029-.025.057-.051.085-.079a1.465,1.465,0,0,1,2.105,2.038l-4.8,4.1C658.853,330.188,658.825,330.215,658.8,330.242Zm9.033-.035-4.8,4.1c-.029.025-.058.051-.085.078a1.465,1.465,0,0,1-2.1-2.037l4.8-4.1c.03-.025.058-.051.085-.078a1.465,1.465,0,0,1,2.106,2.037Zm12.69-12.4a1.465,1.465,0,0,1-2.072,0l-8.287-8.287a1.465,1.465,0,0,0-2.072,2.072l8.287,8.287a1.465,1.465,0,0,1-2.072,2.072h0l-8.287-8.286a1.465,1.465,0,0,0-2.072,2.071l8.288,8.288a1.527,1.527,0,0,1-.293,2.071,1.464,1.464,0,0,1-2.072,0h0A4.359,4.359,0,0,0,667,324.818a4.387,4.387,0,0,0-4.143-4.142,4.385,4.385,0,0,0-4.823-4.127,4.393,4.393,0,0,0-7.369-2.326l-4.2,3.5c-.034.029-.067.059-.1.09a4.376,4.376,0,0,0-.858,1.214l-1.214-1.214a13.184,13.184,0,0,1,0-18.646,14.352,14.352,0,0,1,15.727-2.561q-.259.238-.512.489L653.5,303.1a4.685,4.685,0,0,0,5.911,7.211l9.238-6.158c4.012,3.979,7.15,6.861,11.872,11.583A1.466,1.466,0,0,1,680.521,317.811Zm2.072-4.143c-5.073-5.073-8.312-8.019-12.724-12.431h0a1.468,1.468,0,0,0-1.847-.183h0l-10.234,6.823a1.756,1.756,0,0,1-2.215-2.7l6.011-6.01a13.571,13.571,0,0,1,18.939,0c4.145,4.146,5.285,9.985,2.6,15.136A4.4,4.4,0,0,0,682.593,313.668Z" fill="#16aa50"/>
        </g>
      </g>
    </g>
  </g>
</svg>
