<svg id="Layer_1" data-name="Layer 1" xmlns="http://www.w3.org/2000/svg" viewBox="0 0 24 24"><defs><style>.cls-1{fill:none;}.cls-2{fill:#fff;}</style></defs><path id="Shape" class="cls-1" d="M0,0H24V24H0Z"/><path class="cls-2" d="M23.53,4.82H22V4.28a.46.46,0,0,0-.33-.46,13.12,13.12,0,0,0-3.36-.43A8.65,8.65,0,0,0,12,5.72,8.54,8.54,0,0,0,5.72,3.39a13,13,0,0,0-3.35.43A.46.46,0,0,0,2,4.28v.54H.47A.47.47,0,0,0,0,5.28V20.14a.47.47,0,0,0,.47.47.43.43,0,0,0,.22-.06,16.36,16.36,0,0,1,11.2-.93h.22a16.14,16.14,0,0,1,11.19.93.49.49,0,0,0,.47,0,.48.48,0,0,0,.23-.4V5.29A.47.47,0,0,0,23.53,4.82ZM.93,19.4V5.75H2V17.42a.47.47,0,0,0,.46.47h.08a20.14,20.14,0,0,1,2.9-.24,12.2,12.2,0,0,1,4,.6A17.15,17.15,0,0,0,.93,19.4Zm4.55-2.67A19.53,19.53,0,0,0,3,16.89V4.65a13.49,13.49,0,0,1,2.76-.31,7.61,7.61,0,0,1,5.81,2.28V18.21A10.9,10.9,0,0,0,5.48,16.73Zm7-10.11a7.68,7.68,0,0,1,5.81-2.28A13.49,13.49,0,0,1,21,4.65V16.89a21.33,21.33,0,0,0-2.52-.17,10.9,10.9,0,0,0-6.05,1.49ZM23.06,19.4a17.18,17.18,0,0,0-8.54-1.15,12.3,12.3,0,0,1,4-.6,22.11,22.11,0,0,1,2.93.23.46.46,0,0,0,.53-.39V5.75h1.11Z"/></svg>