<svg id="Layer_1" data-name="Layer 1" xmlns="http://www.w3.org/2000/svg" viewBox="0 0 28 28"><defs><style>.cls-1{fill:none;}.cls-2{fill:#9ea5b8;}</style></defs><rect id="bound-2" class="cls-1" width="28" height="28"/><path class="cls-2" d="M17.51,11.75h6.15a.83.83,0,1,0,0-1.65H17.51a.83.83,0,0,0,0,1.65Z"/><path class="cls-2" d="M17.51,15.26h6.15a.82.82,0,1,0,0-1.64H17.51a.82.82,0,0,0,0,1.64Z"/><path class="cls-2" d="M27.18,1.76H11.29l-1-1.42A.85.85,0,0,0,9.61,0H.82A.82.82,0,0,0,0,.82V27.18A.82.82,0,0,0,.82,28H27.18a.82.82,0,0,0,.82-.82V2.58A.82.82,0,0,0,27.18,1.76ZM15.9,26.35H5.16V24.62a5.37,5.37,0,0,1,9.16-3.79,5.3,5.3,0,0,1,1.58,3.79v1.73Zm-7.64-11a2.27,2.27,0,1,1,2.27,2.27A2.27,2.27,0,0,1,8.26,15.34Zm18.09,11H17.54V24.62a7,7,0,0,0-4.29-6.46,3.92,3.92,0,1,0-5.44,0,7,7,0,0,0-4.3,6.46v1.73H1.65V1.65H9.18l4.15,5.8A.81.81,0,0,0,14,7.8H26.35Zm0-20.2H14.42l-2-2.75H26.35Z"/></svg>