<svg id="Layer_1" data-name="Layer 1" xmlns="http://www.w3.org/2000/svg" viewBox="0 0 28 28"><defs><style>.cls-1{fill:none;}.cls-2{fill:#9ea5b8;}</style></defs><path id="Shape" class="cls-1" d="M0,0H28V28H0Z"/><path class="cls-2" d="M4.73,25.47c-.34-.5-.67-1.06-1-1.67S3,22.42,2.63,21.61,1.88,20,1.53,19.13s-.67-1.67-1-2.45C.4,16.2.27,15.77.16,15.4A4.21,4.21,0,0,1,0,14.33a3.36,3.36,0,0,1,.18-1.05A6.31,6.31,0,0,1,.81,12,28.47,28.47,0,0,1,2.9,9.18c.85-1,1.85-2.14,3-3.28s2.25-2.15,3.29-3A28.47,28.47,0,0,1,12,.81,6.31,6.31,0,0,1,13.28.18,3.36,3.36,0,0,1,14.33,0,4.21,4.21,0,0,1,15.4.16c.37.11.8.24,1.28.41.78.29,1.6.61,2.45,1s1.67.72,2.48,1.1,1.53.74,2.19,1.09,1.17.67,1.67,1a9.27,9.27,0,0,1,1.28,1,4.24,4.24,0,0,1,1.11,1.79,3.41,3.41,0,0,1,0,1.9,4,4,0,0,1-1.08,1.77,4.07,4.07,0,0,1-3.35,1.14l-3-.29a1.46,1.46,0,0,0-.57,0,1.13,1.13,0,0,0-.41.25l-7.11,7.11a1.13,1.13,0,0,0-.25.41,1.46,1.46,0,0,0,0,.57l.29,3a4.07,4.07,0,0,1-1.14,3.35,4,4,0,0,1-1.77,1.08,3.41,3.41,0,0,1-1.9,0,4.24,4.24,0,0,1-1.79-1.11A9.27,9.27,0,0,1,4.73,25.47ZM8.52,26.6a2.42,2.42,0,0,0,1.71-.77,2.52,2.52,0,0,0,.63-1.06A3.82,3.82,0,0,0,11,23.4l-.29-3a2.62,2.62,0,0,1,.06-1,2.12,2.12,0,0,1,.58-.88l7.17-7.17a2.12,2.12,0,0,1,.88-.58,2.62,2.62,0,0,1,1-.06l3,.29a3.82,3.82,0,0,0,1.37-.12,2.52,2.52,0,0,0,1.06-.63,2.47,2.47,0,0,0,.78-1.71,2.37,2.37,0,0,0-.78-1.75,4.36,4.36,0,0,0-.54-.48c-.21-.16-.45-.33-.73-.51s-.62-.37-1-.57c-.7-.37-1.48-.76-2.33-1.17s-1.72-.8-2.61-1.18-1.73-.72-2.53-1c-.39-.14-.74-.25-1.06-.34a2.21,2.21,0,0,0-1-.06A2.87,2.87,0,0,0,13,1.9a26.47,26.47,0,0,0-2.79,2,47.42,47.42,0,0,0-6.23,6.23,26.49,26.49,0,0,0-2,2.8,3,3,0,0,0-.46,1.1,2.64,2.64,0,0,0,.06,1c.09.31.21.66.35,1,.29.79.63,1.64,1,2.53S3.62,20.37,4,21.23s.79,1.62,1.18,2.32c.21.38.4.72.58,1s.35.53.51.74a3.64,3.64,0,0,0,.47.54A2.32,2.32,0,0,0,8.52,26.6ZM4.85,16.36a.72.72,0,0,1,.24-.52l1.45-1.45L5.1,13a.77.77,0,0,1-.25-.51.74.74,0,0,1,.23-.51.69.69,0,0,1,.5-.22.76.76,0,0,1,.51.24L7.53,13.4,8.92,12a.78.78,0,0,1,.55-.27A.7.7,0,0,1,10,12a.74.74,0,0,1,.24.53A.82.82,0,0,1,10,13L8.56,14.42,10,15.87a.72.72,0,0,1,.24.51.66.66,0,0,1-.22.5.67.67,0,0,1-.5.23A.77.77,0,0,1,9,16.86L7.57,15.42,6.12,16.86a.71.71,0,0,1-.52.25.8.8,0,0,1-.52-.25A.7.7,0,0,1,4.85,16.36Zm9.5-5.24a1.37,1.37,0,0,1-1-.43,1.4,1.4,0,1,1,1,.43Zm0-4.39a1.35,1.35,0,0,1-1-.43,1.39,1.39,0,0,1-.43-1,1.45,1.45,0,0,1,1.44-1.45,1.47,1.47,0,0,1,1.44,1.45,1.37,1.37,0,0,1-.43,1A1.41,1.41,0,0,1,14.37,6.73Z"/></svg>