<svg id="Layer_1" data-name="Layer 1" xmlns="http://www.w3.org/2000/svg" viewBox="0 0 28 28"><defs><style>.cls-1{fill:none;}.cls-2{fill:#21293a;}</style></defs><rect class="cls-1" width="28" height="28"/><path class="cls-2" d="M23.46,1.27A2.43,2.43,0,0,0,21.31,0H14a2.46,2.46,0,0,0-2.46,2.46V5.74A2.46,2.46,0,0,0,14,8.2h2.46V4.92h-.82a.82.82,0,0,1,0-1.64h1.7a.82.82,0,0,1,.82.82V8.2H19A.82.82,0,0,1,19.8,9v6.53a15.21,15.21,0,0,1,2.82,1.05.82.82,0,0,1-.73,1.47,14,14,0,0,0-12.44,0,.82.82,0,1,1-.74-1.47,15.75,15.75,0,0,1,3.85-1.3A7.44,7.44,0,0,0,.2,18.84a7.51,7.51,0,0,0,1.4,6.37A7.48,7.48,0,0,0,7.44,28a42.74,42.74,0,0,0,20.11-5,.81.81,0,0,0,.45-.73V18.7A35.59,35.59,0,0,0,23.46,1.27Z"/></svg>