<svg id="Layer_1" data-name="Layer 1" xmlns="http://www.w3.org/2000/svg" viewBox="0 0 24 24"><defs><style>.cls-1{opacity:0.6;}.cls-2{fill:none;}.cls-3{fill:#3c3c43;}</style></defs><g class="cls-1"><rect class="cls-2" width="24" height="24"/><path class="cls-3" d="M13.75,7.87a5.21,5.21,0,0,1,1.4,1,6.9,6.9,0,0,1,1.53,2.2,6.21,6.21,0,0,1,.5,2.42,6,6,0,0,1-.51,2.4,6.69,6.69,0,0,1-1.51,2.18L11.24,22a6.66,6.66,0,0,1-2.17,1.51A6,6,0,0,1,6.66,24a6.19,6.19,0,0,1-2.41-.5A6.9,6.9,0,0,1,2.05,22a7.06,7.06,0,0,1-1.53-2.2A6.19,6.19,0,0,1,0,17.36,6,6,0,0,1,.53,15,6.92,6.92,0,0,1,2,12.78L5.56,9.26a3.44,3.44,0,0,0,.2,2L3.24,13.8a5.12,5.12,0,0,0-1.37,2.26,4.6,4.6,0,0,0,0,2.47A5.11,5.11,0,0,0,3.23,20.8a5,5,0,0,0,2.25,1.35,4.54,4.54,0,0,0,2.48,0,5,5,0,0,0,2.26-1.37L14,17a5,5,0,0,0,1.37-2.25,4.54,4.54,0,0,0,0-2.48A5,5,0,0,0,14,10a4.26,4.26,0,0,0-1.47-1,6,6,0,0,0-2.09-.38l1.32-1.33A6.26,6.26,0,0,1,13.75,7.87Z"/><path class="cls-3" d="M10.25,16.13a5.21,5.21,0,0,1-1.4-1,6.9,6.9,0,0,1-1.53-2.2,6.21,6.21,0,0,1-.5-2.42,6,6,0,0,1,.51-2.4A6.69,6.69,0,0,1,8.84,5.94L12.76,2A6.72,6.72,0,0,1,14.92.51,6,6,0,0,1,17.33,0a6.24,6.24,0,0,1,2.42.5A6.9,6.9,0,0,1,22,2a7,7,0,0,1,1.52,2.2,5.95,5.95,0,0,1,0,4.82A6.92,6.92,0,0,1,22,11.22l-3.52,3.52a3.44,3.44,0,0,0-.2-2l2.52-2.53a5.12,5.12,0,0,0,1.37-2.26,4.7,4.7,0,0,0,0-2.47A5.18,5.18,0,0,0,20.77,3.2a5,5,0,0,0-2.26-1.35,4.51,4.51,0,0,0-2.47,0,5,5,0,0,0-2.26,1.37L10,7A5,5,0,0,0,8.67,9.22a4.54,4.54,0,0,0,0,2.48A5,5,0,0,0,10,14a4.26,4.26,0,0,0,1.47,1,5.9,5.9,0,0,0,2.08.38l-1.31,1.33A6.26,6.26,0,0,1,10.25,16.13Z"/></g></svg>