<svg id="Layer_1" data-name="Layer 1" xmlns="http://www.w3.org/2000/svg" viewBox="0 0 24 24"><defs><style>.cls-1{fill:none;}.cls-2{fill:#fff;}</style></defs><path id="Shape" class="cls-1" d="M0,0H24V24H0Z"/><path class="cls-2" d="M.23,1.32A.73.73,0,0,1,0,.78.75.75,0,0,1,.23.23.75.75,0,0,1,.78,0H23.21a.79.79,0,0,1,.56.23A.75.75,0,0,1,24,.78a.73.73,0,0,1-.23.54.79.79,0,0,1-.56.23H.78A.75.75,0,0,1,.23,1.32Z"/><path class="cls-2" d="M.23,12.55a.77.77,0,0,1,0-1.1.75.75,0,0,1,.55-.23H23.21a.79.79,0,0,1,.56.23.77.77,0,0,1,0,1.1.79.79,0,0,1-.56.23H.78A.75.75,0,0,1,.23,12.55Z"/><path class="cls-2" d="M.23,23.77A.77.77,0,0,1,0,23.21a.74.74,0,0,1,.23-.54.75.75,0,0,1,.55-.23H23.21a.79.79,0,0,1,.56.23.74.74,0,0,1,.23.54.77.77,0,0,1-.23.56.79.79,0,0,1-.56.23H.78A.75.75,0,0,1,.23,23.77Z"/></svg>