<svg id="Layer_1" data-name="Layer 1" xmlns="http://www.w3.org/2000/svg" viewBox="0 0 20 20"><defs><style>.cls-1{fill:none;}.cls-2{fill:#16a950;}</style></defs><rect class="cls-1" width="20" height="20"/><path class="cls-2" d="M19.9,14.66a.72.72,0,0,1-.25.27.8.8,0,0,1-.38.1,1.21,1.21,0,0,1-.35-.07l-.34-.12L10,11.42,1.41,14.84,1.08,15A1.21,1.21,0,0,1,.74,15a.81.81,0,0,1-.39-.1.72.72,0,0,1-.25-.27.66.66,0,0,1-.1-.37.6.6,0,0,1,.12-.36.76.76,0,0,1,.33-.25L9,10.29l.53-.19A1.45,1.45,0,0,1,10,10a1.49,1.49,0,0,1,.52.1,5.41,5.41,0,0,1,.53.19l8.5,3.39a.76.76,0,0,1,.33.25.6.6,0,0,1,.12.36A.66.66,0,0,1,19.9,14.66Z"/><path class="cls-2" d="M19.9,9.64a.7.7,0,0,1-.63.36,1,1,0,0,1-.35-.07l-.34-.12L10,6.39,1.41,9.81l-.33.12A.94.94,0,0,1,.74,10a.71.71,0,0,1-.39-.1A.69.69,0,0,1,.1,9.64.7.7,0,0,1,0,9.26.65.65,0,0,1,.12,8.9a.76.76,0,0,1,.33-.25L9,5.26l.53-.19A1.45,1.45,0,0,1,10,5a1.49,1.49,0,0,1,.52.1l.53.19,8.5,3.39a.76.76,0,0,1,.33.25.65.65,0,0,1,.12.36A.7.7,0,0,1,19.9,9.64Z"/></svg>