<svg id="Layer_1" data-name="Layer 1" xmlns="http://www.w3.org/2000/svg" viewBox="0 0 28 28"><defs><style>.cls-1{fill:none;}.cls-2{fill:#fff;}</style></defs><rect class="cls-1" width="28" height="28"/><path class="cls-2" d="M25.84,2.16a7.41,7.41,0,0,0-10.46,0L9.29,8.25l6.92,6.91a8.1,8.1,0,0,1,5.22-1.93,8.24,8.24,0,0,1,3.22.66l1.19-1.29A7.39,7.39,0,0,0,25.84,2.16Z"/><path class="cls-2" d="M15.05,16.33,8.13,9.41l-6,6a7.39,7.39,0,0,0,0,10.44,7.47,7.47,0,0,0,10.51.06l1.21-1.22a8,8,0,0,1-.66-3.21A8.11,8.11,0,0,1,15.05,16.33Z"/><path class="cls-2" d="M14.86,21.52A6.55,6.55,0,0,0,20.61,28V15A6.55,6.55,0,0,0,14.86,21.52Z"/><path class="cls-2" d="M22.25,15V28a6.53,6.53,0,0,0,0-13Z"/><rect class="cls-1" width="28" height="28"/></svg>