<svg id="Layer_1" data-name="Layer 1" xmlns="http://www.w3.org/2000/svg" viewBox="0 0 28 28"><defs><style>.cls-1{fill:none;}.cls-2{fill:#fff;}</style></defs><rect class="cls-1" width="28" height="28"/><path class="cls-2" d="M27.87,11a1,1,0,0,0-.37-.37,1,1,0,0,0-.52-.14,1.3,1.3,0,0,0-.49.1l-.48.17L14,15.53,2,10.75l-.46-.17a1.29,1.29,0,0,0-.48-.1,1,1,0,0,0-.53.14,1,1,0,0,0-.5.89.78.78,0,0,0,.17.5.85.85,0,0,0,.47.35l11.88,4.75c.24.1.49.19.75.28a2.5,2.5,0,0,0,.73.13,2.62,2.62,0,0,0,.73-.13c.27-.09.52-.18.75-.28l11.88-4.75a.89.89,0,0,0,.47-.35.84.84,0,0,0,.17-.5A1,1,0,0,0,27.87,11Z"/></svg>