<svg id="Layer_1" data-name="Layer 1" xmlns="http://www.w3.org/2000/svg" viewBox="0 0 24 24"><defs><style>.cls-1{fill:none;}.cls-2{fill:#16a850;}</style></defs><path id="Shape" class="cls-1" d="M0,0H24V24H0Z"/><path class="cls-2" d="M.33,11.27l8.6-8.62a2,2,0,0,1,.39-.27A1,1,0,0,1,9.7,2.3a.93.93,0,0,1,.68.27.88.88,0,0,1,.28.68,1,1,0,0,1-.07.37.94.94,0,0,1-.19.32L6.88,7.49,2.2,11.81,2,11.24l4-.21H23a.92.92,0,0,1,1,1,1,1,0,0,1-.27.7A.93.93,0,0,1,23,13H5.92L2,12.75l.23-.56,4.68,4.32,3.52,3.54a.94.94,0,0,1,.19.32,1,1,0,0,1,.07.38.9.9,0,0,1-.28.68.93.93,0,0,1-.68.27A1,1,0,0,1,9,21.4L.33,12.72A1,1,0,0,1,0,12,1,1,0,0,1,.33,11.27Z"/></svg>