<svg id="Layer_1" data-name="Layer 1" xmlns="http://www.w3.org/2000/svg" viewBox="0 0 28 28"><defs><style>.cls-1{fill:none;}.cls-2{fill:#21293a;}</style></defs><rect class="cls-1" width="28" height="28"/><path class="cls-2" d="M24.17,11.14A15.13,15.13,0,0,0,22.11,7a15.41,15.41,0,0,0-3-3.14,17.36,17.36,0,0,0-3.54-2.17A19.07,19.07,0,0,0,11.81.41,17,17,0,0,0,8.22,0,3,3,0,0,0,6.56.41a1.31,1.31,0,0,0-.63,1.17,1.46,1.46,0,0,0,.13.61,3,3,0,0,0,.36.57c.54.65,1,1.31,1.49,2A10.21,10.21,0,0,1,9,6.79,5.92,5.92,0,0,1,9.42,9a3.41,3.41,0,0,1-.05.55,5.85,5.85,0,0,0-.7-1.16,3.9,3.9,0,0,0-1.15-1,2.52,2.52,0,0,0-1.19-.33,1.1,1.1,0,0,0-.81.32,1.16,1.16,0,0,0-.31.86c0,.23,0,.5,0,.8a9.66,9.66,0,0,1,0,1,5.63,5.63,0,0,1-.22,1.65,12.62,12.62,0,0,1-.56,1.47c-.22.48-.44,1-.67,1.55a11.83,11.83,0,0,0-.55,1.89,12,12,0,0,0-.23,2.48,9.06,9.06,0,0,0,.73,3.66,8.12,8.12,0,0,0,2.1,2.83,9.65,9.65,0,0,0,3.26,1.81A13.13,13.13,0,0,0,13.4,28a12.86,12.86,0,0,0,4.71-.83,10.45,10.45,0,0,0,3.64-2.36,10.55,10.55,0,0,0,2.35-3.69,13.12,13.12,0,0,0,.82-4.77A17,17,0,0,0,24.17,11.14ZM17.58,21.46A4,4,0,0,1,16.1,23.1a4.5,4.5,0,0,1-2.4.61,4.05,4.05,0,0,1-2.79-.95,3.21,3.21,0,0,1-1.05-2.5,3.74,3.74,0,0,1,.23-1.37,5.58,5.58,0,0,1,.54-1q.3-.46.57-.93a3,3,0,0,0,.34-1.07.24.24,0,0,1,.13-.2c.08,0,.16,0,.25.07a3.44,3.44,0,0,1,.67.84,5.66,5.66,0,0,1,.49,1.05,4.82,4.82,0,0,0,.59-2,10.17,10.17,0,0,0-.06-2.57.23.23,0,0,1,.09-.25.26.26,0,0,1,.26,0,6.8,6.8,0,0,1,2.25,1.61,7.18,7.18,0,0,1,1.39,2.24,7,7,0,0,1,.48,2.53A5.09,5.09,0,0,1,17.58,21.46Z"/></svg>