<svg id="Layer_1" data-name="Layer 1" xmlns="http://www.w3.org/2000/svg" viewBox="0 0 24 24"><defs><style>.cls-1{fill:none;}.cls-2{fill:#16a950;}</style></defs><path id="Shape" class="cls-1" d="M24,0H0V24H24Z"/><path class="cls-2" d="M7.66,23.31.35,14.19a1.74,1.74,0,0,1-.26-.45A1.14,1.14,0,0,1,0,13.31a1.1,1.1,0,0,1,.32-.81,1.12,1.12,0,0,1,.82-.31,1.26,1.26,0,0,1,1,.58l6.66,8.46,13-20.6a1.38,1.38,0,0,1,.44-.48A1.27,1.27,0,0,1,23.7.32a1.09,1.09,0,0,1,.3.81,1.16,1.16,0,0,1-.07.4,2.33,2.33,0,0,1-.24.47L10.08,23.33a1.46,1.46,0,0,1-.5.49,1.41,1.41,0,0,1-.69.16A1.54,1.54,0,0,1,7.66,23.31Z"/></svg>