<svg id="Layer_1" data-name="Layer 1" xmlns="http://www.w3.org/2000/svg" viewBox="0 0 24 24"><defs><style>.cls-1{fill:none;}.cls-2{fill:#fff;}</style></defs><path id="Shape" class="cls-1" d="M0,0H24V24H0Z"/><path class="cls-2" d="M2,22.36a2,2,0,0,1-1.48-.49A2.08,2.08,0,0,1,0,20.39V6.08A2.06,2.06,0,0,1,.48,4.6,2,2,0,0,1,2,4.11H3.34a2,2,0,0,1,1.48.49A2.06,2.06,0,0,1,5.3,6.08V22.36H4.07V6.17a.85.85,0,0,0-.21-.62.83.83,0,0,0-.64-.22H2.09a.84.84,0,0,0-.65.22.85.85,0,0,0-.21.62V20.28a.87.87,0,0,0,.21.64.88.88,0,0,0,.65.21H4.16v1.23ZM4.07,9.3a2,2,0,0,1,.48-1.48A2,2,0,0,1,6,7.32h4.4a2,2,0,0,1,1.47.5,2,2,0,0,1,.49,1.48v.85H11.16V9.4A.9.9,0,0,0,11,8.76a.89.89,0,0,0-.65-.21H6.16a.89.89,0,0,0-.65.21.9.9,0,0,0-.21.64v.75H4.07ZM5.2,21.13h6.05v1.23h-6ZM6.36,10.72a.48.48,0,0,1-.15-.36A.49.49,0,0,1,6.36,10a.53.53,0,0,1,.37-.14h3a.53.53,0,0,1,.37.14.49.49,0,0,1,.15.36.48.48,0,0,1-.15.36.5.5,0,0,1-.37.15h-3A.5.5,0,0,1,6.36,10.72Zm0,9a.5.5,0,0,1-.15-.37A.49.49,0,0,1,6.36,19a.53.53,0,0,1,.37-.14h3a.53.53,0,0,1,.37.14.49.49,0,0,1,.15.36.5.5,0,0,1-.15.37.49.49,0,0,1-.37.14h-3A.49.49,0,0,1,6.36,19.69Zm4.8-16.11a2,2,0,0,1,.48-1.48,2,2,0,0,1,1.48-.5h2.47a2,2,0,0,1,1.48.5,2,2,0,0,1,.48,1.48V20.39a2.08,2.08,0,0,1-.48,1.48,2,2,0,0,1-1.48.49H12.28V21.13h3.19a.89.89,0,0,0,.65-.21.91.91,0,0,0,.2-.64V3.67a.9.9,0,0,0-.2-.63.89.89,0,0,0-.65-.21H13.24a.89.89,0,0,0-.65.21.9.9,0,0,0-.2.63V22.36H11.16Zm5.69,2.83a2,2,0,0,1,.31-1.52,2.05,2.05,0,0,1,1.42-.67L20.26,4a1.83,1.83,0,0,1,1.52.32,2.09,2.09,0,0,1,.65,1.42L24,20a2,2,0,0,1-.31,1.51,2.05,2.05,0,0,1-1.41.67l-1.68.19a1.88,1.88,0,0,1-1.53-.32,2.13,2.13,0,0,1-.64-1.42Zm3,14.59a.8.8,0,0,0,.66.13L22,21a.93.93,0,0,0,.63-.28.87.87,0,0,0,.13-.65L21.22,6A.89.89,0,0,0,21,5.4a.84.84,0,0,0-.67-.14l-1.44.17a1,1,0,0,0-.62.28.81.81,0,0,0-.13.64l1.52,14A.9.9,0,0,0,19.89,21Z"/></svg>