<svg id="Layer_1" data-name="Layer 1" xmlns="http://www.w3.org/2000/svg" viewBox="0 0 50 50"><defs><style>.cls-1{fill:none;}.cls-2{fill:#16aa50;}</style></defs><rect class="cls-1" width="50" height="50"/><path class="cls-2" d="M25,0A25,25,0,1,0,50,25,25,25,0,0,0,25,0Zm0,47.25A22.25,22.25,0,1,1,47.25,25,22.25,22.25,0,0,1,25,47.25Z"/><path class="cls-2" d="M21.51,36.79a2.12,2.12,0,0,1-.63-.56l-7-8.32a1.72,1.72,0,0,1-.41-1.05,1.28,1.28,0,0,1,1.28-1.29,1.49,1.49,0,0,1,.63.14,1.54,1.54,0,0,1,.56.51l6.24,7.52L34,15.11a1.44,1.44,0,0,1,1.17-.72,1.39,1.39,0,0,1,.91.35,1.13,1.13,0,0,1,.41.88,1.27,1.27,0,0,1-.12.52,3.75,3.75,0,0,1-.25.49L23.59,36.23a1.63,1.63,0,0,1-1.33.74A1.54,1.54,0,0,1,21.51,36.79Z"/></svg>