<svg id="Layer_1" data-name="Layer 1" xmlns="http://www.w3.org/2000/svg" viewBox="0 0 28 28"><defs><style>.cls-1{fill:none;}.cls-2{fill:#21293a;}</style></defs><rect class="cls-1" width="28" height="28"/><path class="cls-2" d="M24.84,21.36a4.54,4.54,0,0,0-1.6-1.6,3.91,3.91,0,0,0-.84-.37V19a5.16,5.16,0,0,0-1.23-3.52,6.85,6.85,0,0,0-3.61-2l-6.33-1.65C9.31,11.35,8.35,10.38,8.35,9V8.61a4.6,4.6,0,0,0,.85-.38,4.46,4.46,0,0,0,1.6-1.6,4.26,4.26,0,0,0,.6-2.23,4.19,4.19,0,0,0-.6-2.21A4.46,4.46,0,0,0,9.2.59,4.34,4.34,0,0,0,7,0,4.28,4.28,0,0,0,4.76.59a4.54,4.54,0,0,0-1.6,1.6A4.18,4.18,0,0,0,2.57,4.4a4.25,4.25,0,0,0,.59,2.23,4.54,4.54,0,0,0,1.6,1.6,3.57,3.57,0,0,0,.85.38V9a5.15,5.15,0,0,0,1.23,3.51,6.81,6.81,0,0,0,3.61,2l6.31,1.66c1.93.5,2.89,1.47,2.89,2.9v.35a4,4,0,0,0-.85.37,4.62,4.62,0,0,0-1.6,1.6,4.32,4.32,0,0,0-.6,2.24,4.24,4.24,0,0,0,.6,2.21,4.62,4.62,0,0,0,1.6,1.6A4.34,4.34,0,0,0,21,28a4.28,4.28,0,0,0,2.22-.59,4.54,4.54,0,0,0,1.6-1.6,4.23,4.23,0,0,0,.59-2.21A4.31,4.31,0,0,0,24.84,21.36ZM5.13,4.4a1.81,1.81,0,0,1,.24-.93A2,2,0,0,1,6,2.8a2,2,0,0,1,1.88,0,2,2,0,0,1,.67.67,1.82,1.82,0,0,1,.25.93,1.9,1.9,0,0,1-.25.95A1.84,1.84,0,0,1,7,6.26,1.76,1.76,0,0,1,6,6a1.87,1.87,0,0,1-.67-.67A1.85,1.85,0,0,1,5.13,4.4ZM22.62,24.52a1.78,1.78,0,0,1-1.6.91,1.92,1.92,0,0,1-.95-.24,1.83,1.83,0,0,1-.91-1.59,1.9,1.9,0,0,1,.25-1,1.87,1.87,0,0,1,.67-.67,1.84,1.84,0,0,1,2.54.67,1.9,1.9,0,0,1,.25,1A1.79,1.79,0,0,1,22.62,24.52Z"/></svg>