<svg id="Layer_1" data-name="Layer 1" xmlns="http://www.w3.org/2000/svg" viewBox="0 0 28 28"><defs><style>.cls-1{fill:none;}.cls-2{fill:#16a950;}</style></defs><rect id="bound-2" class="cls-1" width="28" height="28"/><path class="cls-2" d="M0,14A14.07,14.07,0,0,1,14,0,14.09,14.09,0,0,1,28,14,14.08,14.08,0,0,1,14,28,14.08,14.08,0,0,1,0,14Zm26.46,0A12.46,12.46,0,1,0,14,26.46,12.46,12.46,0,0,0,26.46,14Zm-13.25,5.5V14.8H8.4a.76.76,0,0,1-.85-.75.77.77,0,0,1,.85-.79h4.81V8.43A.75.75,0,0,1,14,7.59a.77.77,0,0,1,.8.84v4.83h4.82a.77.77,0,0,1,.85.79.76.76,0,0,1-.85.75H14.76v4.71a.77.77,0,0,1-.8.84A.76.76,0,0,1,13.21,19.51Z"/></svg>