<svg id="Layer_1" data-name="Layer 1" xmlns="http://www.w3.org/2000/svg" viewBox="0 0 50 50"><defs><style>.cls-1{fill:none;}.cls-2{fill:#a8d126;}.cls-3{fill:#fff;}</style></defs><rect class="cls-1" width="50" height="50"/><g id="Add_New_Image" data-name="Add New Image"><path id="Bg-4" class="cls-2" d="M25,0h0A25,25,0,0,1,50,25h0A25,25,0,0,1,25,50h0A25,25,0,0,1,0,25H0A25,25,0,0,1,25,0Z"/><rect id="Rectangle" class="cls-1" x="13.33" y="13.33" width="23.33" height="23.33"/><path id="Combined_Shape" data-name="Combined Shape" class="cls-3" d="M35.21,26.46a1.46,1.46,0,0,0,0-2.92H14.79a1.46,1.46,0,1,0,0,2.92Z"/><path id="Combined_Shape-2" data-name="Combined Shape" class="cls-3" d="M26.46,14.79a1.46,1.46,0,0,0-2.92,0V35.21a1.46,1.46,0,0,0,2.92,0Z"/></g></svg>