<svg id="Layer_1" data-name="Layer 1" xmlns="http://www.w3.org/2000/svg" viewBox="0 0 80 80"><defs><style>.cls-1{fill:none;}.cls-2{fill:#21293a;}</style></defs><rect class="cls-1" width="80" height="80"/><path class="cls-2" d="M54.24,37.89a16.35,16.35,0,1,1-11.56,4.79,16.26,16.26,0,0,1,11.56-4.79m0-1A17.34,17.34,0,1,0,66.5,42,17.25,17.25,0,0,0,54.24,36.9Z"/><path class="cls-2" d="M21.79,7.15h0c1.65,0,3.27,1,5.53,2.31l1,.59c5,3,26.23,20.52,33.26,26.43a5.14,5.14,0,0,0,1.08.7,18.84,18.84,0,0,1,5,3.61,19,19,0,0,1-26.9,26.9,18.84,18.84,0,0,1-3.61-5,5.58,5.58,0,0,0-.7-1.08c-5.91-7-23.46-28.22-26.43-33.26l-.59-1C6.34,22.09,5.4,20.51,13,13c4.12-4.13,6.68-5.81,8.83-5.81m0-1c-2.38,0-5,1.61-9.53,6.1C3.68,20.84,5.62,22.73,9.2,28.81c3.33,5.66,23.61,29.94,26.53,33.4a4.7,4.7,0,0,1,.56.88,20,20,0,1,0,26.8-26.8,4.24,4.24,0,0,1-.88-.56c-3.46-2.92-27.74-23.2-33.4-26.53-2.9-1.71-4.85-3-7-3Z"/><path class="cls-2" d="M3.74,19.13a2.07,2.07,0,0,1-1.21-.38,3.14,3.14,0,0,1-1.12-1.91l1-.16A2.11,2.11,0,0,0,3.1,18a1.26,1.26,0,0,0,1,.15c.6-.12.6-.12.81-.47.42-.75,1.43-2.49,5.84-6.89s6.14-5.42,6.89-5.85c.35-.2.35-.2.47-.8a1.26,1.26,0,0,0-.15-1,2.21,2.21,0,0,0-1.27-.72l.16-1a3.18,3.18,0,0,1,1.92,1.12,2.18,2.18,0,0,1,.31,1.75c-.18.91-.25,1.07-.95,1.47s-2.37,1.37-6.69,5.68-5.27,6-5.68,6.69-.56.77-1.47.95A2.62,2.62,0,0,1,3.74,19.13Z"/><path class="cls-2" d="M54,78.1a24,24,0,0,1-17-7A238.5,238.5,0,0,1,18.92,50.63a3.94,3.94,0,0,1-.74-1.49l0-.1a3.11,3.11,0,0,0-1.25-1.78l-.79-.55a4.17,4.17,0,0,1-1.53-2l-.37-1A3.1,3.1,0,0,0,12.88,42L12,41.51a4.12,4.12,0,0,1-1.78-2.26L9.9,38.18a3.11,3.11,0,0,0-1.37-1.73l-.61-.37a4.16,4.16,0,0,1-1.87-2.51l-.13-.51a3.15,3.15,0,0,0-1.59-2,4.22,4.22,0,0,1-1.66-1.56C0,25.09-.7,20.71.72,17.15l0-.1a1.15,1.15,0,0,1,.85-.79A40.79,40.79,0,0,1,8.07,8.07a40.17,40.17,0,0,1,8.19-6.46,1.15,1.15,0,0,1,.79-.86l.1,0c3.56-1.42,7.94-.72,12.34,2a4.22,4.22,0,0,1,1.56,1.66,3.15,3.15,0,0,0,2,1.59l.51.13a4.16,4.16,0,0,1,2.51,1.87l.37.61A3.11,3.11,0,0,0,38.18,9.9l1.07.35A4.16,4.16,0,0,1,41.51,12l.52.85a3.1,3.1,0,0,0,1.63,1.33l1,.37a4.13,4.13,0,0,1,2,1.53l.55.79A3.11,3.11,0,0,0,49,18.15l.1,0a3.94,3.94,0,0,1,1.49.74A238.76,238.76,0,0,1,71.06,37,24.08,24.08,0,0,1,54,78.1ZM1.77,17.24a.33.33,0,0,0-.09.16l-.05.12C.34,20.78,1,24.85,3.52,29a3.15,3.15,0,0,0,1.26,1.2,4.17,4.17,0,0,1,2.1,2.65l.13.5a3.13,3.13,0,0,0,1.43,1.91l.6.37a4.1,4.1,0,0,1,1.8,2.27l.35,1.07a3.18,3.18,0,0,0,1.35,1.73l.86.52a4.18,4.18,0,0,1,1.74,2.14l.37,1a3.11,3.11,0,0,0,1.17,1.53l.79.55a4.16,4.16,0,0,1,1.63,2.33l0,.11A3.14,3.14,0,0,0,19.7,50a237.43,237.43,0,0,0,18,20.33A23.1,23.1,0,0,0,70.36,37.69,237.69,237.69,0,0,0,50,19.7a3.06,3.06,0,0,0-1.14-.57l-.11,0a4.16,4.16,0,0,1-2.33-1.63l-.55-.79a3.11,3.11,0,0,0-1.53-1.17l-1-.37a4.18,4.18,0,0,1-2.14-1.74l-.52-.86a3.18,3.18,0,0,0-1.73-1.35l-1.07-.35A4.1,4.1,0,0,1,35.6,9l-.37-.6A3.13,3.13,0,0,0,33.32,7l-.5-.13a4.15,4.15,0,0,1-2.65-2.1A3.22,3.22,0,0,0,29,3.52C24.85,1,20.78.34,17.52,1.63l-.13.05c-.13.05-.15.09-.15.1l.13.4L17,2.34A37.25,37.25,0,0,0,8.77,8.77,37.64,37.64,0,0,0,2.34,17l-.2.37Z"/><path class="cls-2" d="M58.74,80a17.2,17.2,0,0,1-8.6-2.24l-2.31-1.33,2.63.41A23.08,23.08,0,0,0,76.84,50.46l-.41-2.63,1.33,2.31C81.9,57.36,80.19,67,73.6,73.6A21.27,21.27,0,0,1,58.74,80Zm-5.51-1.91c6.43,2.26,14.16.32,19.67-5.19s7.45-13.24,5.19-19.67A24.07,24.07,0,0,1,53.23,78.09Z"/></svg>