<svg id="Layer_1" data-name="Layer 1" xmlns="http://www.w3.org/2000/svg" viewBox="0 0 24 24"><defs><style>.cls-1{fill:none;}.cls-2{fill:#a7d026;}.cls-3{fill:#fff;}</style></defs><rect class="cls-1" width="24" height="24"/><g id="Add_New_Image" data-name="Add New Image"><path id="Bg-4" class="cls-2" d="M12,0h0A12,12,0,0,1,24,12h0A12,12,0,0,1,12,24h0A12,12,0,0,1,0,12H0A12,12,0,0,1,12,0Z"/><rect id="Rectangle" class="cls-1" x="6.4" y="6.4" width="11.2" height="11.2"/><path id="Combined_Shape" data-name="Combined Shape" class="cls-3" d="M16.9,12.7a.7.7,0,1,0,0-1.4H7.1a.7.7,0,0,0,0,1.4Z"/><path id="Combined_Shape-2" data-name="Combined Shape" class="cls-3" d="M12.7,7.1a.7.7,0,0,0-1.4,0v9.8a.7.7,0,0,0,1.4,0Z"/></g></svg>