<svg id="Layer_1" data-name="Layer 1" xmlns="http://www.w3.org/2000/svg" viewBox="0 0 30 30"><defs><style>.cls-1{fill:none;}.cls-2{fill:#fff;}.cls-3{fill:#16a950;}</style></defs><rect class="cls-1" width="30" height="30"/><g id="Add_New_Image" data-name="Add New Image"><path id="Bg-4" class="cls-2" d="M15,0h0A15,15,0,0,1,30,15h0A15,15,0,0,1,15,30h0A15,15,0,0,1,0,15H0A15,15,0,0,1,15,0Z"/><rect id="Rectangle" class="cls-1" x="8" y="8" width="14" height="14"/><path id="Combined_Shape" data-name="Combined Shape" class="cls-3" d="M21.12,15.88a.88.88,0,0,0,0-1.76H8.88a.88.88,0,0,0,0,1.76Z"/><path id="Combined_Shape-2" data-name="Combined Shape" class="cls-3" d="M15.88,8.88a.88.88,0,0,0-1.76,0V21.12a.88.88,0,1,0,1.76,0Z"/></g></svg>