<svg id="Layer_1" data-name="Layer 1" xmlns="http://www.w3.org/2000/svg" viewBox="0 0 24 24"><defs><style>.cls-1{fill:none;}.cls-2{fill:#a8d126;}</style></defs><rect class="cls-1" width="24" height="24"/><path class="cls-2" d="M4.36,21.79l2.31-6.93L.73,10.58c-.6-.43-.84-.88-.68-1.35s.59-.71,1.35-.7l7.3,0,2.23-7C11.15.89,11.5.54,12,.54s.84.35,1.08,1.07l2.22,7,7.3,0c.75,0,1.2.23,1.35.7s-.07.92-.68,1.35l-5.94,4.28,2.31,6.93c.25.71.15,1.2-.24,1.5s-.9.2-1.51-.24L12,18.73,6.1,23.05c-.6.44-1.1.54-1.5.24S4.12,22.5,4.36,21.79Z"/></svg>