<svg id="Layer_1" data-name="Layer 1" xmlns="http://www.w3.org/2000/svg" viewBox="0 0 20 20"><defs><style>.cls-1{fill:none;}.cls-2{fill:#21293a;opacity:0.5;}</style></defs><rect class="cls-1" width="20" height="20"/><path class="cls-2" d="M19.9,7.85a.63.63,0,0,0-.25-.26.7.7,0,0,0-.38-.1,1.17,1.17,0,0,0-.35.06l-.34.13L10,11.1,1.41,7.68l-.33-.13a1.16,1.16,0,0,0-.34-.06.71.71,0,0,0-.39.1.63.63,0,0,0-.25.26.66.66,0,0,0-.1.37.6.6,0,0,0,.12.36.7.7,0,0,0,.33.25L9,12.22c.17.07.34.14.53.2a1.67,1.67,0,0,0,.52.09,1.72,1.72,0,0,0,.52-.09,5.36,5.36,0,0,0,.53-.2l8.5-3.39a.7.7,0,0,0,.33-.25A.6.6,0,0,0,20,8.22.66.66,0,0,0,19.9,7.85Z"/></svg>