<svg id="Layer_1" data-name="Layer 1" xmlns="http://www.w3.org/2000/svg" viewBox="0 0 24 24"><defs><style>.cls-1{opacity:0.6;}.cls-2{fill:#3c3c43;}.cls-3{fill:none;}</style></defs><g class="cls-1"><path class="cls-2" d="M3.25,11.17a.77.77,0,0,1,.58.25.81.81,0,0,1,0,1.17.8.8,0,0,1-.58.24H.86a.81.81,0,0,1-.59-.24.83.83,0,0,1,0-1.17.78.78,0,0,1,.59-.25Z"/><path class="cls-2" d="M5.22,17.62a.82.82,0,0,1,1.41.58.82.82,0,0,1-.25.58l-1.7,1.7a.75.75,0,0,1-.59.23.82.82,0,0,1-.59-.24.84.84,0,0,1-.23-.59.78.78,0,0,1,.24-.58Z"/><path class="cls-2" d="M3.52,4.69a.85.85,0,0,1,0-1.17.84.84,0,0,1,.59-.23.8.8,0,0,1,.58.23L6.4,5.24a.8.8,0,0,1,.23.58.84.84,0,0,1-.25.59.85.85,0,0,1-1.16,0Z"/><path class="cls-2" d="M14.13,6.88a5.74,5.74,0,0,1,3,3,5.54,5.54,0,0,1,0,4.28,5.74,5.74,0,0,1-3,3,5.54,5.54,0,0,1-4.28,0,5.74,5.74,0,0,1-3-3,5.54,5.54,0,0,1,0-4.28,5.74,5.74,0,0,1,3-3,5.54,5.54,0,0,1,4.28,0Z"/><path class="cls-2" d="M12.83,3.23a.84.84,0,0,1-.83.83.82.82,0,0,1-.59-.24.84.84,0,0,1-.24-.59V.84a.82.82,0,0,1,.24-.59.81.81,0,0,1,1.17,0,.79.79,0,0,1,.25.59Z"/><path class="cls-2" d="M12.83,23.16a.78.78,0,0,1-.25.59.81.81,0,0,1-1.17,0,.81.81,0,0,1-.24-.59V20.77a.8.8,0,0,1,.24-.58.81.81,0,0,1,1.17,0,.77.77,0,0,1,.25.58Z"/><path class="cls-2" d="M19.31,3.52a.82.82,0,0,1,.58-.23.83.83,0,0,1,.59,1.41L18.77,6.41a.75.75,0,0,1-.59.23.79.79,0,0,1-.82-.82.82.82,0,0,1,.23-.58Z"/><path class="cls-2" d="M20.48,19.31a.82.82,0,0,1,.23.58.84.84,0,0,1-.23.59.81.81,0,0,1-.59.24.74.74,0,0,1-.58-.23l-1.72-1.71a.82.82,0,0,1-.23-.58.84.84,0,0,1,.23-.59.81.81,0,0,1,.59-.24.78.78,0,0,1,.58.24Z"/><path class="cls-2" d="M20.75,12.83a.84.84,0,0,1-.83-.83.79.79,0,0,1,.25-.58.77.77,0,0,1,.58-.25h2.39a.77.77,0,0,1,.58.25.81.81,0,0,1,0,1.17.8.8,0,0,1-.58.24Z"/><rect class="cls-3" width="24" height="24"/></g></svg>