<svg id="Layer_1" data-name="Layer 1" xmlns="http://www.w3.org/2000/svg" viewBox="0 0 28 28"><defs><style>.cls-1{fill:none;}.cls-2{fill:#21293a;}</style></defs><rect class="cls-1" width="28" height="28"/><path class="cls-2" d="M27.29,14.12a1.19,1.19,0,0,0-.88-.36H21.89L20.41,7.19A1,1,0,0,0,20,6.51a1.18,1.18,0,0,0-.73-.21,1.39,1.39,0,0,0-.74.24,1,1,0,0,0-.44.69L15,20.82,11.76.93a1,1,0,0,0-.39-.69A1.13,1.13,0,0,0,10.66,0a1.26,1.26,0,0,0-.73.22,1.07,1.07,0,0,0-.43.7L6.72,13.76H1.59a1.19,1.19,0,0,0-.87.37A1.19,1.19,0,0,0,.36,15a1.12,1.12,0,0,0,.36.84,1.18,1.18,0,0,0,.87.35H7.52a1.22,1.22,0,0,0,1.35-1l1.7-7.82,3.27,19.68a1,1,0,0,0,.41.71A1.36,1.36,0,0,0,15,28a1.39,1.39,0,0,0,.77-.23,1.06,1.06,0,0,0,.44-.7L19.33,12.4l.53,2.68a1.25,1.25,0,0,0,1.36,1.12h5.19a1.15,1.15,0,0,0,.87-.35,1.12,1.12,0,0,0,.36-.84A1.21,1.21,0,0,0,27.29,14.12Z"/></svg>