<svg id="Layer_1" data-name="Layer 1" xmlns="http://www.w3.org/2000/svg" viewBox="0 0 24 24"><defs><style>.cls-1{fill:none;}.cls-2{fill:#fff;}</style></defs><path id="Shape" class="cls-1" d="M0,0H24V24H0Z"/><path class="cls-2" d="M21,0H3A3,3,0,0,0,0,3V21a3,3,0,0,0,3,3H21a3,3,0,0,0,3-2.53V3.52C24,1.36,22.64,0,21,0Zm1.62,21A1.61,1.61,0,0,1,21,22.59H3A1.61,1.61,0,0,1,1.41,21V6.09H22.59Zm0-16.28H1.41V3A1.61,1.61,0,0,1,3,1.41H21A1.61,1.61,0,0,1,22.59,3Z"/><circle class="cls-2" cx="4.97" cy="9.66" r="0.7"/><circle class="cls-2" cx="9.66" cy="9.66" r="0.7"/><circle class="cls-2" cx="14.34" cy="9.66" r="0.7"/><circle class="cls-2" cx="19.03" cy="9.66" r="0.7"/><circle class="cls-2" cx="4.97" cy="14.34" r="0.7"/><circle class="cls-2" cx="9.66" cy="14.34" r="0.7"/><circle class="cls-2" cx="14.34" cy="14.34" r="0.7"/><circle class="cls-2" cx="19.03" cy="14.34" r="0.7"/><circle class="cls-2" cx="4.97" cy="19.03" r="0.7"/><circle class="cls-2" cx="9.66" cy="19.03" r="0.7"/><circle class="cls-2" cx="14.34" cy="19.03" r="0.7"/><circle class="cls-2" cx="19.03" cy="19.03" r="0.7"/></svg>