<svg id="Layer_1" data-name="Layer 1" xmlns="http://www.w3.org/2000/svg" viewBox="0 0 28 28"><defs><style>.cls-1{fill:none;}.cls-2{fill:#fff;}</style></defs><rect class="cls-1" width="28" height="28"/><path class="cls-2" d="M27.08,6.66a3.65,3.65,0,0,0-2.69-.91H21.18a3.59,3.59,0,0,1-.72-.06A1.68,1.68,0,0,1,20,5.47a2.87,2.87,0,0,1-.5-.46l-.93-1a3,3,0,0,0-.62-.52,2.11,2.11,0,0,0-.72-.3,3.94,3.94,0,0,0-1-.1H11.69a4,4,0,0,0-1,.1,2.11,2.11,0,0,0-.72.3A2.91,2.91,0,0,0,9.38,4L8.45,5a2.76,2.76,0,0,1-.5.45,1.48,1.48,0,0,1-.51.23,3.69,3.69,0,0,1-.73.06H3.62a3.66,3.66,0,0,0-2.7.91A3.59,3.59,0,0,0,0,9.33v12A3.59,3.59,0,0,0,.92,24a3.66,3.66,0,0,0,2.7.91H24.39A3.65,3.65,0,0,0,27.08,24,3.59,3.59,0,0,0,28,21.34v-12A3.59,3.59,0,0,0,27.08,6.66Zm-1,14.52a1.79,1.79,0,0,1-.46,1.34,1.83,1.83,0,0,1-1.31.45H3.73a1.8,1.8,0,0,1-1.31-.45A1.79,1.79,0,0,1,2,21.18V9.5a1.8,1.8,0,0,1,.46-1.35A1.8,1.8,0,0,1,3.73,7.7H7.24a5.52,5.52,0,0,0,.88-.06,2.07,2.07,0,0,0,.67-.25,2.91,2.91,0,0,0,.59-.5l.89-1a4.53,4.53,0,0,1,.59-.54,1.83,1.83,0,0,1,.57-.26,3.6,3.6,0,0,1,.8-.07h3.43a3.54,3.54,0,0,1,.8.07,1.48,1.48,0,0,1,.57.26,3.09,3.09,0,0,1,.58.54l.91,1a2.87,2.87,0,0,0,.58.5,1.85,1.85,0,0,0,.67.24,4.48,4.48,0,0,0,.88.07h3.63a1.83,1.83,0,0,1,1.31.45,1.8,1.8,0,0,1,.46,1.35Z"/><path class="cls-2" d="M18.4,10.69a6.39,6.39,0,0,0-2-1.33,6.47,6.47,0,0,0-4.84,0,6.34,6.34,0,0,0-2,1.33,6.24,6.24,0,0,0,2,10.16,6.34,6.34,0,0,0,4.84,0,6.22,6.22,0,0,0,2-1.33,6.15,6.15,0,0,0,1.33-2,6,6,0,0,0,.49-2.42,6,6,0,0,0-.49-2.43A6.15,6.15,0,0,0,18.4,10.69Zm-.33,6.14a4.47,4.47,0,0,1-.94,1.41,4.67,4.67,0,0,1-1.41,1,4.33,4.33,0,0,1-1.72.34,4.28,4.28,0,0,1-1.71-.34,4.44,4.44,0,0,1-1.41-1,4.67,4.67,0,0,1-1-1.41,4.29,4.29,0,0,1-.34-1.72,4.34,4.34,0,0,1,.34-1.73,4.67,4.67,0,0,1,1-1.41A4.42,4.42,0,0,1,14,10.69a4.33,4.33,0,0,1,1.72.34,4.32,4.32,0,0,1,2.35,2.35,4.34,4.34,0,0,1,.34,1.73A4.29,4.29,0,0,1,18.07,16.83Z"/><path class="cls-2" d="M22.12,9.55A1.47,1.47,0,0,0,20.66,11a1.35,1.35,0,0,0,.43,1,1.43,1.43,0,0,0,1,.42,1.4,1.4,0,0,0,1-.42,1.37,1.37,0,0,0,.44-1,1.4,1.4,0,0,0-.44-1A1.37,1.37,0,0,0,22.12,9.55Z"/></svg>