<svg id="Layer_1" data-name="Layer 1" xmlns="http://www.w3.org/2000/svg" viewBox="0 0 28 28"><defs><style>.cls-1{fill:none;}.cls-2{fill:#fff;}</style></defs><rect class="cls-1" width="28" height="28"/><path class="cls-2" d="M12.24,1.64h6.21v2h1.64V.82A.82.82,0,0,0,19.27,0h-7a.82.82,0,0,0,0,1.64Z"/><path class="cls-2" d="M2.58,26.13a4.42,4.42,0,0,1-.74-.07A2.57,2.57,0,0,0,4.33,28H17.51A2.58,2.58,0,0,0,20,26.06a4.53,4.53,0,0,1-.74.07Z"/><path class="cls-2" d="M19.27,17.69a3.64,3.64,0,0,1,.74.07,2.56,2.56,0,0,0-2.5-1.94H4.33a2.56,2.56,0,0,0-2.49,1.94,3.57,3.57,0,0,1,.74-.07Z"/><path class="cls-2" d="M19.27,24.49a2.58,2.58,0,1,0,0-5.16H2.58a2.58,2.58,0,0,0,0,5.16Z"/><path class="cls-2" d="M12.09,14.18h5.42a4.22,4.22,0,0,1,4.22,4.21v.09a4.21,4.21,0,0,1,0,6.85v.09A4.21,4.21,0,0,1,20.85,28h3.69a.82.82,0,0,0,.82-.75l1.56-18.7H11.62Z"/><path class="cls-2" d="M27.18,5.27H11.36a.82.82,0,0,0,0,1.64H27.18a.82.82,0,0,0,0-1.64Z"/><rect class="cls-1" width="28" height="28"/></svg>