<svg id="Layer_1" data-name="Layer 1" xmlns="http://www.w3.org/2000/svg" viewBox="0 0 28 28"><defs><style>.cls-1{fill:none;}.cls-2{fill:#21293a;}</style></defs><rect class="cls-1" width="28" height="28"/><path class="cls-2" d="M6.49,19.87H.82a.82.82,0,0,0-.82.82v6.49A.82.82,0,0,0,.82,28H6.49a.82.82,0,0,0,.82-.82V20.69A.82.82,0,0,0,6.49,19.87Z"/><path class="cls-2" d="M15.93,15.77H10.26a.82.82,0,0,0-.82.82V27.18a.82.82,0,0,0,.82.82h5.67a.82.82,0,0,0,.82-.82V16.59a.82.82,0,0,0-.82-.82Z"/><path class="cls-2" d="M23.41,8.66v-3L27.5,3.93a.82.82,0,0,0-.05-1.53h0l-4-1.4V.82a.82.82,0,0,0-1.64,0V8.66a.82.82,0,0,0,.82.82h0A.82.82,0,0,0,23.41,8.66Z"/><path class="cls-2" d="M19.76,11.12a.82.82,0,0,0-.82.82V27.18a.82.82,0,0,0,.82.82h5.66a.82.82,0,0,0,.82-.82V11.94a.82.82,0,0,0-.82-.82H19.76Z"/></svg>