<svg id="Layer_1" data-name="Layer 1" xmlns="http://www.w3.org/2000/svg" viewBox="0 0 24 24"><defs><style>.cls-1{fill:none;}.cls-2{fill:#a7d026;}</style></defs><rect class="cls-1" width="24" height="24"/><path class="cls-2" d="M24,3.93A4,4,0,0,0,23,1a4.06,4.06,0,0,0-3-1H4A4.07,4.07,0,0,0,1,1,3.92,3.92,0,0,0,0,3.93V20.07A3.92,3.92,0,0,0,1,23a4.07,4.07,0,0,0,3,1H20a4.06,4.06,0,0,0,3-1,4,4,0,0,0,1-2.94ZM18.09,7.15a3,3,0,0,1-.19.36l-6.4,10a1.15,1.15,0,0,1-.41.41,1,1,0,0,1-.53.13A1.14,1.14,0,0,1,10,18a1.39,1.39,0,0,1-.47-.42L6.1,13.33A1.22,1.22,0,0,1,5.9,13a1,1,0,0,1-.07-.38A.88.88,0,0,1,6.09,12a.86.86,0,0,1,.65-.27.91.91,0,0,1,.43.1,1,1,0,0,1,.4.37l2.94,3.67,5.92-9.39a1,1,0,0,1,.36-.38.77.77,0,0,1,.43-.13,1,1,0,0,1,.66.23.76.76,0,0,1,.29.63A1,1,0,0,1,18.09,7.15Z"/></svg>