<svg id="Layer_1" data-name="Layer 1" xmlns="http://www.w3.org/2000/svg" viewBox="0 0 24 24"><defs><style>.cls-1{opacity:0.6;}.cls-2{fill:#3c3c43;}.cls-3{fill:none;}</style></defs><g class="cls-1"><path class="cls-2" d="M21,16.1a14.39,14.39,0,0,0,1.79-.43l.25-.07.2,0a.7.7,0,0,1,.67.71,1.25,1.25,0,0,1,0,.24,1.73,1.73,0,0,1-.08.35,9.44,9.44,0,0,1-1.68,2.78,11.89,11.89,0,0,1-2.6,2.27,12.83,12.83,0,0,1-3.29,1.52,12.57,12.57,0,0,1-3.73.55,13.44,13.44,0,0,1-4-.58A12.17,12.17,0,0,1,5.1,21.74a11.61,11.61,0,0,1-2.68-2.6A11.84,11.84,0,0,1,.68,15.77a12.49,12.49,0,0,1-.61-4A12.85,12.85,0,0,1,.6,8.1,13.08,13.08,0,0,1,2.12,4.74,12.77,12.77,0,0,1,4.48,2a10.84,10.84,0,0,1,3-1.87L7.86,0l.26,0a.61.61,0,0,1,.5.21.72.72,0,0,1,.17.45s0,.12,0,.21a1.11,1.11,0,0,1-.1.29,9.17,9.17,0,0,0-.55,2,13.74,13.74,0,0,0-.21,2.34A12.33,12.33,0,0,0,8.68,10a9.74,9.74,0,0,0,2.2,3.4,9.59,9.59,0,0,0,3.43,2.18,12.55,12.55,0,0,0,4.45.75A12,12,0,0,0,21,16.1Z"/><rect class="cls-3" width="24" height="24"/></g></svg>