<svg id="Layer_1" data-name="Layer 1" xmlns="http://www.w3.org/2000/svg" viewBox="0 0 24 24"><defs><style>.cls-1{fill:none;}.cls-2{fill:#a8d126;}</style></defs><rect class="cls-1" width="24" height="24"/><path class="cls-2" d="M0,12A12.05,12.05,0,0,1,12,0,12.07,12.07,0,0,1,24,12,12.06,12.06,0,0,1,12,24,12.06,12.06,0,0,1,0,12Zm22.68,0A10.68,10.68,0,1,0,12,22.68,10.68,10.68,0,0,0,22.68,12ZM11.32,16.73v-4H7.2A.66.66,0,0,1,6.47,12a.66.66,0,0,1,.73-.67h4.12V7.23A.65.65,0,0,1,12,6.51a.65.65,0,0,1,.68.72v4.14h4.13a.66.66,0,0,1,.73.67.66.66,0,0,1-.73.65H12.65v4a.67.67,0,1,1-1.33,0Z"/></svg>