<svg id="Layer_1" data-name="Layer 1" xmlns="http://www.w3.org/2000/svg" viewBox="0 0 77 20"><defs><style>.cls-1{fill:none;}.cls-2{fill:#fff;}</style></defs><rect class="cls-1" width="77" height="20"/><path class="cls-2" d="M11.1,1.5A1.5,1.5,0,1,1,9.6,0,1.5,1.5,0,0,1,11.1,1.5ZM9.6,4.19a1.56,1.56,0,1,0,1.56,1.56A1.56,1.56,0,0,0,9.6,4.19Zm0,4.19A1.62,1.62,0,1,0,11.22,10,1.61,1.61,0,0,0,9.6,8.38Zm0,4.31a1.56,1.56,0,1,0,1.56,1.56A1.56,1.56,0,0,0,9.6,12.69ZM9.6,17a1.5,1.5,0,1,0,1.5,1.5A1.5,1.5,0,0,0,9.6,17ZM13.73,4a1.76,1.76,0,1,0,1.76,1.76A1.76,1.76,0,0,0,13.73,4Zm0,4.19A1.82,1.82,0,1,0,15.56,10,1.82,1.82,0,0,0,13.73,8.18Zm0,4.31a1.76,1.76,0,1,0,1.76,1.76A1.76,1.76,0,0,0,13.73,12.49ZM18,8a2,2,0,1,0,2,2A2,2,0,0,0,18,8ZM5.41,4.39A1.36,1.36,0,1,0,6.77,5.75,1.36,1.36,0,0,0,5.41,4.39Zm0,4.19A1.42,1.42,0,1,0,6.83,10,1.43,1.43,0,0,0,5.41,8.58Zm0,4.31a1.36,1.36,0,1,0,1.36,1.36A1.36,1.36,0,0,0,5.41,12.89ZM1.22,8.78A1.22,1.22,0,1,0,2.44,10,1.22,1.22,0,0,0,1.22,8.78Z"/><rect class="cls-2" x="35.1" y="7.37" width="1.8" height="11.13" rx="0.26"/><path class="cls-2" d="M36,2.91a1.22,1.22,0,1,0,1.22,1.22A1.22,1.22,0,0,0,36,2.91Z"/><rect class="cls-2" x="62.33" y="7.37" width="1.8" height="11.13" rx="0.26"/><path class="cls-2" d="M63.23,2.91a1.22,1.22,0,1,0,0,2.44,1.22,1.22,0,0,0,0-2.44Z"/><path class="cls-2" d="M45.88,7.37H43.16V3.28A.26.26,0,0,0,42.9,3H41.62a.26.26,0,0,0-.26.26V7.37H40a.26.26,0,0,0-.26.26V8.91a.26.26,0,0,0,.26.26h1.37v6.19A3,3,0,0,0,44.5,18.5h1.38a.27.27,0,0,0,.27-.27V17a.27.27,0,0,0-.27-.27H44.66a1.45,1.45,0,0,1-1.5-1.53v-6h2.72a.27.27,0,0,0,.27-.26V7.63A.27.27,0,0,0,45.88,7.37Z"/><path class="cls-2" d="M72.84,7.37H70.12V3.28A.26.26,0,0,0,69.86,3H68.58a.26.26,0,0,0-.26.26V7.37H67a.26.26,0,0,0-.26.26V8.91a.26.26,0,0,0,.26.26h1.37v6.19a3,3,0,0,0,3.14,3.14h1.38a.26.26,0,0,0,.26-.27V17a.26.26,0,0,0-.26-.27H71.62a1.45,1.45,0,0,1-1.5-1.53v-6h2.72a.26.26,0,0,0,.26-.26V7.63A.26.26,0,0,0,72.84,7.37Z"/><path class="cls-2" d="M32.1,1.5H30.71A3.42,3.42,0,0,0,27.3,4.92V7.37H25.93a.26.26,0,0,0-.26.26V8.91a.26.26,0,0,0,.26.26H27.3v9.06a.27.27,0,0,0,.26.27h1.28a.27.27,0,0,0,.26-.27V9.17h3a.27.27,0,0,0,.27-.26V7.63a.27.27,0,0,0-.27-.26h-3V4.92A1.53,1.53,0,0,1,30.6,3.3h1.5A.26.26,0,0,0,32.37,3V1.76A.27.27,0,0,0,32.1,1.5Z"/><path class="cls-2" d="M54.33,7A5.29,5.29,0,0,0,50.64,8.5V1.77a.27.27,0,0,0-.26-.27H49.1a.26.26,0,0,0-.26.27V12.94c0,4.13,2.76,6,5.49,6s5.5-1.85,5.5-6a6.15,6.15,0,0,0-1.54-4.28A5.33,5.33,0,0,0,54.33,7Zm0,10.13c-2.72,0-3.69-2.16-3.69-4.17,0-2.48,1.48-4.15,3.69-4.15S58,10.46,58,12.94C58,15,57.06,17.11,54.33,17.11Z"/><path class="cls-2" d="M76,17.67a.32.32,0,0,0,.25-.31.31.31,0,0,0-.31-.3h-.44v1h.13v-.41h.17l.29.41h.17L76,17.67Zm-.37-.13v-.35H76a.18.18,0,0,1,.18.17.18.18,0,0,1-.18.18Z"/><path class="cls-2" d="M75.86,16.64a1,1,0,1,0,1,1A1,1,0,0,0,75.86,16.64Zm0,1.81a.86.86,0,1,1,.85-.85A.85.85,0,0,1,75.86,18.45Z"/></svg>