<svg id="Layer_1" data-name="Layer 1" xmlns="http://www.w3.org/2000/svg" viewBox="0 0 28 28"><defs><style>.cls-1{fill:none;}.cls-2{fill:#e2e8ee;}</style></defs><rect class="cls-1" width="28" height="28"/><path class="cls-2" d="M5.08,25.42l2.7-8.09-6.93-5c-.7-.51-1-1-.79-1.59S.75,9.94,1.63,10l8.51.05,2.61-8.13C13,1,13.42.63,14,.63S15,1,15.26,1.87L17.85,10,26.36,10c.88,0,1.41.27,1.59.81s-.09,1.08-.8,1.59l-6.94,5,2.7,8.09c.29.83.18,1.41-.27,1.75s-1.05.24-1.76-.27l-6.88-5-6.88,5c-.7.51-1.29.62-1.75.27S4.8,26.25,5.08,25.42Z"/></svg>