<svg id="Layer_1" data-name="Layer 1" xmlns="http://www.w3.org/2000/svg" viewBox="0 0 80 80"><defs><style>.cls-1{fill:none;}.cls-2{fill:#21293a;}</style></defs><rect class="cls-1" width="80" height="80"/><path class="cls-2" d="M47.84,80H45.2a3.08,3.08,0,0,1-2.34-1.1,2.77,2.77,0,0,1-.7-1.86V75.45H37.84V77a2.79,2.79,0,0,1-.7,1.86A3.08,3.08,0,0,1,34.8,80H32.16a1.17,1.17,0,0,1-1.07-.67c-.28-.61-.36-1.67.85-3.26,1.91-2.49,2.63-3.14,8.06-3.14s6.15.65,8,3.14c1.22,1.59,1.14,2.65.86,3.26A1.17,1.17,0,0,1,47.84,80Zm-11-5.54h6.3V77a1.83,1.83,0,0,0,.44,1.2A2.12,2.12,0,0,0,45.2,79h2.64a.17.17,0,0,0,.17-.1c.14-.29.22-1-.74-2.24-1.66-2.17-2.1-2.76-7.27-2.76s-5.61.59-7.27,2.76c-1,1.26-.88,2-.75,2.24a.2.2,0,0,0,.18.1H34.8a2.12,2.12,0,0,0,1.61-.77,1.83,1.83,0,0,0,.44-1.2Z"/><rect class="cls-2" x="37.35" y="75.95" width="5.3" height="0.99"/><path class="cls-2" d="M40,79.91a30,30,0,0,1-4.14-.19l.16-1a26.87,26.87,0,0,0,4,.19,26.87,26.87,0,0,0,4-.19l.16,1A30,30,0,0,1,40,79.91Z"/><path class="cls-2" d="M32.08,80l.08-.48L32,80c-2.42-.38-10.49-2-12.43-6.8-2-5-3.05-10-3.05-23.19V15.29c0-7.84,2.53-10.5,3.3-11.13C23,1.21,28.84,0,40,0S57,1.21,60.17,4.18c.75.6,3.28,3.26,3.28,11.11V50c0,13.23-1,18.19-3.05,23.19C58.46,78,50.39,79.61,48,80l-.21-1c1.69-.26,9.93-1.75,11.72-6.2,2-4.88,3-9.75,3-22.82V15.29c0-7.6-2.44-10-2.93-10.37C56.53,2.12,50.88,1,40,1S23.47,2.12,20.5,4.9c-.52.42-3,2.79-3,10.39V50c0,13.07,1,17.94,3,22.82,1.79,4.45,10,5.94,11.66,6.19l0,.5Z"/><path class="cls-2" d="M48.67,79l-.17-1c.07,0,6.81-1.25,8.39-5.36C58.65,68,59.55,63.4,59.55,50.9V17.25C59.55,10,57.24,8,57.21,8,54.08,4.85,46.76,4.44,40,4.44S25.92,4.85,22.83,8c-.07,0-2.38,2-2.38,9.3V50.9c0,12.51.9,17.14,2.66,21.76C24.69,76.77,31.43,78,31.5,78l-.17,1c-.3,0-7.36-1.34-9.14-6s-2.73-9.45-2.73-22.11V17.25c0-7.85,2.61-10,2.72-10C24.83,4.55,30,3.45,40,3.45s15.17,1.1,17.87,3.8c.06,0,2.67,2.15,2.67,10V50.9c0,12.66-.92,17.38-2.73,22.11S49,78.94,48.67,79Z"/><path class="cls-2" d="M51.27,19.12V43.19H28.73V19.12H51.27m1-1H27.74v26H52.26v-26Z"/><path class="cls-2" d="M54.19,46.85H25.81V15.93H54.19Zm-27.39-1H53.2V16.92H26.8Z"/><path class="cls-2" d="M48,66.73H32a5.12,5.12,0,0,1-5.1-4.62l-.81-8.17a2.84,2.84,0,0,1,.72-2.16,2.8,2.8,0,0,1,2.08-.93H51.14a2.8,2.8,0,0,1,2.08.93,2.84,2.84,0,0,1,.72,2.16l-.81,8.17A5.12,5.12,0,0,1,48,66.73ZM28.86,51.84a1.82,1.82,0,0,0-1.81,2l.8,8.17A4.14,4.14,0,0,0,32,65.74H48A4.12,4.12,0,0,0,52.14,62L53,53.84a1.82,1.82,0,0,0-1.81-2Z"/><path class="cls-2" d="M41.89,56l-1.73-1.61a.24.24,0,0,0-.32,0L38.11,56a.23.23,0,0,0,.16.4h3.46A.23.23,0,0,0,41.89,56Z"/><path class="cls-2" d="M38.18,61.81l1.67,1.38a.24.24,0,0,0,.3,0l1.67-1.38a.23.23,0,0,0-.15-.41H38.33A.23.23,0,0,0,38.18,61.81Z"/><path class="cls-2" d="M30.59,56.49l-1.37,1.3a.22.22,0,0,0,0,.33l1.37,1.3a.23.23,0,0,0,.39-.17V56.66A.23.23,0,0,0,30.59,56.49Z"/><path class="cls-2" d="M31,58.65s1.18,0,1.18,1.5h1.35c0-3-2.53-3-2.53-3Z"/><path class="cls-2" d="M48.68,58.52c0,.28,0,.48,0,.6a.72.72,0,0,1-.15.32.84.84,0,0,1-.34.22,1.44,1.44,0,0,1-.49.08,1.46,1.46,0,0,1-.48-.08.8.8,0,0,1-.34-.22.64.64,0,0,1-.15-.31,4.21,4.21,0,0,1,0-.61v-.47a3.89,3.89,0,0,1,0-.59.5.5,0,0,1,.15-.32.71.71,0,0,1,.33-.22,1.26,1.26,0,0,1,.49-.08,1.43,1.43,0,0,1,.48.07.8.8,0,0,1,.34.22.53.53,0,0,1,.15.32,4,4,0,0,1,0,.6Zm-.86-.91a.65.65,0,0,0,0-.25.11.11,0,0,0-.1,0,.14.14,0,0,0-.11,0,.64.64,0,0,0,0,.26v1.3a1,1,0,0,0,0,.3s0,0,.11,0,.1,0,.11-.06a1,1,0,0,0,0-.31Z"/><path class="cls-2" d="M51.06,56.9l-.5,1.25.54,1.53h-.89l-.35-1.19v1.19H49V56.9h.86V58l.39-1.08Z"/></svg>