<svg id="Layer_1" data-name="Layer 1" xmlns="http://www.w3.org/2000/svg" viewBox="0 0 80 80"><defs><style>.cls-1{fill:none;}.cls-2{fill:#21293a;}</style></defs><rect class="cls-1" width="80" height="80"/><path class="cls-2" d="M22.07,79.8l-.67-.72a5.48,5.48,0,0,0,1.29-2.77l1,.14A6.46,6.46,0,0,1,22.07,79.8Z"/><path class="cls-2" d="M25.6,80c-2.57,0-4.77-.07-6.73-.22a4.08,4.08,0,0,1-1-.2c-1.2-.38-1.85-.86-2-1.44a1.07,1.07,0,0,1,.35-1c1.19-1.2,2.22-1.22,8.73-1.22h1.23c6.5,0,7.53,0,8.72,1.22a1.06,1.06,0,0,1,.36,1c-.14.58-.8,1.06-2,1.44a4,4,0,0,1-1,.2C30.38,79.93,28.17,80,25.6,80Zm-.39-3.13c-6.5,0-7.37,0-8.25.92a.39.39,0,0,0-.09.13c0,.06.28.38,1.33.72a3.22,3.22,0,0,0,.75.15c1.93.15,4.11.22,6.65.22s4.73-.07,6.66-.22a3.14,3.14,0,0,0,.74-.15c1-.33,1.32-.66,1.34-.73h0a.68.68,0,0,0-.09-.12c-.89-.88-1.76-.92-8.26-.92h-.78Z"/><path class="cls-2" d="M29.13,79.8a6.32,6.32,0,0,1-1.59-3.35l1-.14a5.43,5.43,0,0,0,1.28,2.77Z"/><path class="cls-2" d="M32.71,79.74l-.08-1a39.28,39.28,0,0,0,9.95-2.09l1.36-.43c4.36-1.36,4.9-7.74,5.62-20.89.71-12.78.64-31.56.64-31.75.1-3.67-.16-13.68-2.48-16L47.16,7C44.4,4.2,41.27,1,25.6,1S6.81,4.2,4.05,7l-.56.57C1.16,9.92.91,19.93,1,23.58c0,.21-.06,19,.64,31.77C2.36,68.5,2.9,74.88,7.27,76.24l1.35.43a39.38,39.38,0,0,0,10,2.09l-.08,1A39.7,39.7,0,0,1,8.32,77.61L7,77.18C1.76,75.56,1.35,68,.66,55.4,0,42.6,0,23.78,0,23.59,0,23.06-.31,10,2.79,6.9l.55-.56C6.24,3.37,9.52,0,25.6,0S45,3.37,47.87,6.34l.54.56c3.1,3.1,2.79,16.16,2.78,16.71,0,.17.06,19-.64,31.79C49.86,68,49.44,75.56,44.23,77.18l-1.35.43A39.61,39.61,0,0,1,32.71,79.74Z"/><path class="cls-2" d="M39.94,55.37H11.52a2,2,0,0,1-2-2V22a2,2,0,0,1,2-2H39.94a2,2,0,0,1,2,2V53.36A2,2,0,0,1,39.94,55.37ZM11.52,21a1,1,0,0,0-1,1V53.36a1,1,0,0,0,1,1H39.94a1,1,0,0,0,1-1V22a1,1,0,0,0-1-1Z"/><path class="cls-2" d="M49.83,59.78H10.76a5.06,5.06,0,0,1-5-5l-.6-33.47a5,5,0,0,1,5-5.13H50.51v1H10.17a4,4,0,0,0-4,4.13l.59,33.46a4.08,4.08,0,0,0,4.05,4H49.83Z"/><circle class="cls-2" cx="44.01" cy="37.07" r="1.24"/><circle class="cls-2" cx="44.11" cy="40.64" r="1.15"/><circle class="cls-2" cx="44.11" cy="44.34" r="0.91"/><circle class="cls-2" cx="44.11" cy="47.8" r="0.83"/><circle class="cls-2" cx="43.98" cy="51.32" r="0.65"/><circle class="cls-2" cx="44.11" cy="33.49" r="1.15"/><circle class="cls-2" cx="44.11" cy="29.8" r="0.91"/><circle class="cls-2" cx="44.11" cy="26.33" r="0.83"/><circle class="cls-2" cx="43.98" cy="22.81" r="0.65"/></svg>