<svg id="Layer_1" data-name="Layer 1" xmlns="http://www.w3.org/2000/svg" viewBox="0 0 28 28"><defs><style>.cls-1{fill:none;}.cls-2{fill:#21293a;}</style></defs><rect class="cls-1" width="28" height="28"/><path class="cls-2" d="M22.49,23.66l4.08,4.07a.82.82,0,0,0,1.16,0l0,0a.82.82,0,0,0,0-1.16l-4.07-4.07A4,4,0,0,1,22.49,23.66Z"/><path class="cls-2" d="M16.94,20.3l1.62,1.63a2.46,2.46,0,0,0,1.7.7h0a2.4,2.4,0,0,0,2.37-2.35v0a2.43,2.43,0,0,0-.7-1.75l-1.63-1.62Z"/><path class="cls-2" d="M9.91,3.65,3.62,9.94a.63.63,0,0,0,0,.9l.29.29a.63.63,0,0,0,.9,0l.5-.51,8.58,8.58a.65.65,0,0,0,.91,0l4.43-4.43a.63.63,0,0,0,0-.9L10.65,5.29l.45-.45a.65.65,0,0,0,0-.91l-.29-.28A.63.63,0,0,0,9.91,3.65Z"/><path class="cls-2" d="M1.4,6.55,2,6l1.6,1.6,4-4L6,1.94l.51-.51a.72.72,0,0,0,0-1L6.35.24a.72.72,0,0,0-1,0L.21,5.36a.72.72,0,0,0,0,1l.17.17A.72.72,0,0,0,1.4,6.55Z"/><path class="cls-2" d="M2.58,26.1A3.57,3.57,0,0,1,1.84,26,2.56,2.56,0,0,0,4.33,28H17.51A2.58,2.58,0,0,0,20,26a3.64,3.64,0,0,1-.74.07Z"/><path class="cls-2" d="M4.33,15.79a2.57,2.57,0,0,0-2.49,1.94,4.42,4.42,0,0,1,.74-.07H10L8.16,15.79Z"/><path class="cls-2" d="M15.18,20.87a2.27,2.27,0,0,1-2.45-.51L11.67,19.3H2.58a2.58,2.58,0,0,0,0,5.16H19.27a2.57,2.57,0,0,0,1-.19,4.12,4.12,0,0,1-2.83-1.18Z"/></svg>