<svg id="Layer_1" data-name="Layer 1" xmlns="http://www.w3.org/2000/svg" viewBox="0 0 28 28"><defs><style>.cls-1{fill:none;}.cls-2{fill:#21293a;}</style></defs><rect class="cls-1" width="28" height="28"/><path class="cls-2" d="M1.1,14a10.21,10.21,0,0,1,1.63-2.48A27.16,27.16,0,0,1,5,9.25L7.57,6.93a30.55,30.55,0,0,0,2.5-2.58,15.51,15.51,0,0,0,2.07-3.06,2.88,2.88,0,0,1,.75-.94A1.74,1.74,0,0,1,14,0a1.72,1.72,0,0,1,1.1.35,2.88,2.88,0,0,1,.75.94,15.51,15.51,0,0,0,2.07,3.06,30.55,30.55,0,0,0,2.5,2.58L23,9.25a27.16,27.16,0,0,1,2.27,2.29A10.21,10.21,0,0,1,26.9,14a7,7,0,0,1,.6,2.92,6.35,6.35,0,0,1-.78,3.16,5.7,5.7,0,0,1-2.15,2.18,6.08,6.08,0,0,1-3.11.8,7.25,7.25,0,0,1-2.05-.29,4.89,4.89,0,0,1-1.7-.87,3.48,3.48,0,0,1-1.07-1.42H16.4A3.06,3.06,0,0,0,16.82,22a5.1,5.1,0,0,0,.93,1.19,11.48,11.48,0,0,0,1.08,1c.36.28.65.52.88.72a2,2,0,0,1,.61.94,2.11,2.11,0,0,1,0,1.06,1.63,1.63,0,0,1-.57.84,1.65,1.65,0,0,1-1.09.34H9.34a1.64,1.64,0,0,1-1.08-.34,1.57,1.57,0,0,1-.57-.84,1.91,1.91,0,0,1,0-1.06,2,2,0,0,1,.6-.94c.23-.2.52-.44.89-.72a11.48,11.48,0,0,0,1.08-1A5.38,5.38,0,0,0,11.19,22a3.16,3.16,0,0,0,.41-1.46h-.23a3.42,3.42,0,0,1-1.08,1.42,4.93,4.93,0,0,1-1.69.87,7.24,7.24,0,0,1-2,.29,6.1,6.1,0,0,1-3.13-.8A5.84,5.84,0,0,1,1.28,20.1,6.35,6.35,0,0,1,.5,16.94,7,7,0,0,1,1.1,14Z"/></svg>