<svg xmlns="http://www.w3.org/2000/svg" xmlns:xlink="http://www.w3.org/1999/xlink" width="183" height="167" viewBox="0 0 183 167">
  <defs>
    <clipPath id="clip-iPhone_XR_XS_Max_11_1">
      <rect width="183" height="167"/>
    </clipPath>
  </defs>
  <g id="iPhone_XR_XS_Max_11_1" data-name="iPhone XR, XS Max, 11 – 1" clip-path="url(#clip-iPhone_XR_XS_Max_11_1)">
    <g id="Group_188" data-name="Group 188" transform="translate(-10470 -397.605)">
      <path id="Shape" d="M10470,412.577h173.211V585.788H10470Z" transform="translate(0 0)" fill="none"/>
      <g id="Group_187" data-name="Group 187" transform="translate(10474 407.576)">
        <g id="Group_186" data-name="Group 186">
          <path id="Path_179" data-name="Path 179" d="M10626.211,430.066c-18.844-18.851-47.969-21.088-69.187-8.4-22.086-13.193-52.484-9.779-70.664,8.4a55.79,55.79,0,0,0-.023,78.919l.023.029,14.344,14.333.008.022a15.139,15.139,0,0,0,9.93,4.431A15.189,15.189,0,0,0,10525,542.148a15.188,15.188,0,0,0,14.359,14.355,15.2,15.2,0,0,0,25.8,10.082l16.68-14.239c.1-.087.2-.173.3-.267a15.124,15.124,0,0,0,4.422-9.923,15.139,15.139,0,0,0,9.938-4.431,17.035,17.035,0,0,0,4.9-9.909,15.179,15.179,0,0,0,14.891-14.362,15.077,15.077,0,0,0,9.922-4.438h.008C10648.9,486.331,10648.852,452.713,10626.211,430.066Zm-111.141,86.122h0v.007a5.061,5.061,0,0,1-7.164,0l-.008-.007-.016-.007a5.081,5.081,0,0,1-.125-7.029l14.516-12.074a4.55,4.55,0,0,0,.336-.317,5.072,5.072,0,0,1,7.938,6.2l-15.18,12.962C10515.266,516.007,10515.164,516.094,10515.07,516.188Zm14.359,14.355a5.075,5.075,0,0,1-7.312-7.037c15.93-13.258,13.836-11.375,16.961-14.492a5.071,5.071,0,0,1,7.281,7.058l-16.633,14.2A2.519,2.519,0,0,0,10529.43,530.543Zm14.344,14.355a5.074,5.074,0,0,1-7.289-7.058l16.648-14.2c.1-.087.2-.18.289-.274a5.077,5.077,0,0,1,7.3,7.058l-16.648,14.2C10543.977,544.717,10543.875,544.8,10543.773,544.9Zm31.3-.115-16.641,14.2c-.1.087-.2.18-.3.274a5.077,5.077,0,0,1-7.3-7.058l16.648-14.2a3.233,3.233,0,0,0,.289-.267,5.077,5.077,0,0,1,7.3,7.058Zm43.961-42.942a5.077,5.077,0,0,1-7.172,0l-28.711-28.71a5.077,5.077,0,0,0-7.187,7.174l28.719,28.71a5.075,5.075,0,1,1-7.18,7.174h0l-28.7-28.7a5.072,5.072,0,1,0-7.172,7.174l28.7,28.71c1.906,1.9.945,5.218-1.008,7.174a5.073,5.073,0,0,1-7.18,0h-.008a15.081,15.081,0,0,0-9.914-4.431,15.2,15.2,0,0,0-14.359-14.348,15.208,15.208,0,0,0-16.7-14.3,15.224,15.224,0,0,0-25.531-8.054l-14.555,12.117c-.125.1-.234.209-.352.318a15.185,15.185,0,0,0-2.961,4.2l-4.211-4.2a45.689,45.689,0,0,1,0-64.6c13.719-13.712,36.844-17.112,54.484-8.87-.6.556-1.2,1.119-1.773,1.7l-20.828,20.821a16.231,16.231,0,0,0,20.484,24.979l32-21.334c13.9,13.792,24.773,23.773,41.125,40.127A5.089,5.089,0,0,1,10619.031,501.84Zm7.18-14.355c-17.57-17.573-28.789-27.779-44.078-43.064v-.007a5.086,5.086,0,0,0-6.4-.628h0l-35.461,23.636a6.078,6.078,0,0,1-7.664-9.361l20.813-20.822c17.789-17.776,47.82-17.776,65.609,0,14.359,14.362,18.3,34.592,9,52.439A15.486,15.486,0,0,0,10626.211,487.485Z" transform="translate(-10469.997 -413.685)" fill="#fff"/>
        </g>
      </g>
    </g>
  </g>
</svg>
