<svg id="Layer_1" data-name="Layer 1" xmlns="http://www.w3.org/2000/svg" viewBox="0 0 20 20"><defs><style>.cls-1{fill:none;}.cls-2{fill:#21293a;opacity:0.5;}</style></defs><rect class="cls-1" width="20" height="20"/><path class="cls-2" d="M18.26,10,8.89,1.2a.68.68,0,0,1-.2-.5.65.65,0,0,1,.1-.36A.67.67,0,0,1,9,.09.74.74,0,0,1,9.4,0a.66.66,0,0,1,.5.21l9.86,9.25a.69.69,0,0,1,.18.24A.73.73,0,0,1,20,10a.65.65,0,0,1-.06.29.69.69,0,0,1-.18.24L9.9,19.79A.7.7,0,0,1,9,19.9a.67.67,0,0,1-.25-.25.61.61,0,0,1-.1-.36.68.68,0,0,1,.2-.5Z"/></svg>