<svg id="Layer_1" data-name="Layer 1" xmlns="http://www.w3.org/2000/svg" viewBox="0 0 93 24"><defs><style>.cls-1{fill:none;}.cls-2{fill:#00b0b9;}.cls-3{fill:#002a3a;}</style></defs><rect class="cls-1" width="93" height="24"/><path class="cls-2" d="M13.32,1.8A1.8,1.8,0,1,1,11.52,0,1.8,1.8,0,0,1,13.32,1.8ZM11.52,5A1.87,1.87,0,1,0,13.39,6.9,1.88,1.88,0,0,0,11.52,5Zm0,5A2,2,0,1,0,13.46,12,2,2,0,0,0,11.52,10.05Zm0,5.18a1.87,1.87,0,1,0,1.87,1.87A1.87,1.87,0,0,0,11.52,15.23Zm0,5.17a1.8,1.8,0,1,0,1.8,1.8A1.79,1.79,0,0,0,11.52,20.4Zm5-15.61A2.11,2.11,0,1,0,18.59,6.9,2.1,2.1,0,0,0,16.48,4.79Zm0,5A2.19,2.19,0,1,0,18.67,12,2.19,2.19,0,0,0,16.48,9.81Zm0,5.18a2.11,2.11,0,1,0,2.11,2.11A2.1,2.1,0,0,0,16.48,15Zm5.09-5.42A2.43,2.43,0,1,0,24,12,2.42,2.42,0,0,0,21.57,9.57ZM6.49,5.27A1.63,1.63,0,1,0,8.13,6.9,1.63,1.63,0,0,0,6.49,5.27Zm0,5A1.71,1.71,0,1,0,8.2,12,1.71,1.71,0,0,0,6.49,10.29Zm0,5.18A1.63,1.63,0,1,0,8.13,17.1,1.63,1.63,0,0,0,6.49,15.47Zm-5-4.94A1.47,1.47,0,1,0,2.93,12,1.47,1.47,0,0,0,1.47,10.53Z"/><rect class="cls-3" x="42.12" y="8.84" width="2.16" height="13.36" rx="0.32"/><path class="cls-3" d="M43.2,3.49a1.47,1.47,0,1,0,0,2.93,1.47,1.47,0,0,0,0-2.93Z"/><rect class="cls-3" x="74.79" y="8.84" width="2.16" height="13.36" rx="0.32"/><path class="cls-3" d="M75.87,3.49a1.47,1.47,0,1,0,0,2.93,1.47,1.47,0,0,0,0-2.93Z"/><path class="cls-3" d="M55.06,8.84H51.8V3.94a.32.32,0,0,0-.32-.32H50a.32.32,0,0,0-.32.32v4.9H48a.32.32,0,0,0-.32.32v1.53A.32.32,0,0,0,48,11h1.64v7.43A3.57,3.57,0,0,0,53.4,22.2h1.66a.33.33,0,0,0,.32-.32V20.35a.33.33,0,0,0-.32-.32H53.59a1.74,1.74,0,0,1-1.79-1.84V11h3.26a.32.32,0,0,0,.32-.31V9.16A.32.32,0,0,0,55.06,8.84Z"/><path class="cls-3" d="M87.41,8.84H84.15V3.94a.32.32,0,0,0-.32-.32H82.3a.32.32,0,0,0-.32.32v4.9H80.34a.32.32,0,0,0-.32.32v1.53a.32.32,0,0,0,.32.31H82v7.43a3.57,3.57,0,0,0,3.77,3.77h1.66a.32.32,0,0,0,.31-.32V20.35a.32.32,0,0,0-.31-.32H85.94a1.74,1.74,0,0,1-1.79-1.84V11h3.26a.31.31,0,0,0,.31-.31V9.16A.31.31,0,0,0,87.41,8.84Z"/><path class="cls-3" d="M38.52,1.8H36.86a4.11,4.11,0,0,0-4.1,4.1V8.84H31.12a.32.32,0,0,0-.32.32v1.53a.31.31,0,0,0,.32.31h1.64V21.88a.32.32,0,0,0,.32.32h1.53a.31.31,0,0,0,.31-.32V11h3.6a.31.31,0,0,0,.32-.31V9.16a.32.32,0,0,0-.32-.32h-3.6V5.9A1.83,1.83,0,0,1,36.72,4h1.8a.32.32,0,0,0,.32-.32V2.12A.32.32,0,0,0,38.52,1.8Z"/><path class="cls-3" d="M65.2,8.38a6.35,6.35,0,0,0-4.43,1.82V2.12a.32.32,0,0,0-.32-.32H58.92a.32.32,0,0,0-.32.32v13.4c0,5,3.32,7.18,6.6,7.18s6.6-2.22,6.6-7.18a7.35,7.35,0,0,0-1.86-5.13A6.35,6.35,0,0,0,65.2,8.38Zm0,12.15c-3.27,0-4.43-2.58-4.43-5,0-3,1.78-5,4.43-5s4.43,2,4.43,5C69.63,18,68.47,20.53,65.2,20.53Z"/><path class="cls-3" d="M91.22,21.2a.36.36,0,0,0,.3-.36.36.36,0,0,0-.37-.37h-.52v1.22h.15v-.48H91l.35.48h.19l-.35-.48Zm-.44-.15v-.43h.37a.22.22,0,0,1,.22.22.21.21,0,0,1-.22.21Z"/><path class="cls-3" d="M91,20a1.15,1.15,0,1,0,1.14,1.14A1.14,1.14,0,0,0,91,20Zm0,2.17a1,1,0,1,1,1-1A1,1,0,0,1,91,22.14Z"/></svg>