<svg id="Layer_1" data-name="Layer 1" xmlns="http://www.w3.org/2000/svg" viewBox="0 0 28 28"><defs><style>.cls-1{fill:none;}.cls-2{fill:#16a950;}</style></defs><rect id="bound" class="cls-1" width="28" height="28"/><path class="cls-2" d="M5.64,23.57a1.28,1.28,0,0,1-.29-.9v-2.6H4.09a4.59,4.59,0,0,1-2.16-.48A3.32,3.32,0,0,1,.5,18.22,4.51,4.51,0,0,1,0,16V7A4.47,4.47,0,0,1,.51,4.8,3.39,3.39,0,0,1,2,3.41a4.65,4.65,0,0,1,2.19-.49h14a4.68,4.68,0,0,1,2.23.49A3.29,3.29,0,0,1,21.82,4.8a4.58,4.58,0,0,1,.5,2.2V8.53H20.64V7.19a2.66,2.66,0,0,0-.7-2,2.7,2.7,0,0,0-2-.69H4.36a2.71,2.71,0,0,0-2,.69,2.67,2.67,0,0,0-.71,2v8.62a2.67,2.67,0,0,0,.71,2,2.68,2.68,0,0,0,2,.69H6.11a.71.71,0,0,1,.75.78v2.78L11,18.22l.9,1.42L7.93,23.18a4.18,4.18,0,0,1-.77.55,1.65,1.65,0,0,1-.72.17A1,1,0,0,1,5.64,23.57Zm16.25,1.32a5.36,5.36,0,0,1-.74-.55L18,21.59H14.21a4.52,4.52,0,0,1-2.1-.45,3.16,3.16,0,0,1-1.36-1.3,4.2,4.2,0,0,1-.47-2.05V11.72a4.36,4.36,0,0,1,.47-2.09,3.21,3.21,0,0,1,1.36-1.32,4.4,4.4,0,0,1,2.1-.47h9.87a4.39,4.39,0,0,1,2.07.47,3.29,3.29,0,0,1,1.37,1.32A4.25,4.25,0,0,1,28,11.72v6.06a4.13,4.13,0,0,1-.48,2.06,3.2,3.2,0,0,1-1.35,1.3,4.38,4.38,0,0,1-2,.45h-.51v2.27a1.34,1.34,0,0,1-.28.89,1,1,0,0,1-.79.33A1.23,1.23,0,0,1,21.89,24.89Zm.23-4.09a.75.75,0,0,1,.21-.58.8.8,0,0,1,.53-.19h1a2.5,2.5,0,0,0,1.81-.62,2.46,2.46,0,0,0,.65-1.84V11.88A2.46,2.46,0,0,0,25.7,10a2.48,2.48,0,0,0-1.81-.63h-9.5a2.47,2.47,0,0,0-1.8.63,2.46,2.46,0,0,0-.65,1.84v5.7a2.42,2.42,0,0,0,.65,1.83,2.5,2.5,0,0,0,1.81.62H17.9a1.54,1.54,0,0,1,.65.12,2.13,2.13,0,0,1,.56.38l3,2.72Z"/></svg>