<svg id="Layer_1" data-name="Layer 1" xmlns="http://www.w3.org/2000/svg" viewBox="0 0 24 24"><defs><style>.cls-1{opacity:0.6;}.cls-2{fill:none;}.cls-3{fill:#3c3c43;}</style></defs><g class="cls-1"><rect class="cls-2" width="24" height="24"/><path class="cls-3" d="M18.54,16.36,13.12,12l5.44-4.36A1.32,1.32,0,0,0,19,7.17a1.4,1.4,0,0,0,.12-.55A1.35,1.35,0,0,0,19,6.07a1.69,1.69,0,0,0-.4-.52L12.33.28A1.21,1.21,0,0,0,11.81,0a1,1,0,0,0-.52,0,.8.8,0,0,0-.4.27.77.77,0,0,0-.15.49v9.25L6.33,6.51a1.06,1.06,0,0,0-.64-.26.78.78,0,0,0-.57.23A.72.72,0,0,0,4.91,7,.94.94,0,0,0,5,7.38a.77.77,0,0,0,.23.28L10.68,12,5.21,16.36a.77.77,0,0,0-.23.28.92.92,0,0,0-.07.38.74.74,0,0,0,.78.75,1,1,0,0,0,.64-.25L10.74,14v9.26a.67.67,0,0,0,.17.49.93.93,0,0,0,.41.26,1.18,1.18,0,0,0,.53,0,1.09,1.09,0,0,0,.48-.24l6.23-5.28A1.34,1.34,0,0,0,19,18a1.32,1.32,0,0,0,.12-.54,1.43,1.43,0,0,0-.13-.56A1.32,1.32,0,0,0,18.54,16.36ZM12.35,2.53l5,4.07-5,3.92Zm0,19v-8l5,3.93Z"/></g></svg>