<svg id="Layer_1" data-name="Layer 1" xmlns="http://www.w3.org/2000/svg" viewBox="0 0 24 24"><defs><style>.cls-1{fill:none;}.cls-2{fill:#ff0844;}</style></defs><rect id="Rectangle" class="cls-1" width="24" height="24"/><path class="cls-2" d="M23.9,19.28a2.74,2.74,0,0,0-.3-.74l-9-16.06a2.92,2.92,0,0,0-1.14-1.17A3.1,3.1,0,0,0,12,.93a3,3,0,0,0-1.48.39A2.85,2.85,0,0,0,9.38,2.48L.4,18.55A3,3,0,0,0,0,20a3.1,3.1,0,0,0,.38,1.5,3,3,0,0,0,1.07,1.11A2.94,2.94,0,0,0,3,23.07H21a2.94,2.94,0,0,0,1.58-.42,3,3,0,0,0,1.06-1.11A3.1,3.1,0,0,0,24,20,2.78,2.78,0,0,0,23.9,19.28ZM11,7.69a1.39,1.39,0,0,1,1-.36,1.37,1.37,0,0,1,1,.37,1.18,1.18,0,0,1,.36,1l-.18,5.19A1.06,1.06,0,0,1,12,15a1.07,1.07,0,0,1-1.19-1.16l-.18-5.21A1.25,1.25,0,0,1,11,7.69Zm2.08,11A1.53,1.53,0,0,1,12,19a1.54,1.54,0,0,1-1.07-.38,1.24,1.24,0,0,1-.44-1,1.26,1.26,0,0,1,.44-1A1.55,1.55,0,0,1,12,16.3a1.57,1.57,0,0,1,1.07.38,1.27,1.27,0,0,1,.43,1A1.23,1.23,0,0,1,13.07,18.66Z"/></svg>