<svg id="Layer_1" data-name="Layer 1" xmlns="http://www.w3.org/2000/svg" viewBox="0 0 28 28"><defs><style>.cls-1{fill:none;}.cls-2{fill:#21293a;}</style></defs><rect class="cls-1" width="28" height="28"/><path class="cls-2" d="M9.45,27.87a3.41,3.41,0,0,1-1.9,0,4.24,4.24,0,0,1-1.79-1.11,9.27,9.27,0,0,1-1-1.28c-.34-.5-.67-1.06-1-1.67S3,22.42,2.63,21.61,1.88,20,1.53,19.13s-.67-1.67-1-2.45C.4,16.2.27,15.77.16,15.4A4.21,4.21,0,0,1,0,14.33a3.36,3.36,0,0,1,.18-1.05A6.31,6.31,0,0,1,.81,12,28.47,28.47,0,0,1,2.9,9.18c.85-1,1.85-2.14,3-3.28s2.25-2.15,3.29-3A28.47,28.47,0,0,1,12,.81,6.31,6.31,0,0,1,13.28.18,3.36,3.36,0,0,1,14.33,0,4.21,4.21,0,0,1,15.4.16c.37.11.8.24,1.28.41.78.29,1.6.61,2.45,1s1.67.72,2.48,1.1,1.53.74,2.19,1.09,1.17.67,1.67,1a9.27,9.27,0,0,1,1.28,1,4.24,4.24,0,0,1,1.11,1.79,3.41,3.41,0,0,1,0,1.9,4,4,0,0,1-1.08,1.77,4,4,0,0,1-1.52,1,4.36,4.36,0,0,1-1.83.17l-3-.29a1.46,1.46,0,0,0-.57,0,1.13,1.13,0,0,0-.41.25l-7.11,7.11a1.13,1.13,0,0,0-.25.41,1.46,1.46,0,0,0,0,.57l.29,3a4.36,4.36,0,0,1-.17,1.83,3.85,3.85,0,0,1-1,1.52A4,4,0,0,1,9.45,27.87ZM5.6,17.11a.71.71,0,0,0,.52-.25l1.45-1.44L9,16.86a.77.77,0,0,0,.52.25.67.67,0,0,0,.5-.23.66.66,0,0,0,.22-.5.72.72,0,0,0-.24-.51L8.56,14.42,10,13a.82.82,0,0,0,.27-.54A.74.74,0,0,0,10,12a.66.66,0,0,0-.51-.22.78.78,0,0,0-.55.27L7.53,13.4,6.09,12a.76.76,0,0,0-.51-.24.69.69,0,0,0-.5.22.74.74,0,0,0-.23.51A.77.77,0,0,0,5.1,13l1.44,1.44L5.09,15.84a.72.72,0,0,0-.24.52.7.7,0,0,0,.23.5A.8.8,0,0,0,5.6,17.11Zm8.7-5.94a1.38,1.38,0,0,0,1-.42,1.4,1.4,0,0,0,.44-1,1.37,1.37,0,0,0-.43-1,1.39,1.39,0,0,0-1-.43,1.47,1.47,0,0,0-1.44,1.44,1.43,1.43,0,0,0,.43,1A1.38,1.38,0,0,0,14.3,11.17Zm0-4.38a1.43,1.43,0,0,0,1-.43,1.39,1.39,0,0,0,.43-1,1.37,1.37,0,0,0-.43-1,1.4,1.4,0,0,0-2,0,1.42,1.42,0,0,0,0,2A1.37,1.37,0,0,0,14.31,6.79Z"/></svg>