<svg id="Layer_1" data-name="Layer 1" xmlns="http://www.w3.org/2000/svg" viewBox="0 0 20 20"><defs><style>.cls-1{fill:none;}.cls-2{fill:#16a950;}</style></defs><rect class="cls-1" width="20" height="20"/><path class="cls-2" d="M19.9,5.34a.72.72,0,0,0-.25-.27.8.8,0,0,0-.38-.1,1.21,1.21,0,0,0-.35.07l-.34.12L10,8.58,1.41,5.16,1.08,5A1.21,1.21,0,0,0,.74,5a.81.81,0,0,0-.39.1.72.72,0,0,0-.25.27.66.66,0,0,0-.1.37.6.6,0,0,0,.12.36.76.76,0,0,0,.33.25L9,9.71l.53.19A1.45,1.45,0,0,0,10,10a1.49,1.49,0,0,0,.52-.1,5.41,5.41,0,0,0,.53-.19l8.5-3.39a.76.76,0,0,0,.33-.25A.6.6,0,0,0,20,5.71.66.66,0,0,0,19.9,5.34Z"/><path class="cls-2" d="M19.9,10.36a.7.7,0,0,0-.63-.36,1,1,0,0,0-.35.07l-.34.12L10,13.61,1.41,10.19l-.33-.12A.94.94,0,0,0,.74,10a.71.71,0,0,0-.39.1.69.69,0,0,0-.25.26.7.7,0,0,0-.1.38.65.65,0,0,0,.12.36.76.76,0,0,0,.33.25L9,14.74l.53.19A1.45,1.45,0,0,0,10,15a1.49,1.49,0,0,0,.52-.1l.53-.19,8.5-3.39a.76.76,0,0,0,.33-.25.65.65,0,0,0,.12-.36A.7.7,0,0,0,19.9,10.36Z"/></svg>