<svg id="Layer_1" data-name="Layer 1" xmlns="http://www.w3.org/2000/svg" viewBox="0 0 24 24"><defs><style>.cls-1{fill:none;}.cls-2{fill:#fff;}</style></defs><path id="Shape" class="cls-1" d="M0,0H24V24H0Z"/><path class="cls-2" d="M5.26,18v5H1V18H5.26m.3-1H.7a.7.7,0,0,0-.7.7V23.3a.7.7,0,0,0,.7.7H5.56a.7.7,0,0,0,.7-.7V17.73a.7.7,0,0,0-.7-.7Z"/><path class="cls-2" d="M13.36,14.52V23H9.09V14.52h4.27m.29-1H8.8a.7.7,0,0,0-.71.7V23.3a.7.7,0,0,0,.71.7h4.85a.7.7,0,0,0,.71-.7V14.22a.7.7,0,0,0-.71-.7Z"/><path class="cls-2" d="M20.06,7.42V4.85l3.51-1.48a.7.7,0,0,0,0-1.31h0L20.06.86V.7a.7.7,0,0,0-1.4,0V7.42a.7.7,0,0,0,.7.71h0A.7.7,0,0,0,20.06,7.42Z"/><path class="cls-2" d="M21.49,10.53V23H17.23V10.53h4.26m.3-1H16.93a.7.7,0,0,0-.7.71V23.3a.7.7,0,0,0,.7.7h4.86a.7.7,0,0,0,.7-.7V10.24a.7.7,0,0,0-.7-.71Z"/></svg>