<svg id="Layer_1" data-name="Layer 1" xmlns="http://www.w3.org/2000/svg" viewBox="0 0 28 28"><defs><style>.cls-1{fill:#a7d026;}.cls-2{fill:none;}</style></defs><path class="cls-1" d="M3.64,27.6a1.31,1.31,0,0,1-.34-.89,1.29,1.29,0,0,1,.11-.53,1.32,1.32,0,0,1,.34-.49L8,21.43l3.41-12A.44.44,0,0,0,11.39,9,.49.49,0,0,0,11,8.87L9,9l-.53,3.75a1.37,1.37,0,0,1-.45.92,1.12,1.12,0,0,1-.86.25,1.07,1.07,0,0,1-.81-.45,1.4,1.4,0,0,1-.18-1l.6-4.56A1.48,1.48,0,0,1,7.21,7a1.46,1.46,0,0,1,.88-.37l4.8-.4a5.4,5.4,0,0,1,2.69.39A5,5,0,0,1,17.5,8.24l2.23,3.14L22.9,10a1.39,1.39,0,0,1,1-.1,1.08,1.08,0,0,1,.65.61,1.06,1.06,0,0,1,.05.93,1.33,1.33,0,0,1-.72.7l-4,1.8A1.25,1.25,0,0,1,19,14a1.2,1.2,0,0,1-.69-.49l-1.48-2.17a.44.44,0,0,0-.41-.25c-.16,0-.27.14-.34.35l-1,3.45L19.86,18a1.38,1.38,0,0,1,.77,1.12,1.4,1.4,0,0,1-.11.53,1.62,1.62,0,0,1-.43.52l-4.25,3.62a3.49,3.49,0,0,1-.62.41,1.44,1.44,0,0,1-.69.13,1.06,1.06,0,0,1-.81-.43,1.19,1.19,0,0,1-.25-.84,1.24,1.24,0,0,1,.15-.52,1.42,1.42,0,0,1,.38-.48l3.1-2.65-3.42-2a1.12,1.12,0,0,0-.89-.16.94.94,0,0,0-.58.6l-1.78,4.61a4,4,0,0,1-.27.57,2.53,2.53,0,0,1-.38.42l-4,3.92a3,3,0,0,1-.59.46,1.27,1.27,0,0,1-.67.18A1.1,1.1,0,0,1,3.64,27.6Z"/><path class="cls-1" d="M15.37,5.25a2.67,2.67,0,0,1-1-1A2.72,2.72,0,0,1,14,2.83a2.77,2.77,0,0,1,.38-1.42,2.77,2.77,0,0,1,1-1A2.73,2.73,0,0,1,16.78,0,2.77,2.77,0,0,1,18.2.38a2.88,2.88,0,0,1,1,1,2.77,2.77,0,0,1,.38,1.42,2.72,2.72,0,0,1-.38,1.4,2.77,2.77,0,0,1-1,1,2.68,2.68,0,0,1-1.42.39A2.65,2.65,0,0,1,15.37,5.25Z"/><rect class="cls-2" width="28" height="28"/></svg>