<svg id="Layer_1" data-name="Layer 1" xmlns="http://www.w3.org/2000/svg" viewBox="0 0 24 24"><defs><style>.cls-1{fill:none;}.cls-2{fill:#fff;}</style></defs><path id="Shape" class="cls-1" d="M0,0H24V24H0Z"/><path class="cls-2" d="M17.66,1A5.33,5.33,0,0,1,23,6.33a5.36,5.36,0,0,1-1.59,3.8l-.56.61a7.71,7.71,0,0,0-2.48-.4A7.79,7.79,0,0,0,14,11.68L9.38,7.07l4.51-4.51A5.29,5.29,0,0,1,17.66,1m0-1a6.35,6.35,0,0,0-4.48,1.85L8,7.07,13.89,13a6.93,6.93,0,0,1,7.24-1.08l1-1.11A6.33,6.33,0,0,0,17.66,0Z"/><path class="cls-2" d="M7,9.48,11.6,14.1a7.79,7.79,0,0,0-1.27,4.27,7.9,7.9,0,0,0,.4,2.51l-.58.59A5.25,5.25,0,0,1,6.4,23a5.4,5.4,0,0,1-3.84-1.58,5.34,5.34,0,0,1,0-7.54L7,9.48M7,8.06,1.85,13.18a6.33,6.33,0,0,0,0,9A6.45,6.45,0,0,0,6.4,24a6.25,6.25,0,0,0,4.46-1.83l1-1a6.85,6.85,0,0,1-.57-2.76A6.93,6.93,0,0,1,12.9,14L7,8.06Z"/><path class="cls-2" d="M16.66,14.17v8.55a4.59,4.59,0,0,1,0-8.55m1-1.28a5.6,5.6,0,0,0,0,11.11V12.89Z"/><path class="cls-2" d="M20.07,14.17a4.58,4.58,0,0,1,0,8.55V14.17m-1-1.28V24a5.59,5.59,0,0,0,0-11.11Z"/></svg>