<svg id="Layer_1" data-name="Layer 1" xmlns="http://www.w3.org/2000/svg" viewBox="0 0 35 35"><defs><style>.cls-1{fill:none;}.cls-2{fill:#005c30;}</style></defs><rect class="cls-1" width="35" height="35"/><path class="cls-2" d="M7,34.54a1.56,1.56,0,0,1-.48-1.17,1.53,1.53,0,0,1,.18-.74,3.43,3.43,0,0,1,.47-.7l4.56-5.38.79-3.64,2.77,3.45c0,.17-.08.33-.13.5a4.74,4.74,0,0,1-.15.5,4.31,4.31,0,0,1-.26.66,7.37,7.37,0,0,1-.5.67L9.5,34.33A1.69,1.69,0,0,1,8.14,35,1.61,1.61,0,0,1,7,34.54Z"/><path class="cls-2" d="M21.52,34.75a1.85,1.85,0,0,1-.71-.83l-3.37-6.83c-.08-.15-.14-.28-.2-.38a2.9,2.9,0,0,0-.3-.43L13.8,22.34a10.47,10.47,0,0,1-1.14-1.83,4.31,4.31,0,0,1-.4-2.33l.26-3.63a.34.34,0,0,0-.2-.39.4.4,0,0,0-.42.1L10.47,15.5l-.33,4a1.72,1.72,0,0,1-.53,1.22,1.51,1.51,0,0,1-1.13.35,1.5,1.5,0,0,1-1.1-.52,1.62,1.62,0,0,1-.32-1.24l.29-3.69a4.42,4.42,0,0,1,.31-1.32,4.17,4.17,0,0,1,.85-1.18l2.42-2.38A12.25,12.25,0,0,1,13.19,9a4.47,4.47,0,0,1,2.35-.65,3.53,3.53,0,0,1,2,.56,3.35,3.35,0,0,1,1.21,1.49,4.72,4.72,0,0,1,.31,2.08l-.34,4.45a14.64,14.64,0,0,1-.15,1.46c-.06.44-.15.89-.26,1.35s-.25,1-.42,1.54l-.11.34,1.87,2.67c.15.2.3.43.46.68s.3.52.45.83l3.19,6.45a3,3,0,0,1,.22.58,1.68,1.68,0,0,1,.08.54,1.58,1.58,0,0,1-.5,1.23,1.72,1.72,0,0,1-2.05.2Z"/><path class="cls-2" d="M15.67,6.54a3.57,3.57,0,0,1-1.26-1.27A3.38,3.38,0,0,1,14,3.53a3.46,3.46,0,0,1,.46-1.77A3.54,3.54,0,0,1,15.67.47,3.39,3.39,0,0,1,17.44,0a3.44,3.44,0,0,1,1.77.47,3.6,3.6,0,0,1,1.28,1.29A3.47,3.47,0,0,1,21,3.53a3.39,3.39,0,0,1-.47,1.74,3.62,3.62,0,0,1-1.28,1.27A3.36,3.36,0,0,1,17.44,7,3.31,3.31,0,0,1,15.67,6.54Z"/><path class="cls-2" d="M22.05,17.54a2.08,2.08,0,0,1-.82-.54l-1.12-1.13.28-4.09L23,14.59h3.78A1.77,1.77,0,0,1,28,15a1.5,1.5,0,0,1,.46,1.13A1.45,1.45,0,0,1,28,17.25a1.74,1.74,0,0,1-1.24.43H23.16A3.75,3.75,0,0,1,22.05,17.54Z"/></svg>