<svg id="Layer_1" data-name="Layer 1" xmlns="http://www.w3.org/2000/svg" viewBox="0 0 24 24"><defs><style>.cls-1{opacity:0.6;}.cls-2{fill:none;}.cls-3{fill:#3c3c43;}</style></defs><g class="cls-1"><rect class="cls-2" width="24" height="24"/><path class="cls-3" d="M12,0a6.71,6.71,0,1,0,6.7,6.7A6.7,6.7,0,0,0,12,0Zm0,12a5.3,5.3,0,1,1,5.3-5.3A5.3,5.3,0,0,1,12,12Z"/><path class="cls-3" d="M23.29,24a.7.7,0,0,1-.7-.66,10.61,10.61,0,0,0-21.18,0,.7.7,0,0,1-.7.66h0A.71.71,0,0,1,0,23.25a12,12,0,0,1,24,0,.71.71,0,0,1-.71.75Z"/></g></svg>