<svg xmlns="http://www.w3.org/2000/svg" xmlns:xlink="http://www.w3.org/1999/xlink" width="89" height="103" viewBox="0 0 89 103">
  <defs>
    <style>
      .cls-1 {
        clip-path: url(#clip-LAB);
      }

      .cls-2 {
        fill: none;
      }

      .cls-3 {
        fill: #fff;
      }
    </style>
    <clipPath id="clip-LAB">
      <rect width="89" height="103"/>
    </clipPath>
  </defs>
  <g id="LAB" class="cls-1">
    <g id="Group_255" data-name="Group 255" transform="translate(-13794.873 -164.873)">
      <rect id="Rectangle" class="cls-2" width="83.746" height="83.746" transform="translate(13795 174.45)"/>
      <path id="Path_193" data-name="Path 193" class="cls-3" d="M13859.52,200.642,13837,177.821c-2.672-2.764-4.859-3.371-8.9-3.371h-18.75c-7.719,0-11.7,3.978-11.7,11.819v60.105c0,7.841,3.918,11.822,11.7,11.822h41.848c7.773,0,11.7-4.013,11.7-11.822V210C13862.891,205.474,13862.348,203.5,13859.52,200.642Zm-26.8-19.75,23.73,24.035h-21.332c-1.7,0-2.4-.667-2.4-2.4Zm24.793,65.36c0,4.257-2.246,6.564-6.621,6.564h-41.266c-4.348,0-6.594-2.307-6.594-6.564V186.391c0-4.163,2.246-6.564,6.621-6.564h17.992v23.278c0,4.648,2.336,6.9,6.895,6.9h22.973Z" transform="translate(6.603 0.001)"/>
    </g>
  </g>
</svg>
