<svg id="Layer_1" data-name="Layer 1" xmlns="http://www.w3.org/2000/svg" viewBox="0 0 24 24"><defs><style>.cls-1{fill:#16a850;}.cls-2{fill:none;}</style></defs><path class="cls-1" d="M3.41,23.19a3.2,3.2,0,0,1-.82-2.4V9.92a3.19,3.19,0,0,1,.82-2.4,3.29,3.29,0,0,1,2.42-.81h3V8.19h-3a1.81,1.81,0,0,0-1.33.45A1.83,1.83,0,0,0,4.06,10V20.71a1.84,1.84,0,0,0,.47,1.36,1.81,1.81,0,0,0,1.33.45H18.14a1.86,1.86,0,0,0,1.33-.45,1.84,1.84,0,0,0,.47-1.36V10a1.83,1.83,0,0,0-.47-1.35,1.86,1.86,0,0,0-1.33-.45h-3V6.71h3a3.3,3.3,0,0,1,2.43.81,3.26,3.26,0,0,1,.81,2.4V20.79a3.26,3.26,0,0,1-.81,2.4,3.3,3.3,0,0,1-2.43.81H5.83A3.29,3.29,0,0,1,3.41,23.19Z"/><path class="cls-1" d="M11.49,15.47a.69.69,0,0,1-.21-.5V3.61L11.33,2l-.88.91L8.7,4.77a.7.7,0,0,1-1,0,.61.61,0,0,1-.19-.47.58.58,0,0,1,.06-.26,1,1,0,0,1,.16-.22L11.48.24a.83.83,0,0,1,.25-.19.75.75,0,0,1,.54,0,1,1,0,0,1,.26.19l3.72,3.62a1,1,0,0,1,.16.22.58.58,0,0,1,.06.26.65.65,0,0,1-.19.47A.68.68,0,0,1,15.8,5a.63.63,0,0,1-.5-.22L13.55,2.94,12.67,2l.06,1.58V15a.69.69,0,0,1-.21.5.74.74,0,0,1-1,0Z"/><path id="Shape" class="cls-2" d="M0,0H24V24H0Z"/></svg>