<svg id="Layer_1" data-name="Layer 1" xmlns="http://www.w3.org/2000/svg" viewBox="0 0 28 28"><defs><style>.cls-1{fill:#a7d026;}</style></defs><path class="cls-1" d="M19.62,18.15l8.08,8.08a1.05,1.05,0,0,1,0,1.47h0a1.05,1.05,0,0,1-1.47,0l-8.08-8.08-.76.76a1,1,0,0,1-1.42,0L6.49,10.89l4.4-4.4L20.38,16a1,1,0,0,1,0,1.42Z"/><path class="cls-1" d="M2.08,9.42,3.55,8,0,4.41,4.41,0,8,3.55,9.42,2.08l1.47,1.47L3.55,10.89Z"/><path class="cls-1" d="M19.27,26.13a4.53,4.53,0,0,0,.74-.07A2.58,2.58,0,0,1,17.51,28H4.33a2.57,2.57,0,0,1-2.49-1.94,4.42,4.42,0,0,0,.74.07Z"/><path class="cls-1" d="M2.58,17.69h0a3.64,3.64,0,0,0-.74.07,2.56,2.56,0,0,1,2.49-1.94H8.58l1.88,1.87Z"/><path class="cls-1" d="M16.68,22.67a3,3,0,0,0,1.37-.33l2,2a2.45,2.45,0,0,1-.78.14H2.58a2.58,2.58,0,0,1,0-5.16H12.1l2.46,2.46A3,3,0,0,0,16.68,22.67Z"/></svg>