<svg id="Layer_1" data-name="Layer 1" xmlns="http://www.w3.org/2000/svg" viewBox="0 0 28 28"><defs><style>.cls-1{fill:none;}.cls-2{fill:#21293a;}</style></defs><rect id="bound-3" class="cls-1" width="28" height="28"/><path class="cls-2" d="M.33,12.44,12.67,2.1a2,2,0,0,1,2.7,0l12.3,10.34a.91.91,0,0,1,.33.71.73.73,0,0,1-.25.58.92.92,0,0,1-.61.21.71.71,0,0,1-.39-.1,4,4,0,0,1-.34-.23l-11.94-10A.67.67,0,0,0,14,3.38a.8.8,0,0,0-.45.19l-12,10-.33.23a.73.73,0,0,1-.39.1.84.84,0,0,1-.65-.25A.85.85,0,0,1,0,13.12.88.88,0,0,1,.33,12.44Z"/><path class="cls-2" d="M4,25.79a2.52,2.52,0,0,1-.66-1.87V10.7L5,9.57v14a1.3,1.3,0,0,0,.32.95,1.25,1.25,0,0,0,.94.33H21.71A1.14,1.14,0,0,0,23,23.52v-14l1.65,1.14V23.92A2.52,2.52,0,0,1,24,25.78a2.6,2.6,0,0,1-1.9.66H5.89A2.59,2.59,0,0,1,4,25.79Z"/><path class="cls-2" d="M18.24,26.24H9.77V16.59a1.63,1.63,0,0,1,1.68-1.68h5.11a1.69,1.69,0,0,1,1.21.47,1.67,1.67,0,0,1,.47,1.21Zm-6.83-1.65H16.6v-8l-5.15,0,0,0Z"/></svg>