<svg id="Layer_1" data-name="Layer 1" xmlns="http://www.w3.org/2000/svg" viewBox="0 0 24 24"><defs><style>.cls-1{fill:#ff0844;}</style></defs><path class="cls-1" d="M15.24,20.6a.6.6,0,0,0,.42-.15.58.58,0,0,0,.16-.41l.35-11.85a.52.52,0,0,0-.16-.4.61.61,0,0,0-.43-.15.6.6,0,0,0-.42.15.53.53,0,0,0-.17.39L14.65,20a.49.49,0,0,0,.15.41A.64.64,0,0,0,15.24,20.6Z"/><path class="cls-1" d="M12,20.6a.65.65,0,0,0,.43-.16.55.55,0,0,0,.17-.41V8.19a.53.53,0,0,0-.17-.4A.6.6,0,0,0,12,7.63a.6.6,0,0,0-.44.16.53.53,0,0,0-.17.4V20a.55.55,0,0,0,.17.41A.64.64,0,0,0,12,20.6Z"/><path class="cls-1" d="M8.35,20.44a.61.61,0,0,0,.42.16.6.6,0,0,0,.43-.16A.5.5,0,0,0,9.35,20L9,8.18a.55.55,0,0,0-.17-.4.6.6,0,0,0-.42-.15A.57.57,0,0,0,8,7.79a.49.49,0,0,0-.16.4L8.19,20A.57.57,0,0,0,8.35,20.44Z"/><path class="cls-1" d="M22.22,4.34a.67.67,0,0,0-.5-.21H16.66V2.41A2.3,2.3,0,0,0,16,.64,2.66,2.66,0,0,0,14.09,0H9.89A2.65,2.65,0,0,0,8,.64a2.34,2.34,0,0,0-.68,1.77V4.13H2.28a.67.67,0,0,0-.49.21.69.69,0,0,0-.21.5.67.67,0,0,0,.21.49.67.67,0,0,0,.49.21H3.75l.78,16a2.65,2.65,0,0,0,.36,1.27,2.27,2.27,0,0,0,.89.85,2.67,2.67,0,0,0,1.29.3h9.87a2.57,2.57,0,0,0,1.29-.31,2.34,2.34,0,0,0,.89-.85,2.74,2.74,0,0,0,.37-1.27l.78-16h1.45a.67.67,0,0,0,.5-.21.71.71,0,0,0,0-1ZM8.8,2.5a1,1,0,0,1,.32-.81,1.19,1.19,0,0,1,.85-.3h4a1.22,1.22,0,0,1,.86.3,1,1,0,0,1,.32.81V4.13H8.8ZM18,21.42a1.21,1.21,0,0,1-.37.84,1.18,1.18,0,0,1-.84.34H7.19a1.18,1.18,0,0,1-.84-.34A1.21,1.21,0,0,1,6,21.42L5.19,5.54H18.76Z"/></svg>