<svg id="Layer_1" data-name="Layer 1" xmlns="http://www.w3.org/2000/svg" viewBox="0 0 80 80"><defs><style>.cls-1{fill:none;}.cls-2{fill:#21293a;}</style></defs><rect class="cls-1" width="80" height="80"/><path class="cls-2" d="M36.47,79.8l-.67-.72a5.58,5.58,0,0,0,1.29-2.77l1,.14A6.32,6.32,0,0,1,36.47,79.8Z"/><path class="cls-2" d="M40,80c-2.57,0-4.77-.07-6.73-.22a4,4,0,0,1-1-.2c-1.2-.38-1.85-.86-2-1.44a1,1,0,0,1,.35-1c1.19-1.2,2.22-1.22,8.72-1.22h1.24c6.5,0,7.53,0,8.72,1.22a1,1,0,0,1,.35,1c-.14.58-.79,1.06-2,1.44a4,4,0,0,1-1,.2C44.77,79.93,42.57,80,40,80Zm-.39-3.13c-6.5,0-7.37,0-8.25.92a.39.39,0,0,0-.09.13c0,.06.28.38,1.33.72a3.22,3.22,0,0,0,.75.15c1.93.15,4.1.22,6.65.22s4.72-.07,6.66-.22a3.24,3.24,0,0,0,.74-.15c1.05-.33,1.32-.66,1.33-.73h0a.33.33,0,0,0-.09-.12c-.88-.88-1.75-.92-8.25-.92h-.78Z"/><path class="cls-2" d="M43.53,79.8a6.32,6.32,0,0,1-1.59-3.35l1-.14a5.58,5.58,0,0,0,1.29,2.77Z"/><path class="cls-2" d="M47.11,79.74l-.08-1A39.38,39.38,0,0,0,57,76.67l1.36-.43c4.36-1.36,4.9-7.74,5.62-20.89.7-12.78.64-31.56.64-31.75.1-3.67-.16-13.68-2.49-16L61.56,7C58.79,4.2,55.66,1,40,1S21.21,4.2,18.44,7l-.55.57c-2.33,2.32-2.59,12.33-2.49,16,0,.21-.06,19,.64,31.77.72,13.15,1.26,19.53,5.62,20.89l1.36.43a39.38,39.38,0,0,0,10,2.09l-.08,1a39.7,39.7,0,0,1-10.17-2.13l-1.35-.43C16.16,75.56,15.74,68,15.05,55.4c-.7-12.8-.64-31.62-.64-31.81,0-.53-.32-13.59,2.78-16.69l.55-.56C20.63,3.37,23.92,0,40,0S59.37,3.37,62.26,6.34l.55.56c3.1,3.1,2.79,16.16,2.78,16.71,0,.17.06,19-.64,31.79C64.26,68,63.84,75.56,58.63,77.18l-1.35.43A39.7,39.7,0,0,1,47.11,79.74Z"/><path class="cls-2" d="M54.34,55.37H25.92a2,2,0,0,1-2-2V22a2,2,0,0,1,2-2H54.34a2,2,0,0,1,2,2V53.36A2,2,0,0,1,54.34,55.37ZM25.92,21a1,1,0,0,0-1,1V53.36a1,1,0,0,0,1,1H54.34a1,1,0,0,0,1-1V22a1,1,0,0,0-1-1Z"/><path class="cls-2" d="M64.23,59.78H25.16a5.07,5.07,0,0,1-5-5l-.59-33.47a5,5,0,0,1,5-5.13H64.91v1H24.57a4,4,0,0,0-4.05,4.13l.59,33.46a4.08,4.08,0,0,0,4.05,4H64.23Z"/><circle class="cls-2" cx="58.41" cy="37.07" r="1.24"/><circle class="cls-2" cx="58.51" cy="40.64" r="1.15"/><circle class="cls-2" cx="58.51" cy="44.34" r="0.91"/><circle class="cls-2" cx="58.51" cy="47.8" r="0.83"/><circle class="cls-2" cx="58.37" cy="51.32" r="0.65"/><circle class="cls-2" cx="58.51" cy="33.49" r="1.15"/><circle class="cls-2" cx="58.51" cy="29.8" r="0.91"/><circle class="cls-2" cx="58.51" cy="26.33" r="0.83"/><circle class="cls-2" cx="58.37" cy="22.81" r="0.65"/></svg>