<svg id="Layer_1" data-name="Layer 1" xmlns="http://www.w3.org/2000/svg" viewBox="0 0 28 28"><defs><style>.cls-1{fill:none;}.cls-2{fill:#16a950;}</style></defs><rect class="cls-1" width="28" height="28"/><path class="cls-2" d="M22.87,17.73A5.14,5.14,0,1,0,28,22.87,5.14,5.14,0,0,0,22.87,17.73Zm0,6.07a.58.58,0,0,1-.19,0L21.1,25.34a.5.5,0,0,1-.71,0,.51.51,0,0,1,0-.71L22,23.05a1.16,1.16,0,0,1,0-.18.92.92,0,0,1,.44-.77V19.87a.5.5,0,0,1,.5-.5.5.5,0,0,1,.5.5V22.1a.92.92,0,0,1-.5,1.7Z"/><path class="cls-2" d="M22.87,16.8a5.9,5.9,0,0,1,1.4.17V5.6H0V23.33A1.87,1.87,0,0,0,1.87,25.2h15.4a6.06,6.06,0,0,1,5.6-8.4ZM19.6,8.87a1.4,1.4,0,1,1-1.4,1.4A1.4,1.4,0,0,1,19.6,8.87Zm0,5.11a1.4,1.4,0,1,1-1.4,1.4A1.4,1.4,0,0,1,19.6,14Zm-15.4,8a1.4,1.4,0,1,1,1.4-1.4A1.4,1.4,0,0,1,4.2,21.93Zm0-5.13a1.4,1.4,0,1,1,1.4-1.4A1.4,1.4,0,0,1,4.2,16.8Zm0-5.13a1.4,1.4,0,1,1,1.4-1.4A1.4,1.4,0,0,1,4.2,11.67ZM9.33,21.93a1.4,1.4,0,1,1,1.4-1.4A1.4,1.4,0,0,1,9.33,21.93Zm0-5.13a1.4,1.4,0,1,1,1.4-1.4A1.4,1.4,0,0,1,9.33,16.8Zm0-5.13a1.4,1.4,0,1,1,1.4-1.4A1.4,1.4,0,0,1,9.33,11.67Zm5.14,10.26a1.4,1.4,0,1,1,1.4-1.4A1.39,1.39,0,0,1,14.47,21.93Zm0-5.13a1.4,1.4,0,1,1,1.4-1.4A1.4,1.4,0,0,1,14.47,16.8Zm0-5.13a1.4,1.4,0,1,1,1.4-1.4A1.4,1.4,0,0,1,14.47,11.67Z"/><path class="cls-2" d="M24.27,1.87A1.87,1.87,0,0,0,22.4,0H1.87A1.87,1.87,0,0,0,0,1.87v2.8H24.27Z"/></svg>