<svg id="Layer_1" data-name="Layer 1" xmlns="http://www.w3.org/2000/svg" viewBox="0 0 24 24"><defs><style>.cls-1{fill:none;}.cls-2{fill:#16a950;}</style></defs><path id="Shape" class="cls-1" d="M0,0H24V24H0Z"/><path class="cls-2" d="M22,.34a1.15,1.15,0,0,1,.52-.3,1.52,1.52,0,0,1,.6,0,1.15,1.15,0,0,1,.52.3,1.1,1.1,0,0,1,.3.52,1.22,1.22,0,0,1,0,.6,1.05,1.05,0,0,1-.3.52L2,23.67a1,1,0,0,1-.52.29,1.18,1.18,0,0,1-.59,0,1.1,1.1,0,0,1-.54-.29A1,1,0,0,1,0,23.15a1.22,1.22,0,0,1,0-.6A1.12,1.12,0,0,1,.33,22Z"/><path class="cls-2" d="M0,1.47a1.22,1.22,0,0,1,0-.6A1.2,1.2,0,0,1,.33.34,1.13,1.13,0,0,1,.86,0a1.22,1.22,0,0,1,.6,0A1.1,1.1,0,0,1,2,.34L23.66,22a1,1,0,0,1,.3.51,1.51,1.51,0,0,1,0,.6,1.13,1.13,0,0,1-.3.53,1,1,0,0,1-.52.29,1.22,1.22,0,0,1-.6,0,1,1,0,0,1-.52-.29L.33,2A1.08,1.08,0,0,1,0,1.47Z"/></svg>