<svg id="Layer_1" data-name="Layer 1" xmlns="http://www.w3.org/2000/svg" viewBox="0 0 20 20"><defs><style>.cls-1{fill:none;}.cls-2{fill:#21293a;opacity:0.5;}</style></defs><rect class="cls-1" width="20" height="20"/><path class="cls-2" d="M1.74,10l9.37-8.8a.68.68,0,0,0,.2-.5.65.65,0,0,0-.1-.36A.67.67,0,0,0,11,.09.74.74,0,0,0,10.6,0a.66.66,0,0,0-.5.21L.24,9.46a.69.69,0,0,0-.18.24A.73.73,0,0,0,0,10a.65.65,0,0,0,.06.29.69.69,0,0,0,.18.24l9.86,9.26a.7.7,0,0,0,.86.11.67.67,0,0,0,.25-.25.61.61,0,0,0,.1-.36.68.68,0,0,0-.2-.5Z"/></svg>