<svg id="Layer_1" data-name="Layer 1" xmlns="http://www.w3.org/2000/svg" viewBox="0 0 28 28"><defs><style>.cls-1{fill:none;}.cls-2{fill:#21293a;}</style></defs><rect class="cls-1" width="28" height="28"/><path class="cls-2" d="M5.59,27.63a1.24,1.24,0,0,1-.39-.93,1.33,1.33,0,0,1,.14-.6,2.87,2.87,0,0,1,.38-.55l3.65-4.31L10,18.32l2.21,2.77c0,.13-.06.26-.1.4a3,3,0,0,1-.12.4,2.51,2.51,0,0,1-.21.52,3.74,3.74,0,0,1-.4.54L7.6,27.46A1.37,1.37,0,0,1,6.51,28,1.25,1.25,0,0,1,5.59,27.63Z"/><path class="cls-2" d="M17.21,27.8a1.57,1.57,0,0,1-.57-.66L14,21.67l-.15-.3a3.86,3.86,0,0,0-.25-.34L11,17.87a8.56,8.56,0,0,1-.91-1.46,3.55,3.55,0,0,1-.33-1.87l.22-2.9c0-.16,0-.27-.16-.31a.31.31,0,0,0-.34.07l-1.14,1-.27,3.22a1.42,1.42,0,0,1-.42,1,1.23,1.23,0,0,1-.91.28,1.17,1.17,0,0,1-.87-.41,1.28,1.28,0,0,1-.26-1l.23-3a3.59,3.59,0,0,1,.25-1.06,3.29,3.29,0,0,1,.68-.94L8.74,8.61a10.33,10.33,0,0,1,1.81-1.45,3.62,3.62,0,0,1,1.88-.52,2.81,2.81,0,0,1,1.62.45,2.68,2.68,0,0,1,1,1.19,3.63,3.63,0,0,1,.25,1.66L15,13.5q0,.64-.12,1.17a10.28,10.28,0,0,1-.21,1.08c-.08.37-.2.78-.33,1.24l-.09.26,1.49,2.14c.12.17.25.34.37.54s.25.43.37.67L19,25.76a3.78,3.78,0,0,1,.17.46,1.33,1.33,0,0,1,.07.43,1.29,1.29,0,0,1-.4,1,1.39,1.39,0,0,1-1.65.16Z"/><path class="cls-2" d="M12.53,5.23a2.85,2.85,0,0,1-1-1,2.68,2.68,0,0,1-.37-1.39,2.82,2.82,0,0,1,.37-1.43,2.8,2.8,0,0,1,1-1,2.84,2.84,0,0,1,2.84,0,2.77,2.77,0,0,1,1,1,2.83,2.83,0,0,1,.38,1.43,2.69,2.69,0,0,1-.38,1.39,2.82,2.82,0,0,1-1,1,2.78,2.78,0,0,1-2.84,0Z"/><path class="cls-2" d="M17.64,14A1.78,1.78,0,0,1,17,13.6l-.89-.9.22-3.27,2.1,2.24h3a1.44,1.44,0,0,1,1,.34,1.2,1.2,0,0,1,.37.9,1.18,1.18,0,0,1-.36.89,1.39,1.39,0,0,1-1,.34H18.53A2.76,2.76,0,0,1,17.64,14Z"/></svg>