<svg id="Layer_1" data-name="Layer 1" xmlns="http://www.w3.org/2000/svg" viewBox="0 0 24 24"><defs><style>.cls-1{opacity:0.6;}.cls-2{fill:#3c3c43;}.cls-3{fill:none;}</style></defs><g class="cls-1"><path class="cls-2" d="M.47,12a.67.67,0,0,1,0-1A.73.73,0,0,1,1,10.78h2.8a.77.77,0,0,1,.55.21.7.7,0,0,1,.22.5.63.63,0,0,1-.22.49.75.75,0,0,1-.55.21H1A.73.73,0,0,1,.47,12Z"/><path class="cls-2" d="M.42,19.93a.56.56,0,0,1-.17-.4.54.54,0,0,1,.17-.4A.54.54,0,0,1,.82,19H21.65a.55.55,0,0,1,.56.56.55.55,0,0,1-.16.4.58.58,0,0,1-.4.16H.82A.58.58,0,0,1,.42,19.93Z"/><path class="cls-2" d="M2,16a.55.55,0,0,1-.17-.41A.52.52,0,0,1,2,15.22a.54.54,0,0,1,.4-.16H23.18a.54.54,0,0,1,.4.16.52.52,0,0,1,.17.39.55.55,0,0,1-.17.41.57.57,0,0,1-.4.15H2.35A.57.57,0,0,1,2,16Z"/><path class="cls-2" d="M2,23.84A.56.56,0,0,1,2,23a.54.54,0,0,1,.4-.16H23.18a.54.54,0,0,1,.4.16.56.56,0,0,1,0,.8.54.54,0,0,1-.4.16H2.35A.54.54,0,0,1,2,23.84Z"/><path class="cls-2" d="M6.24,6.69a.71.71,0,0,1-.53-.24l-2-2a.71.71,0,0,1,0-1,.72.72,0,0,1,.5-.2.75.75,0,0,1,.54.24l2,2A.78.78,0,0,1,6.94,6a.64.64,0,0,1-.19.5A.62.62,0,0,1,6.24,6.69Z"/><path class="cls-2" d="M17.31,12.9A4.8,4.8,0,0,1,16.92,14H7.07a5.34,5.34,0,0,1-.38-1.06,4.57,4.57,0,0,1-.14-1.17A5.25,5.25,0,0,1,7,9.63,5.64,5.64,0,0,1,8.15,7.89,5.73,5.73,0,0,1,9.89,6.7a5.39,5.39,0,0,1,4.22,0,5.57,5.57,0,0,1,1.73,1.19A5.47,5.47,0,0,1,17,9.63a5.2,5.2,0,0,1,.29,3.27Z"/><path class="cls-2" d="M11.5,4.11a.83.83,0,0,1-.2-.55V.76a.79.79,0,0,1,.2-.55.7.7,0,0,1,1,0,.79.79,0,0,1,.2.55v2.8a.8.8,0,0,1-.2.54.7.7,0,0,1-.5.22A.62.62,0,0,1,11.5,4.11Z"/><path class="cls-2" d="M17.05,6a.79.79,0,0,1,.24-.54l2-2a.75.75,0,0,1,.54-.24.64.64,0,0,1,.49.2.67.67,0,0,1,.21.5.71.71,0,0,1-.24.53l-2,2a.71.71,0,0,1-.53.24.62.62,0,0,1-.51-.2A.62.62,0,0,1,17.05,6Z"/><path class="cls-2" d="M19.64,12a.68.68,0,0,1-.22-.49.65.65,0,0,1,.22-.5.75.75,0,0,1,.55-.21H23a.75.75,0,0,1,.55.21.66.66,0,0,1,.22.5.63.63,0,0,1-.22.49.75.75,0,0,1-.55.21H20.19A.77.77,0,0,1,19.64,12Z"/><rect class="cls-3" width="24" height="24"/></g></svg>