<svg id="Layer_1" data-name="Layer 1" xmlns="http://www.w3.org/2000/svg" viewBox="0 0 28 28"><defs><style>.cls-1{fill:#21293a;}.cls-2{fill:none;}</style></defs><path class="cls-1" d="M17.28,14.82V28h6.56a2.51,2.51,0,0,0,2.52-2.46V14.82Z"/><path class="cls-1" d="M1.64,14.82V25.54A2.46,2.46,0,0,0,4.1,28h6.62V14.82Z"/><path class="cls-1" d="M25.54,6.56H22.18A4.06,4.06,0,0,0,23,4.1,4.11,4.11,0,0,0,18.92,0C16.06,0,15.23,2.06,14,5.18,12.77,2.06,11.94,0,9.08,0A4.11,4.11,0,0,0,5,4.1a4.06,4.06,0,0,0,.84,2.46H2.46A2.46,2.46,0,0,0,0,9v1.7a2.46,2.46,0,0,0,2.46,2.46h8.26V6.56H9.08a2.46,2.46,0,0,1,0-4.92c1.68,0,2.16,1,3.41,4.2.09.22.2.49.3.72h-.43v6.62h3.28V6.56h-.43c.1-.23.21-.5.3-.72,1.25-3.19,1.73-4.2,3.41-4.2a2.46,2.46,0,0,1,0,4.92H17.28v6.62h8.26A2.46,2.46,0,0,0,28,10.72V9A2.46,2.46,0,0,0,25.54,6.56Z"/><path class="cls-1" d="M12.36,28h3.28V14.82H12.36Z"/><rect class="cls-2" width="28" height="28"/></svg>