<svg id="Layer_1" data-name="Layer 1" xmlns="http://www.w3.org/2000/svg" viewBox="0 0 35 35"><defs><style>.cls-1{fill:#005c30;}.cls-2{fill:none;}</style></defs><path class="cls-1" d="M30.21,13.93a18.86,18.86,0,0,0-2.57-5.18A19.38,19.38,0,0,0,23.9,4.83a21.46,21.46,0,0,0-4.43-2.72A23.9,23.9,0,0,0,14.77.52,20.72,20.72,0,0,0,10.28,0,3.77,3.77,0,0,0,8.2.51,1.64,1.64,0,0,0,7.41,2a1.84,1.84,0,0,0,.16.75A3.08,3.08,0,0,0,8,3.45,29.55,29.55,0,0,1,9.88,5.92a12.45,12.45,0,0,1,1.37,2.56,7.46,7.46,0,0,1,.52,2.78,4,4,0,0,1-.06.69,8,8,0,0,0-.87-1.46A5.08,5.08,0,0,0,9.4,9.25a3.08,3.08,0,0,0-1.49-.41,1.33,1.33,0,0,0-1,.4,1.45,1.45,0,0,0-.38,1.08,9.63,9.63,0,0,0,.06,1,11.45,11.45,0,0,1,.06,1.22,7.33,7.33,0,0,1-.28,2.06,14.75,14.75,0,0,1-.7,1.84c-.28.6-.55,1.25-.83,1.94a14.26,14.26,0,0,0-.7,2.35,15.66,15.66,0,0,0-.28,3.11,11.14,11.14,0,0,0,.92,4.57,10,10,0,0,0,2.62,3.53,11.92,11.92,0,0,0,4.08,2.28,16.82,16.82,0,0,0,5.28.79,16,16,0,0,0,5.88-1,12.82,12.82,0,0,0,7.49-7.56,16.48,16.48,0,0,0,1-6A21.32,21.32,0,0,0,30.21,13.93ZM22,26.82a4.88,4.88,0,0,1-1.85,2.05,5.51,5.51,0,0,1-3,.76,5,5,0,0,1-3.49-1.18,4,4,0,0,1-1.32-3.12,4.56,4.56,0,0,1,.29-1.71,7.13,7.13,0,0,1,.67-1.29q.39-.58.72-1.17a3.72,3.72,0,0,0,.43-1.33.29.29,0,0,1,.15-.26.27.27,0,0,1,.32.09,4.73,4.73,0,0,1,.84,1.05,7.31,7.31,0,0,1,.6,1.32,6,6,0,0,0,.75-2.49A13.5,13.5,0,0,0,17,16.32a.29.29,0,0,1,.1-.31.33.33,0,0,1,.32,0,8.52,8.52,0,0,1,2.82,2A9,9,0,0,1,22,20.8,8.69,8.69,0,0,1,22.6,24,6.39,6.39,0,0,1,22,26.82Z"/><rect class="cls-2" width="35" height="35"/></svg>