<svg id="Layer_1" data-name="Layer 1" xmlns="http://www.w3.org/2000/svg" viewBox="0 0 20 20"><defs><style>.cls-1{fill:none;}.cls-2{opacity:0.5;}.cls-3{fill:#21293a;}</style></defs><rect class="cls-1" width="20" height="20"/><g class="cls-2"><path class="cls-3" d="M14.94,13.09l4.68,4.69a1.3,1.3,0,0,1,0,1.84h0a1.3,1.3,0,0,1-1.84,0L13.1,14.93Z"/><path class="cls-3" d="M8.26,0A8.31,8.31,0,0,0,0,8.26a8.31,8.31,0,0,0,8.26,8.26,8.31,8.31,0,0,0,8.26-8.26A8.31,8.31,0,0,0,8.26,0Zm0,14.78a6.52,6.52,0,1,1,6.52-6.52A6.56,6.56,0,0,1,8.26,14.78Z"/></g></svg>