<svg id="Layer_1" data-name="Layer 1" xmlns="http://www.w3.org/2000/svg" viewBox="0 0 28 28"><defs><style>.cls-1{fill:none;}.cls-2{fill:#21293a;}</style></defs><rect class="cls-1" width="28" height="28"/><path class="cls-2" d="M27.29,9.61a14.36,14.36,0,0,0-2-3.84,14.7,14.7,0,0,0-3.05-3,14.27,14.27,0,0,0-3.85-2,14,14,0,0,0-8.79,0,14.15,14.15,0,0,0-3.83,2,14.7,14.7,0,0,0-3,3,14,14,0,0,0-2,3.84,13.93,13.93,0,0,0,0,8.78,14.26,14.26,0,0,0,5.05,6.89,14,14,0,0,0,3.84,2,13.77,13.77,0,0,0,8.79,0,14,14,0,0,0,3.84-2,14.41,14.41,0,0,0,3.05-3,14.27,14.27,0,0,0,2-3.85,13.93,13.93,0,0,0,0-8.78Zm-12.47,5a.82.82,0,0,1-.84.83H6.56a.81.81,0,0,1-.6-.24.84.84,0,0,1-.23-.59A.82.82,0,0,1,6,14a.81.81,0,0,1,.6-.24h6.6V5a.81.81,0,0,1,.24-.59A.78.78,0,0,1,14,4.16a.82.82,0,0,1,.84.83Z"/></svg>