<svg id="Layer_1" data-name="Layer 1" xmlns="http://www.w3.org/2000/svg" viewBox="0 0 35 35"><defs><style>.cls-1{fill:none;}.cls-2{fill:#005c30;}</style></defs><rect class="cls-1" width="35" height="35"/><path class="cls-2" d="M4.55,34.5a1.63,1.63,0,0,1-.43-1.11,1.74,1.74,0,0,1,.14-.66,1.78,1.78,0,0,1,.43-.62l5.36-5.33,4.26-15a.53.53,0,0,0-.07-.53.65.65,0,0,0-.52-.16l-2.5.16-.66,4.69A1.66,1.66,0,0,1,10,17.08a1.42,1.42,0,0,1-1.07.3,1.28,1.28,0,0,1-1-.56,1.74,1.74,0,0,1-.24-1.26l.76-5.7a1.77,1.77,0,0,1,1.67-1.61l6-.49a6.58,6.58,0,0,1,3.36.48,6.15,6.15,0,0,1,2.4,2.06l2.79,3.92,4-1.75a1.66,1.66,0,0,1,1.27-.13,1.54,1.54,0,0,1,.88,1.93,1.67,1.67,0,0,1-.91.86l-5.05,2.25a1.59,1.59,0,0,1-1.07.08,1.5,1.5,0,0,1-.86-.61L21,14.14a.55.55,0,0,0-.52-.31c-.2,0-.34.17-.42.44l-1.2,4.31,5.93,3.9a1.74,1.74,0,0,1,1,1.4,1.67,1.67,0,0,1-.14.67,2,2,0,0,1-.54.65L19.8,29.72a3.92,3.92,0,0,1-.78.52,1.53,1.53,0,0,1-.86.15,1.29,1.29,0,0,1-1-.53,1.5,1.5,0,0,1-.31-1.05,1.55,1.55,0,0,1,.18-.65,2,2,0,0,1,.48-.6l3.87-3.31-4.27-2.5a1.4,1.4,0,0,0-1.12-.2,1.17,1.17,0,0,0-.72.75L13,28.06a4.36,4.36,0,0,1-.34.71,3.33,3.33,0,0,1-.48.53l-5,4.89a3.82,3.82,0,0,1-.74.59,1.55,1.55,0,0,1-.84.22A1.41,1.41,0,0,1,4.55,34.5Z"/><path class="cls-2" d="M19.21,6.57a3.7,3.7,0,0,1-1.27-1.28,3.44,3.44,0,0,1-.46-1.75,3.5,3.5,0,0,1,.46-1.78A3.7,3.7,0,0,1,19.21.48a3.5,3.5,0,0,1,3.54,0A3.62,3.62,0,0,1,24,1.76a3.42,3.42,0,0,1,.48,1.78A3.36,3.36,0,0,1,24,5.29a3.62,3.62,0,0,1-1.27,1.28,3.57,3.57,0,0,1-3.54,0Z"/></svg>