<svg id="Layer_1" data-name="Layer 1" xmlns="http://www.w3.org/2000/svg" viewBox="0 0 60 60"><defs><style>.cls-1{fill:#fff;}.cls-2{fill:#005c30;}.cls-2,.cls-3{fill-rule:evenodd;}.cls-3{fill:#16a950;}</style></defs><rect class="cls-1" width="60" height="60" rx="10"/><path class="cls-2" d="M50,21.36H43.57a26.14,26.14,0,0,1-3.43,0,6.44,6.44,0,0,1-3.44-1.8,6.54,6.54,0,0,1-1.72-3V10a1.3,1.3,0,0,0-1.3-1.3h-7.4A1.3,1.3,0,0,0,25,10V17.4a1.3,1.3,0,0,0,1.3,1.3h6.54a6.55,6.55,0,0,1,4.74,4.71,22,22,0,0,1,.08,4.24v6.07A4.55,4.55,0,0,0,37.82,35a4.79,4.79,0,0,0,1.46-1.84V26.33A3.35,3.35,0,0,1,42.62,23H50a3.35,3.35,0,0,1,3.35,3.34v7.39A3.35,3.35,0,0,1,50,37.05H43.17a5.09,5.09,0,0,0-1.84,1.46,5,5,0,0,0,1.29.17H50a5,5,0,0,0,5-5V26.33A5,5,0,0,0,50,21.36Z"/><path class="cls-3" d="M21.26,10v6.44a26.07,26.07,0,0,1,0,3.42,6.53,6.53,0,0,1-1.81,3.44,6.43,6.43,0,0,1-3,1.71H9.9a1.31,1.31,0,0,0-1.31,1.3v7.39A1.31,1.31,0,0,0,9.9,35h7.4a1.3,1.3,0,0,0,1.3-1.3V27.14a6.56,6.56,0,0,1,4.72-4.72,21.2,21.2,0,0,1,4.24-.09h6.08a4.69,4.69,0,0,0,1.3-.18,5.48,5.48,0,0,0-.4-.44,4.55,4.55,0,0,0-1.51-1H26.24a3.36,3.36,0,0,1-3.35-3.34V10a3.35,3.35,0,0,1,3.35-3.34h7.4A3.35,3.35,0,0,1,37,10v6.78a4.69,4.69,0,0,0,1,1.51,5.34,5.34,0,0,0,.44.39,4.57,4.57,0,0,0,.18-1.29V10a5,5,0,0,0-5-5h-7.4A5,5,0,0,0,21.26,10Z"/><path class="cls-2" d="M10,38.64h6.45a26.14,26.14,0,0,1,3.43,0,6.44,6.44,0,0,1,3.44,1.8,6.54,6.54,0,0,1,1.72,3V50a1.3,1.3,0,0,0,1.3,1.3h7.4A1.3,1.3,0,0,0,35,50V42.6a1.3,1.3,0,0,0-1.3-1.3H27.18a6.55,6.55,0,0,1-4.74-4.71,21.88,21.88,0,0,1-.09-4.23V26.29A4.87,4.87,0,0,0,22.17,25a4.13,4.13,0,0,0-.55.47,4.91,4.91,0,0,0-.9,1.24v7A3.34,3.34,0,0,1,17.38,37H10a3.35,3.35,0,0,1-3.35-3.33V26.29A3.35,3.35,0,0,1,10,23h6.76a4.63,4.63,0,0,0,1.42-1,4.14,4.14,0,0,0,.44-.5,4.91,4.91,0,0,0-1.22-.15H10a5,5,0,0,0-5,5v7.39A5,5,0,0,0,10,38.64Z"/><path class="cls-3" d="M38.66,50V43.59a26.07,26.07,0,0,1,0-3.42,6.53,6.53,0,0,1,1.81-3.44,6.43,6.43,0,0,1,3-1.71H50a1.3,1.3,0,0,0,1.3-1.3V26.33A1.31,1.31,0,0,0,50,25h-7.4a1.3,1.3,0,0,0-1.3,1.3v6.53a6.56,6.56,0,0,1-4.72,4.72,21.2,21.2,0,0,1-4.24.09H26.28a5,5,0,0,0-1.23.16,4.36,4.36,0,0,0,.41.46,4.61,4.61,0,0,0,1.5,1h6.72A3.35,3.35,0,0,1,37,42.64V50a3.35,3.35,0,0,1-3.34,3.34h-7.4A3.35,3.35,0,0,1,22.94,50v-7A4.73,4.73,0,0,0,22,41.74a4.23,4.23,0,0,0-.51-.44,5,5,0,0,0-.19,1.34V50a5,5,0,0,0,5,5h7.4A5,5,0,0,0,38.66,50Z"/></svg>