<svg xmlns="http://www.w3.org/2000/svg" xmlns:xlink="http://www.w3.org/1999/xlink" width="198" height="199" viewBox="0 0 198 199"><defs><clipPath id="a"><ellipse cx="99" cy="99.5" rx="99" ry="99.5" transform="translate(52 39)" fill="#fff"/></clipPath><clipPath id="b"><rect width="198.809" height="198.809" rx="20" fill="none"/></clipPath></defs><g transform="translate(-52 -39)" clip-path="url(#a)"><g transform="translate(-5628.405 -915.405)"><g transform="translate(5680 954.163)" clip-path="url(#b)"><rect width="198.809" height="198.809" fill="#3fa9f5"/><path d="M5750.439,1052.467s-5.592,7.565-7.346,8.986-41.707,14.071-48.049,22.59c-8.26,11.083-11.428,36.312-13.051,57.118H5860.98c-1.623-20.806-4.791-46.034-13.051-57.118-6.342-8.52-46.3-21.164-48.047-22.59s-7.348-8.986-7.348-8.986h-.381v-8.291a46.864,46.864,0,0,0,5.441-8.539c.8-1.65,1.477-5.169,2.063-9.652,6.582-3.022,7.375-13.544,7.654-19.444.154-3.246-1.615-3.166-3.371-2.316a154.881,154.881,0,0,0,6.27-20.95l3.324.666a20.749,20.749,0,0,0-13.385-11.491,13.993,13.993,0,0,0-1.133-5.258l-.479,2.778a23.286,23.286,0,0,0-5.645-9.9l1.129,6.054c-7.4-7.58-19.9-6.308-26.215-4.354-.262.079-.547.154-.84.219a37.888,37.888,0,0,1-12.9-4.856c.223,2.117,2.215,3.683,3.766,5.293a163.113,163.113,0,0,1-20.568-2.738,28.966,28.966,0,0,0,1.7,9.339,24.322,24.322,0,0,1-4.5-2.316q1.992,5.174,3.979,10.348l-2.129-1.486c-.252,8.7-.152,17.6,2.7,25.83.184.527.416,1.044.625,1.561.25.686.5,1.347.762,1.948-2.037-1.322-4.779-2.386-4.594,1.625.279,5.9,1.076,16.432,7.664,19.449.588,4.483,1.27,8,2.068,9.647a47.145,47.145,0,0,0,5.283,8.345v8.484Z" transform="translate(-5672.083 -942.352)" fill="#21293a"/></g></g></g></svg>