<svg xmlns="http://www.w3.org/2000/svg" xmlns:xlink="http://www.w3.org/1999/xlink" width="198" height="199" viewBox="0 0 198 199"><defs><clipPath id="a"><ellipse cx="99" cy="99.5" rx="99" ry="99.5" transform="translate(52 39)" fill="none"/></clipPath></defs><g transform="translate(-52 -39)" clip-path="url(#a)"><g transform="translate(-5628 -464.106)"><g transform="translate(5680 498.163)"><rect width="201.001" height="209.212" transform="translate(0 0)" fill="#ff7bac"/><path d="M5739.313,615.065s-9.645,3.87-15.752,8.335c-10.088,3.135-25.042,8.017-28.559,12.67-6.33,8.374-8.789,32.256-10.064,52.011h147.5c-1.275-19.754-3.731-43.637-10.064-52.011-3.513-4.653-18.47-9.535-28.559-12.67-6.1-4.465-15.749-8.335-15.749-8.335s-.065.164-.173.456h0l.128-.337a12.751,12.751,0,0,1-.426-3.056v-5.145a50.74,50.74,0,0,0,5.936-10.031,69.973,69.973,0,0,0,2.761-7.372,64.9,64.9,0,0,0,1.713-7.674,3.082,3.082,0,0,0,.427.01c.758,8.513,1.516,17.22,1.516,17.22s.836-9.049,1.632-18.931a10.954,10.954,0,0,0,2.434-5.765,10.123,10.123,0,0,0-1.454-7.273,103.435,103.435,0,0,0,.417-11.514c-.566-4.405-.758-23.371-13.051-25.862,0,0,14.061-21.962-21.236-21.962s-21.237,21.962-21.237,21.962c-12.292,2.49-12.481,21.456-13.051,25.862a104.182,104.182,0,0,0,.417,11.514,10.142,10.142,0,0,0-1.454,7.273,11,11,0,0,0,2.435,5.77c.8,9.877,1.631,18.926,1.631,18.926s.758-8.7,1.517-17.21a2.942,2.942,0,0,0,.551-.025,3.244,3.244,0,0,0,.958-.293,68.6,68.6,0,0,0,1.819,7.972,70.433,70.433,0,0,0,2.765,7.372,51.757,51.757,0,0,0,4.818,8.508v6.559h-.067a12.972,12.972,0,0,1-.427,3.165Z" transform="translate(-5660.753 -483.72)" fill="#21293a"/></g><rect width="195.87" height="195.87" rx="20" transform="translate(5680 504.321)" fill="none"/></g></g></svg>